<mxfile host="app.diagrams.net" modified="2024-05-12T14:43:14.713Z" agent="Mozilla/5.0 (Windows NT 10.0; Win64; x64) AppleWebKit/537.36 (KHTML, like Gecko) Chrome/124.0.0.0 Safari/537.36 Edg/124.0.0.0" etag="26Z2WwUHCsZUiEZkwbhQ" version="24.3.1" type="device" pages="14">
  <diagram id="70PZwkkUjJ4TZ8nBGo45" name="Page-0">
    <mxGraphModel dx="1002" dy="1669" grid="1" gridSize="10" guides="1" tooltips="1" connect="1" arrows="1" fold="1" page="1" pageScale="1" pageWidth="850" pageHeight="1100" math="0" shadow="0">
      <root>
        <mxCell id="0" />
        <mxCell id="1" parent="0" />
        <mxCell id="qtoTCCgbmecPkmlFZidE-1" value="" style="strokeWidth=2;html=1;shape=mxgraph.flowchart.annotation_2;align=left;labelPosition=right;pointerEvents=1;rounded=1;labelBackgroundColor=none;" parent="1" vertex="1">
          <mxGeometry x="410" y="-400" width="90" height="210" as="geometry" />
        </mxCell>
        <mxCell id="qtoTCCgbmecPkmlFZidE-2" value="Scale (1-5)" style="rounded=1;whiteSpace=wrap;html=1;fontSize=15;labelBackgroundColor=none;" parent="1" vertex="1">
          <mxGeometry x="290" y="-325" width="120" height="60" as="geometry" />
        </mxCell>
        <mxCell id="qtoTCCgbmecPkmlFZidE-3" value="Low (1-3)" style="rounded=1;whiteSpace=wrap;html=1;fontSize=15;labelBackgroundColor=none;" parent="1" vertex="1">
          <mxGeometry x="500" y="-430" width="120" height="60" as="geometry" />
        </mxCell>
        <mxCell id="qtoTCCgbmecPkmlFZidE-4" value="High (4-5)" style="rounded=1;whiteSpace=wrap;html=1;fontSize=15;labelBackgroundColor=none;" parent="1" vertex="1">
          <mxGeometry x="500" y="-220" width="120" height="60" as="geometry" />
        </mxCell>
        <mxCell id="qtoTCCgbmecPkmlFZidE-5" value="" style="strokeWidth=2;html=1;shape=mxgraph.flowchart.annotation_2;align=left;labelPosition=right;pointerEvents=1;rounded=1;labelBackgroundColor=none;" parent="1" vertex="1">
          <mxGeometry x="620" y="-438.75" width="100" height="77.5" as="geometry" />
        </mxCell>
        <mxCell id="qtoTCCgbmecPkmlFZidE-6" value="Low (1-2)" style="rounded=1;whiteSpace=wrap;html=1;fontSize=15;labelBackgroundColor=none;" parent="1" vertex="1">
          <mxGeometry x="720" y="-470" width="120" height="60" as="geometry" />
        </mxCell>
        <mxCell id="qtoTCCgbmecPkmlFZidE-7" value="High (3)" style="rounded=1;whiteSpace=wrap;html=1;fontSize=15;labelBackgroundColor=none;" parent="1" vertex="1">
          <mxGeometry x="720" y="-390" width="120" height="60" as="geometry" />
        </mxCell>
        <mxCell id="qtoTCCgbmecPkmlFZidE-8" value="" style="strokeWidth=2;html=1;shape=mxgraph.flowchart.annotation_2;align=left;labelPosition=right;pointerEvents=1;rounded=1;labelBackgroundColor=none;" parent="1" vertex="1">
          <mxGeometry x="620" y="-228.75" width="100" height="77.5" as="geometry" />
        </mxCell>
        <mxCell id="qtoTCCgbmecPkmlFZidE-9" value="Low (4)" style="rounded=1;whiteSpace=wrap;html=1;fontSize=15;labelBackgroundColor=none;" parent="1" vertex="1">
          <mxGeometry x="720" y="-260" width="120" height="60" as="geometry" />
        </mxCell>
        <mxCell id="qtoTCCgbmecPkmlFZidE-10" value="High (5)" style="rounded=1;whiteSpace=wrap;html=1;fontSize=15;labelBackgroundColor=none;" parent="1" vertex="1">
          <mxGeometry x="720" y="-180" width="120" height="60" as="geometry" />
        </mxCell>
        <mxCell id="qtoTCCgbmecPkmlFZidE-11" value="" style="strokeWidth=2;html=1;shape=mxgraph.flowchart.annotation_2;align=left;labelPosition=right;pointerEvents=1;rounded=1;labelBackgroundColor=none;" parent="1" vertex="1">
          <mxGeometry x="840" y="-478.75" width="100" height="77.5" as="geometry" />
        </mxCell>
        <mxCell id="qtoTCCgbmecPkmlFZidE-12" value="Low (1)" style="rounded=1;whiteSpace=wrap;html=1;fontSize=15;labelBackgroundColor=none;" parent="1" vertex="1">
          <mxGeometry x="940" y="-510" width="120" height="60" as="geometry" />
        </mxCell>
        <mxCell id="qtoTCCgbmecPkmlFZidE-13" value="High (2)" style="rounded=1;whiteSpace=wrap;html=1;fontSize=15;labelBackgroundColor=none;" parent="1" vertex="1">
          <mxGeometry x="940" y="-430" width="120" height="60" as="geometry" />
        </mxCell>
        <mxCell id="qtoTCCgbmecPkmlFZidE-14" value="Model 0" style="swimlane;whiteSpace=wrap;html=1;rounded=1;labelBackgroundColor=none;" parent="1" vertex="1">
          <mxGeometry x="480" y="-470" width="160" height="320" as="geometry" />
        </mxCell>
        <mxCell id="qtoTCCgbmecPkmlFZidE-15" value="Model 1" style="swimlane;whiteSpace=wrap;html=1;rounded=1;labelBackgroundColor=none;" parent="1" vertex="1">
          <mxGeometry x="690" y="-510" width="170" height="190" as="geometry" />
        </mxCell>
        <mxCell id="qtoTCCgbmecPkmlFZidE-16" value="Model 2" style="swimlane;whiteSpace=wrap;html=1;rounded=1;labelBackgroundColor=none;" parent="1" vertex="1">
          <mxGeometry x="690" y="-295" width="170" height="185" as="geometry" />
        </mxCell>
        <mxCell id="qtoTCCgbmecPkmlFZidE-17" value="Model 3" style="swimlane;whiteSpace=wrap;html=1;rounded=1;labelBackgroundColor=none;" parent="1" vertex="1">
          <mxGeometry x="915" y="-550" width="170" height="190" as="geometry" />
        </mxCell>
      </root>
    </mxGraphModel>
  </diagram>
  <diagram name="Page-1" id="iPWS36YhPfJdwqb7ZDxH">
    <mxGraphModel dx="1852" dy="569" grid="1" gridSize="10" guides="1" tooltips="1" connect="1" arrows="1" fold="1" page="1" pageScale="1" pageWidth="850" pageHeight="1100" math="0" shadow="0">
      <root>
        <mxCell id="0" />
        <mxCell id="1" parent="0" />
        <mxCell id="03qx-U8Q-51VPEgpznjb-32" style="edgeStyle=orthogonalEdgeStyle;rounded=0;orthogonalLoop=1;jettySize=auto;html=1;" parent="1" source="03qx-U8Q-51VPEgpznjb-1" target="03qx-U8Q-51VPEgpznjb-11" edge="1">
          <mxGeometry relative="1" as="geometry">
            <Array as="points">
              <mxPoint x="425" y="330" />
              <mxPoint x="90" y="330" />
            </Array>
          </mxGeometry>
        </mxCell>
        <mxCell id="03qx-U8Q-51VPEgpznjb-33" style="edgeStyle=orthogonalEdgeStyle;rounded=0;orthogonalLoop=1;jettySize=auto;html=1;fontSize=16;" parent="1" source="03qx-U8Q-51VPEgpznjb-1" target="03qx-U8Q-51VPEgpznjb-18" edge="1">
          <mxGeometry relative="1" as="geometry" />
        </mxCell>
        <mxCell id="03qx-U8Q-51VPEgpznjb-34" style="edgeStyle=orthogonalEdgeStyle;rounded=0;orthogonalLoop=1;jettySize=auto;html=1;fontSize=16;" parent="1" source="03qx-U8Q-51VPEgpznjb-1" target="03qx-U8Q-51VPEgpznjb-25" edge="1">
          <mxGeometry relative="1" as="geometry">
            <Array as="points">
              <mxPoint x="425" y="330" />
              <mxPoint x="760" y="330" />
            </Array>
          </mxGeometry>
        </mxCell>
        <mxCell id="03qx-U8Q-51VPEgpznjb-1" value="Dataset" style="swimlane;fontStyle=0;childLayout=stackLayout;horizontal=1;startSize=26;fillColor=none;horizontalStack=0;resizeParent=1;resizeParentMax=0;resizeLast=0;collapsible=1;marginBottom=0;whiteSpace=wrap;html=1;fontSize=16;" parent="1" vertex="1">
          <mxGeometry x="355" y="120" width="140" height="182" as="geometry" />
        </mxCell>
        <mxCell id="03qx-U8Q-51VPEgpznjb-6" value="+ Instance 0" style="text;strokeColor=none;fillColor=none;align=left;verticalAlign=top;spacingLeft=4;spacingRight=4;overflow=hidden;rotatable=0;points=[[0,0.5],[1,0.5]];portConstraint=eastwest;whiteSpace=wrap;html=1;fontSize=16;" parent="03qx-U8Q-51VPEgpznjb-1" vertex="1">
          <mxGeometry y="26" width="140" height="26" as="geometry" />
        </mxCell>
        <mxCell id="03qx-U8Q-51VPEgpznjb-2" value="+ Instance 1" style="text;strokeColor=none;fillColor=none;align=left;verticalAlign=top;spacingLeft=4;spacingRight=4;overflow=hidden;rotatable=0;points=[[0,0.5],[1,0.5]];portConstraint=eastwest;whiteSpace=wrap;html=1;fontSize=16;" parent="03qx-U8Q-51VPEgpznjb-1" vertex="1">
          <mxGeometry y="52" width="140" height="26" as="geometry" />
        </mxCell>
        <mxCell id="03qx-U8Q-51VPEgpznjb-7" value="+ Instance 2" style="text;strokeColor=none;fillColor=none;align=left;verticalAlign=top;spacingLeft=4;spacingRight=4;overflow=hidden;rotatable=0;points=[[0,0.5],[1,0.5]];portConstraint=eastwest;whiteSpace=wrap;html=1;fontSize=16;" parent="03qx-U8Q-51VPEgpznjb-1" vertex="1">
          <mxGeometry y="78" width="140" height="26" as="geometry" />
        </mxCell>
        <mxCell id="03qx-U8Q-51VPEgpznjb-8" value="+ Instance 3" style="text;strokeColor=none;fillColor=none;align=left;verticalAlign=top;spacingLeft=4;spacingRight=4;overflow=hidden;rotatable=0;points=[[0,0.5],[1,0.5]];portConstraint=eastwest;whiteSpace=wrap;html=1;fontSize=16;" parent="03qx-U8Q-51VPEgpznjb-1" vertex="1">
          <mxGeometry y="104" width="140" height="26" as="geometry" />
        </mxCell>
        <mxCell id="03qx-U8Q-51VPEgpznjb-9" value="+ Instance 4" style="text;strokeColor=none;fillColor=none;align=left;verticalAlign=top;spacingLeft=4;spacingRight=4;overflow=hidden;rotatable=0;points=[[0,0.5],[1,0.5]];portConstraint=eastwest;whiteSpace=wrap;html=1;fontSize=16;" parent="03qx-U8Q-51VPEgpznjb-1" vertex="1">
          <mxGeometry y="130" width="140" height="26" as="geometry" />
        </mxCell>
        <mxCell id="03qx-U8Q-51VPEgpznjb-10" value="+ Instance 5" style="text;strokeColor=none;fillColor=none;align=left;verticalAlign=top;spacingLeft=4;spacingRight=4;overflow=hidden;rotatable=0;points=[[0,0.5],[1,0.5]];portConstraint=eastwest;whiteSpace=wrap;html=1;fontSize=16;" parent="03qx-U8Q-51VPEgpznjb-1" vertex="1">
          <mxGeometry y="156" width="140" height="26" as="geometry" />
        </mxCell>
        <mxCell id="03qx-U8Q-51VPEgpznjb-87" style="edgeStyle=orthogonalEdgeStyle;rounded=0;orthogonalLoop=1;jettySize=auto;html=1;" parent="1" source="03qx-U8Q-51VPEgpznjb-11" target="03qx-U8Q-51VPEgpznjb-63" edge="1">
          <mxGeometry relative="1" as="geometry" />
        </mxCell>
        <mxCell id="03qx-U8Q-51VPEgpznjb-11" value="Boot&lt;span style=&quot;background-color: initial; font-size: 16px;&quot;&gt;strap 0&lt;/span&gt;" style="swimlane;fontStyle=0;childLayout=stackLayout;horizontal=1;startSize=26;fillColor=none;horizontalStack=0;resizeParent=1;resizeParentMax=0;resizeLast=0;collapsible=1;marginBottom=0;whiteSpace=wrap;html=1;fontSize=16;" parent="1" vertex="1">
          <mxGeometry x="20" y="360" width="140" height="130" as="geometry" />
        </mxCell>
        <mxCell id="03qx-U8Q-51VPEgpznjb-12" value="+ Instance 0" style="text;strokeColor=none;fillColor=none;align=left;verticalAlign=top;spacingLeft=4;spacingRight=4;overflow=hidden;rotatable=0;points=[[0,0.5],[1,0.5]];portConstraint=eastwest;whiteSpace=wrap;html=1;fontSize=16;" parent="03qx-U8Q-51VPEgpznjb-11" vertex="1">
          <mxGeometry y="26" width="140" height="26" as="geometry" />
        </mxCell>
        <mxCell id="03qx-U8Q-51VPEgpznjb-13" value="+ Instance 1" style="text;strokeColor=none;fillColor=none;align=left;verticalAlign=top;spacingLeft=4;spacingRight=4;overflow=hidden;rotatable=0;points=[[0,0.5],[1,0.5]];portConstraint=eastwest;whiteSpace=wrap;html=1;fontSize=16;" parent="03qx-U8Q-51VPEgpznjb-11" vertex="1">
          <mxGeometry y="52" width="140" height="26" as="geometry" />
        </mxCell>
        <mxCell id="03qx-U8Q-51VPEgpznjb-14" value="+ Instance 1" style="text;strokeColor=none;fillColor=none;align=left;verticalAlign=top;spacingLeft=4;spacingRight=4;overflow=hidden;rotatable=0;points=[[0,0.5],[1,0.5]];portConstraint=eastwest;whiteSpace=wrap;html=1;fontSize=16;" parent="03qx-U8Q-51VPEgpznjb-11" vertex="1">
          <mxGeometry y="78" width="140" height="26" as="geometry" />
        </mxCell>
        <mxCell id="03qx-U8Q-51VPEgpznjb-17" value="+ Instance 5" style="text;strokeColor=none;fillColor=none;align=left;verticalAlign=top;spacingLeft=4;spacingRight=4;overflow=hidden;rotatable=0;points=[[0,0.5],[1,0.5]];portConstraint=eastwest;whiteSpace=wrap;html=1;fontSize=16;" parent="03qx-U8Q-51VPEgpznjb-11" vertex="1">
          <mxGeometry y="104" width="140" height="26" as="geometry" />
        </mxCell>
        <mxCell id="03qx-U8Q-51VPEgpznjb-119" style="edgeStyle=orthogonalEdgeStyle;rounded=0;orthogonalLoop=1;jettySize=auto;html=1;" parent="1" source="03qx-U8Q-51VPEgpznjb-18" target="03qx-U8Q-51VPEgpznjb-88" edge="1">
          <mxGeometry relative="1" as="geometry" />
        </mxCell>
        <mxCell id="03qx-U8Q-51VPEgpznjb-18" value="Bootstrap 1" style="swimlane;fontStyle=0;childLayout=stackLayout;horizontal=1;startSize=26;fillColor=none;horizontalStack=0;resizeParent=1;resizeParentMax=0;resizeLast=0;collapsible=1;marginBottom=0;whiteSpace=wrap;html=1;fontSize=16;" parent="1" vertex="1">
          <mxGeometry x="355" y="360" width="140" height="130" as="geometry" />
        </mxCell>
        <mxCell id="03qx-U8Q-51VPEgpznjb-19" value="+ Instance 0" style="text;strokeColor=none;fillColor=none;align=left;verticalAlign=top;spacingLeft=4;spacingRight=4;overflow=hidden;rotatable=0;points=[[0,0.5],[1,0.5]];portConstraint=eastwest;whiteSpace=wrap;html=1;fontSize=16;" parent="03qx-U8Q-51VPEgpznjb-18" vertex="1">
          <mxGeometry y="26" width="140" height="26" as="geometry" />
        </mxCell>
        <mxCell id="03qx-U8Q-51VPEgpznjb-20" value="+ Instance 1" style="text;strokeColor=none;fillColor=none;align=left;verticalAlign=top;spacingLeft=4;spacingRight=4;overflow=hidden;rotatable=0;points=[[0,0.5],[1,0.5]];portConstraint=eastwest;whiteSpace=wrap;html=1;fontSize=16;" parent="03qx-U8Q-51VPEgpznjb-18" vertex="1">
          <mxGeometry y="52" width="140" height="26" as="geometry" />
        </mxCell>
        <mxCell id="03qx-U8Q-51VPEgpznjb-21" value="+ Instance 2" style="text;strokeColor=none;fillColor=none;align=left;verticalAlign=top;spacingLeft=4;spacingRight=4;overflow=hidden;rotatable=0;points=[[0,0.5],[1,0.5]];portConstraint=eastwest;whiteSpace=wrap;html=1;fontSize=16;" parent="03qx-U8Q-51VPEgpznjb-18" vertex="1">
          <mxGeometry y="78" width="140" height="26" as="geometry" />
        </mxCell>
        <mxCell id="03qx-U8Q-51VPEgpznjb-22" value="+ Instance 2" style="text;strokeColor=none;fillColor=none;align=left;verticalAlign=top;spacingLeft=4;spacingRight=4;overflow=hidden;rotatable=0;points=[[0,0.5],[1,0.5]];portConstraint=eastwest;whiteSpace=wrap;html=1;fontSize=16;" parent="03qx-U8Q-51VPEgpznjb-18" vertex="1">
          <mxGeometry y="104" width="140" height="26" as="geometry" />
        </mxCell>
        <mxCell id="03qx-U8Q-51VPEgpznjb-118" style="edgeStyle=orthogonalEdgeStyle;rounded=0;orthogonalLoop=1;jettySize=auto;html=1;" parent="1" source="03qx-U8Q-51VPEgpznjb-25" target="03qx-U8Q-51VPEgpznjb-103" edge="1">
          <mxGeometry relative="1" as="geometry" />
        </mxCell>
        <mxCell id="03qx-U8Q-51VPEgpznjb-25" value="Bootstrap N" style="swimlane;fontStyle=0;childLayout=stackLayout;horizontal=1;startSize=26;fillColor=none;horizontalStack=0;resizeParent=1;resizeParentMax=0;resizeLast=0;collapsible=1;marginBottom=0;whiteSpace=wrap;html=1;fontSize=16;" parent="1" vertex="1">
          <mxGeometry x="691.5" y="360" width="140" height="130" as="geometry" />
        </mxCell>
        <mxCell id="03qx-U8Q-51VPEgpznjb-27" value="+ Instance 3" style="text;strokeColor=none;fillColor=none;align=left;verticalAlign=top;spacingLeft=4;spacingRight=4;overflow=hidden;rotatable=0;points=[[0,0.5],[1,0.5]];portConstraint=eastwest;whiteSpace=wrap;html=1;fontSize=16;" parent="03qx-U8Q-51VPEgpznjb-25" vertex="1">
          <mxGeometry y="26" width="140" height="26" as="geometry" />
        </mxCell>
        <mxCell id="03qx-U8Q-51VPEgpznjb-29" value="+ Instance 3" style="text;strokeColor=none;fillColor=none;align=left;verticalAlign=top;spacingLeft=4;spacingRight=4;overflow=hidden;rotatable=0;points=[[0,0.5],[1,0.5]];portConstraint=eastwest;whiteSpace=wrap;html=1;fontSize=16;" parent="03qx-U8Q-51VPEgpznjb-25" vertex="1">
          <mxGeometry y="52" width="140" height="26" as="geometry" />
        </mxCell>
        <mxCell id="03qx-U8Q-51VPEgpznjb-30" value="+ Instance 4" style="text;strokeColor=none;fillColor=none;align=left;verticalAlign=top;spacingLeft=4;spacingRight=4;overflow=hidden;rotatable=0;points=[[0,0.5],[1,0.5]];portConstraint=eastwest;whiteSpace=wrap;html=1;fontSize=16;" parent="03qx-U8Q-51VPEgpznjb-25" vertex="1">
          <mxGeometry y="78" width="140" height="26" as="geometry" />
        </mxCell>
        <mxCell id="03qx-U8Q-51VPEgpznjb-31" value="+ Instance 4" style="text;strokeColor=none;fillColor=none;align=left;verticalAlign=top;spacingLeft=4;spacingRight=4;overflow=hidden;rotatable=0;points=[[0,0.5],[1,0.5]];portConstraint=eastwest;whiteSpace=wrap;html=1;fontSize=16;" parent="03qx-U8Q-51VPEgpznjb-25" vertex="1">
          <mxGeometry y="104" width="140" height="26" as="geometry" />
        </mxCell>
        <mxCell id="03qx-U8Q-51VPEgpznjb-140" style="edgeStyle=orthogonalEdgeStyle;rounded=0;orthogonalLoop=1;jettySize=auto;html=1;" parent="1" source="03qx-U8Q-51VPEgpznjb-63" target="03qx-U8Q-51VPEgpznjb-139" edge="1">
          <mxGeometry relative="1" as="geometry" />
        </mxCell>
        <mxCell id="03qx-U8Q-51VPEgpznjb-63" value="Decision Tree 0" style="swimlane;fontSize=16;" parent="1" vertex="1">
          <mxGeometry x="-50" y="580" width="280" height="260" as="geometry" />
        </mxCell>
        <mxCell id="03qx-U8Q-51VPEgpznjb-69" value="" style="strokeWidth=2;html=1;shape=mxgraph.flowchart.start_2;whiteSpace=wrap;" parent="03qx-U8Q-51VPEgpznjb-63" vertex="1">
          <mxGeometry x="81" y="100" width="20" height="20" as="geometry" />
        </mxCell>
        <mxCell id="03qx-U8Q-51VPEgpznjb-70" value="" style="strokeWidth=2;html=1;shape=mxgraph.flowchart.start_2;whiteSpace=wrap;" parent="03qx-U8Q-51VPEgpznjb-63" vertex="1">
          <mxGeometry x="130" y="40" width="20" height="20" as="geometry" />
        </mxCell>
        <mxCell id="03qx-U8Q-51VPEgpznjb-72" value="" style="strokeWidth=2;html=1;shape=mxgraph.flowchart.start_2;whiteSpace=wrap;" parent="03qx-U8Q-51VPEgpznjb-63" vertex="1">
          <mxGeometry x="180" y="100" width="20" height="20" as="geometry" />
        </mxCell>
        <mxCell id="03qx-U8Q-51VPEgpznjb-75" value="" style="endArrow=none;html=1;rounded=0;" parent="03qx-U8Q-51VPEgpznjb-63" source="03qx-U8Q-51VPEgpznjb-70" target="03qx-U8Q-51VPEgpznjb-69" edge="1">
          <mxGeometry relative="1" as="geometry">
            <mxPoint x="20" y="400" as="sourcePoint" />
            <mxPoint x="180" y="400" as="targetPoint" />
          </mxGeometry>
        </mxCell>
        <mxCell id="03qx-U8Q-51VPEgpznjb-79" value="" style="endArrow=none;html=1;rounded=0;" parent="03qx-U8Q-51VPEgpznjb-63" source="03qx-U8Q-51VPEgpznjb-70" target="03qx-U8Q-51VPEgpznjb-72" edge="1">
          <mxGeometry relative="1" as="geometry">
            <mxPoint x="152" y="80" as="sourcePoint" />
            <mxPoint x="119" y="120" as="targetPoint" />
          </mxGeometry>
        </mxCell>
        <mxCell id="03qx-U8Q-51VPEgpznjb-73" value="" style="strokeWidth=2;html=1;shape=mxgraph.flowchart.start_2;whiteSpace=wrap;" parent="1" vertex="1">
          <mxGeometry x="80" y="739" width="20" height="20" as="geometry" />
        </mxCell>
        <mxCell id="03qx-U8Q-51VPEgpznjb-74" value="" style="strokeWidth=2;html=1;shape=mxgraph.flowchart.start_2;whiteSpace=wrap;" parent="1" vertex="1">
          <mxGeometry x="179" y="739" width="20" height="20" as="geometry" />
        </mxCell>
        <mxCell id="03qx-U8Q-51VPEgpznjb-80" value="" style="endArrow=none;html=1;rounded=0;" parent="1" source="03qx-U8Q-51VPEgpznjb-72" target="03qx-U8Q-51VPEgpznjb-73" edge="1">
          <mxGeometry relative="1" as="geometry">
            <mxPoint x="112" y="670" as="sourcePoint" />
            <mxPoint x="79" y="710" as="targetPoint" />
          </mxGeometry>
        </mxCell>
        <mxCell id="03qx-U8Q-51VPEgpznjb-81" value="" style="endArrow=none;html=1;rounded=0;entryX=0.145;entryY=0.145;entryDx=0;entryDy=0;entryPerimeter=0;" parent="1" source="03qx-U8Q-51VPEgpznjb-72" target="03qx-U8Q-51VPEgpznjb-74" edge="1">
          <mxGeometry relative="1" as="geometry">
            <mxPoint x="122" y="680" as="sourcePoint" />
            <mxPoint x="89" y="720" as="targetPoint" />
          </mxGeometry>
        </mxCell>
        <mxCell id="03qx-U8Q-51VPEgpznjb-82" value="" style="strokeWidth=2;html=1;shape=mxgraph.flowchart.start_2;whiteSpace=wrap;" parent="1" vertex="1">
          <mxGeometry x="80.5" y="739" width="20" height="20" as="geometry" />
        </mxCell>
        <mxCell id="03qx-U8Q-51VPEgpznjb-83" value="" style="strokeWidth=2;html=1;shape=mxgraph.flowchart.start_2;whiteSpace=wrap;" parent="1" vertex="1">
          <mxGeometry x="30.5" y="798" width="20" height="20" as="geometry" />
        </mxCell>
        <mxCell id="03qx-U8Q-51VPEgpznjb-84" value="" style="strokeWidth=2;html=1;shape=mxgraph.flowchart.start_2;whiteSpace=wrap;" parent="1" vertex="1">
          <mxGeometry x="129.5" y="798" width="20" height="20" as="geometry" />
        </mxCell>
        <mxCell id="03qx-U8Q-51VPEgpznjb-85" value="" style="endArrow=none;html=1;rounded=0;" parent="1" source="03qx-U8Q-51VPEgpznjb-82" target="03qx-U8Q-51VPEgpznjb-83" edge="1">
          <mxGeometry relative="1" as="geometry">
            <mxPoint x="62.5" y="729" as="sourcePoint" />
            <mxPoint x="29.5" y="769" as="targetPoint" />
          </mxGeometry>
        </mxCell>
        <mxCell id="03qx-U8Q-51VPEgpznjb-86" value="" style="endArrow=none;html=1;rounded=0;entryX=0.145;entryY=0.145;entryDx=0;entryDy=0;entryPerimeter=0;" parent="1" source="03qx-U8Q-51VPEgpznjb-82" target="03qx-U8Q-51VPEgpznjb-84" edge="1">
          <mxGeometry relative="1" as="geometry">
            <mxPoint x="72.5" y="739" as="sourcePoint" />
            <mxPoint x="39.5" y="779" as="targetPoint" />
          </mxGeometry>
        </mxCell>
        <mxCell id="03qx-U8Q-51VPEgpznjb-147" style="edgeStyle=orthogonalEdgeStyle;rounded=0;orthogonalLoop=1;jettySize=auto;html=1;" parent="1" source="03qx-U8Q-51VPEgpznjb-88" target="03qx-U8Q-51VPEgpznjb-145" edge="1">
          <mxGeometry relative="1" as="geometry" />
        </mxCell>
        <mxCell id="03qx-U8Q-51VPEgpznjb-88" value="Decision Tree 1" style="swimlane;fontSize=16;" parent="1" vertex="1">
          <mxGeometry x="285" y="580" width="280" height="260" as="geometry" />
        </mxCell>
        <mxCell id="03qx-U8Q-51VPEgpznjb-89" value="" style="strokeWidth=2;html=1;shape=mxgraph.flowchart.start_2;whiteSpace=wrap;" parent="03qx-U8Q-51VPEgpznjb-88" vertex="1">
          <mxGeometry x="81" y="100" width="20" height="20" as="geometry" />
        </mxCell>
        <mxCell id="03qx-U8Q-51VPEgpznjb-90" value="" style="strokeWidth=2;html=1;shape=mxgraph.flowchart.start_2;whiteSpace=wrap;" parent="03qx-U8Q-51VPEgpznjb-88" vertex="1">
          <mxGeometry x="130" y="40" width="20" height="20" as="geometry" />
        </mxCell>
        <mxCell id="03qx-U8Q-51VPEgpznjb-91" value="" style="strokeWidth=2;html=1;shape=mxgraph.flowchart.start_2;whiteSpace=wrap;" parent="03qx-U8Q-51VPEgpznjb-88" vertex="1">
          <mxGeometry x="180" y="100" width="20" height="20" as="geometry" />
        </mxCell>
        <mxCell id="03qx-U8Q-51VPEgpznjb-92" value="" style="endArrow=none;html=1;rounded=0;" parent="03qx-U8Q-51VPEgpznjb-88" source="03qx-U8Q-51VPEgpznjb-90" target="03qx-U8Q-51VPEgpznjb-89" edge="1">
          <mxGeometry relative="1" as="geometry">
            <mxPoint x="20" y="400" as="sourcePoint" />
            <mxPoint x="180" y="400" as="targetPoint" />
          </mxGeometry>
        </mxCell>
        <mxCell id="03qx-U8Q-51VPEgpznjb-93" value="" style="endArrow=none;html=1;rounded=0;" parent="03qx-U8Q-51VPEgpznjb-88" source="03qx-U8Q-51VPEgpznjb-90" target="03qx-U8Q-51VPEgpznjb-91" edge="1">
          <mxGeometry relative="1" as="geometry">
            <mxPoint x="152" y="80" as="sourcePoint" />
            <mxPoint x="119" y="120" as="targetPoint" />
          </mxGeometry>
        </mxCell>
        <mxCell id="03qx-U8Q-51VPEgpznjb-99" value="" style="strokeWidth=2;html=1;shape=mxgraph.flowchart.start_2;whiteSpace=wrap;" parent="03qx-U8Q-51VPEgpznjb-88" vertex="1">
          <mxGeometry x="32" y="159" width="19" height="20" as="geometry" />
        </mxCell>
        <mxCell id="03qx-U8Q-51VPEgpznjb-100" value="" style="strokeWidth=2;html=1;shape=mxgraph.flowchart.start_2;whiteSpace=wrap;" parent="03qx-U8Q-51VPEgpznjb-88" vertex="1">
          <mxGeometry x="150" y="159" width="19" height="20" as="geometry" />
        </mxCell>
        <mxCell id="03qx-U8Q-51VPEgpznjb-101" value="" style="endArrow=none;html=1;rounded=0;" parent="03qx-U8Q-51VPEgpznjb-88" target="03qx-U8Q-51VPEgpznjb-99" edge="1">
          <mxGeometry relative="1" as="geometry">
            <mxPoint x="83.4406779661017" y="120" as="sourcePoint" />
            <mxPoint x="31" y="130" as="targetPoint" />
          </mxGeometry>
        </mxCell>
        <mxCell id="03qx-U8Q-51VPEgpznjb-96" value="" style="endArrow=none;html=1;rounded=0;" parent="03qx-U8Q-51VPEgpznjb-88" source="03qx-U8Q-51VPEgpznjb-91" target="03qx-U8Q-51VPEgpznjb-100" edge="1">
          <mxGeometry relative="1" as="geometry">
            <mxPoint x="162" y="90" as="sourcePoint" />
            <mxPoint x="148.47457627118592" y="159" as="targetPoint" />
          </mxGeometry>
        </mxCell>
        <mxCell id="03qx-U8Q-51VPEgpznjb-120" value="" style="strokeWidth=2;html=1;shape=mxgraph.flowchart.start_2;whiteSpace=wrap;" parent="03qx-U8Q-51VPEgpznjb-88" vertex="1">
          <mxGeometry x="111" y="159" width="19" height="20" as="geometry" />
        </mxCell>
        <mxCell id="03qx-U8Q-51VPEgpznjb-121" value="" style="endArrow=none;html=1;rounded=0;" parent="03qx-U8Q-51VPEgpznjb-88" source="03qx-U8Q-51VPEgpznjb-89" target="03qx-U8Q-51VPEgpznjb-120" edge="1">
          <mxGeometry relative="1" as="geometry">
            <mxPoint x="195" y="130" as="sourcePoint" />
            <mxPoint x="175" y="169" as="targetPoint" />
          </mxGeometry>
        </mxCell>
        <mxCell id="03qx-U8Q-51VPEgpznjb-95" value="" style="strokeWidth=2;html=1;shape=mxgraph.flowchart.start_2;whiteSpace=wrap;" parent="1" vertex="1">
          <mxGeometry x="514" y="739" width="20" height="20" as="geometry" />
        </mxCell>
        <mxCell id="03qx-U8Q-51VPEgpznjb-97" value="" style="endArrow=none;html=1;rounded=0;entryX=0.145;entryY=0.145;entryDx=0;entryDy=0;entryPerimeter=0;" parent="1" source="03qx-U8Q-51VPEgpznjb-91" target="03qx-U8Q-51VPEgpznjb-95" edge="1">
          <mxGeometry relative="1" as="geometry">
            <mxPoint x="457" y="680" as="sourcePoint" />
            <mxPoint x="424" y="720" as="targetPoint" />
          </mxGeometry>
        </mxCell>
        <mxCell id="03qx-U8Q-51VPEgpznjb-148" style="edgeStyle=orthogonalEdgeStyle;rounded=0;orthogonalLoop=1;jettySize=auto;html=1;" parent="1" source="03qx-U8Q-51VPEgpznjb-103" target="03qx-U8Q-51VPEgpznjb-146" edge="1">
          <mxGeometry relative="1" as="geometry" />
        </mxCell>
        <mxCell id="03qx-U8Q-51VPEgpznjb-103" value="Decision Tree N" style="swimlane;fontSize=16;" parent="1" vertex="1">
          <mxGeometry x="621" y="580" width="280" height="260" as="geometry" />
        </mxCell>
        <mxCell id="03qx-U8Q-51VPEgpznjb-105" value="" style="strokeWidth=2;html=1;shape=mxgraph.flowchart.start_2;whiteSpace=wrap;" parent="03qx-U8Q-51VPEgpznjb-103" vertex="1">
          <mxGeometry x="130" y="40" width="20" height="20" as="geometry" />
        </mxCell>
        <mxCell id="03qx-U8Q-51VPEgpznjb-122" value="" style="strokeWidth=2;html=1;shape=mxgraph.flowchart.start_2;whiteSpace=wrap;" parent="03qx-U8Q-51VPEgpznjb-103" vertex="1">
          <mxGeometry x="81" y="100" width="20" height="20" as="geometry" />
        </mxCell>
        <mxCell id="03qx-U8Q-51VPEgpznjb-123" value="" style="strokeWidth=2;html=1;shape=mxgraph.flowchart.start_2;whiteSpace=wrap;" parent="03qx-U8Q-51VPEgpznjb-103" vertex="1">
          <mxGeometry x="130" y="40" width="20" height="20" as="geometry" />
        </mxCell>
        <mxCell id="03qx-U8Q-51VPEgpznjb-124" value="" style="strokeWidth=2;html=1;shape=mxgraph.flowchart.start_2;whiteSpace=wrap;" parent="03qx-U8Q-51VPEgpznjb-103" vertex="1">
          <mxGeometry x="180" y="100" width="20" height="20" as="geometry" />
        </mxCell>
        <mxCell id="03qx-U8Q-51VPEgpznjb-125" value="" style="endArrow=none;html=1;rounded=0;" parent="03qx-U8Q-51VPEgpznjb-103" source="03qx-U8Q-51VPEgpznjb-123" target="03qx-U8Q-51VPEgpznjb-122" edge="1">
          <mxGeometry relative="1" as="geometry">
            <mxPoint x="20" y="400" as="sourcePoint" />
            <mxPoint x="180" y="400" as="targetPoint" />
          </mxGeometry>
        </mxCell>
        <mxCell id="03qx-U8Q-51VPEgpznjb-126" value="" style="endArrow=none;html=1;rounded=0;" parent="03qx-U8Q-51VPEgpznjb-103" source="03qx-U8Q-51VPEgpznjb-123" target="03qx-U8Q-51VPEgpznjb-124" edge="1">
          <mxGeometry relative="1" as="geometry">
            <mxPoint x="152" y="80" as="sourcePoint" />
            <mxPoint x="119" y="120" as="targetPoint" />
          </mxGeometry>
        </mxCell>
        <mxCell id="03qx-U8Q-51VPEgpznjb-127" value="" style="strokeWidth=2;html=1;shape=mxgraph.flowchart.start_2;whiteSpace=wrap;" parent="03qx-U8Q-51VPEgpznjb-103" vertex="1">
          <mxGeometry x="32" y="159" width="19" height="20" as="geometry" />
        </mxCell>
        <mxCell id="03qx-U8Q-51VPEgpznjb-128" value="" style="strokeWidth=2;html=1;shape=mxgraph.flowchart.start_2;whiteSpace=wrap;" parent="03qx-U8Q-51VPEgpznjb-103" vertex="1">
          <mxGeometry x="150" y="159" width="19" height="20" as="geometry" />
        </mxCell>
        <mxCell id="03qx-U8Q-51VPEgpznjb-129" value="" style="endArrow=none;html=1;rounded=0;" parent="03qx-U8Q-51VPEgpznjb-103" target="03qx-U8Q-51VPEgpznjb-127" edge="1">
          <mxGeometry relative="1" as="geometry">
            <mxPoint x="83.4406779661017" y="120" as="sourcePoint" />
            <mxPoint x="31" y="130" as="targetPoint" />
          </mxGeometry>
        </mxCell>
        <mxCell id="03qx-U8Q-51VPEgpznjb-130" value="" style="endArrow=none;html=1;rounded=0;" parent="03qx-U8Q-51VPEgpznjb-103" source="03qx-U8Q-51VPEgpznjb-124" target="03qx-U8Q-51VPEgpznjb-128" edge="1">
          <mxGeometry relative="1" as="geometry">
            <mxPoint x="162" y="90" as="sourcePoint" />
            <mxPoint x="148.47457627118592" y="159" as="targetPoint" />
          </mxGeometry>
        </mxCell>
        <mxCell id="03qx-U8Q-51VPEgpznjb-131" value="" style="strokeWidth=2;html=1;shape=mxgraph.flowchart.start_2;whiteSpace=wrap;" parent="03qx-U8Q-51VPEgpznjb-103" vertex="1">
          <mxGeometry x="111" y="159" width="19" height="20" as="geometry" />
        </mxCell>
        <mxCell id="03qx-U8Q-51VPEgpznjb-132" value="" style="endArrow=none;html=1;rounded=0;" parent="03qx-U8Q-51VPEgpznjb-103" source="03qx-U8Q-51VPEgpznjb-122" target="03qx-U8Q-51VPEgpznjb-131" edge="1">
          <mxGeometry relative="1" as="geometry">
            <mxPoint x="195" y="130" as="sourcePoint" />
            <mxPoint x="175" y="169" as="targetPoint" />
          </mxGeometry>
        </mxCell>
        <mxCell id="03qx-U8Q-51VPEgpznjb-133" value="" style="strokeWidth=2;html=1;shape=mxgraph.flowchart.start_2;whiteSpace=wrap;" parent="03qx-U8Q-51VPEgpznjb-103" vertex="1">
          <mxGeometry x="229" y="159" width="20" height="20" as="geometry" />
        </mxCell>
        <mxCell id="03qx-U8Q-51VPEgpznjb-134" value="" style="endArrow=none;html=1;rounded=0;entryX=0.145;entryY=0.145;entryDx=0;entryDy=0;entryPerimeter=0;" parent="03qx-U8Q-51VPEgpznjb-103" source="03qx-U8Q-51VPEgpznjb-124" target="03qx-U8Q-51VPEgpznjb-133" edge="1">
          <mxGeometry relative="1" as="geometry">
            <mxPoint x="172" y="100" as="sourcePoint" />
            <mxPoint x="139" y="140" as="targetPoint" />
          </mxGeometry>
        </mxCell>
        <mxCell id="03qx-U8Q-51VPEgpznjb-135" value="" style="strokeWidth=2;html=1;shape=mxgraph.flowchart.start_2;whiteSpace=wrap;" parent="03qx-U8Q-51VPEgpznjb-103" vertex="1">
          <mxGeometry x="100" y="218" width="20" height="20" as="geometry" />
        </mxCell>
        <mxCell id="03qx-U8Q-51VPEgpznjb-136" value="" style="strokeWidth=2;html=1;shape=mxgraph.flowchart.start_2;whiteSpace=wrap;" parent="03qx-U8Q-51VPEgpznjb-103" vertex="1">
          <mxGeometry x="199" y="218" width="20" height="20" as="geometry" />
        </mxCell>
        <mxCell id="03qx-U8Q-51VPEgpznjb-137" value="" style="endArrow=none;html=1;rounded=0;" parent="03qx-U8Q-51VPEgpznjb-103" target="03qx-U8Q-51VPEgpznjb-135" edge="1">
          <mxGeometry relative="1" as="geometry">
            <mxPoint x="151.5" y="179" as="sourcePoint" />
            <mxPoint x="99" y="189" as="targetPoint" />
          </mxGeometry>
        </mxCell>
        <mxCell id="03qx-U8Q-51VPEgpznjb-138" value="" style="endArrow=none;html=1;rounded=0;entryX=0.145;entryY=0.145;entryDx=0;entryDy=0;entryPerimeter=0;" parent="03qx-U8Q-51VPEgpznjb-103" target="03qx-U8Q-51VPEgpznjb-136" edge="1">
          <mxGeometry relative="1" as="geometry">
            <mxPoint x="168.5" y="179" as="sourcePoint" />
            <mxPoint x="109" y="199" as="targetPoint" />
          </mxGeometry>
        </mxCell>
        <mxCell id="03qx-U8Q-51VPEgpznjb-161" style="edgeStyle=orthogonalEdgeStyle;rounded=0;orthogonalLoop=1;jettySize=auto;html=1;exitX=0.5;exitY=1;exitDx=0;exitDy=0;" parent="1" source="03qx-U8Q-51VPEgpznjb-139" target="03qx-U8Q-51VPEgpznjb-149" edge="1">
          <mxGeometry relative="1" as="geometry" />
        </mxCell>
        <mxCell id="03qx-U8Q-51VPEgpznjb-139" value="Class 0" style="whiteSpace=wrap;html=1;align=center;fontSize=19;" parent="1" vertex="1">
          <mxGeometry x="40" y="890" width="100" height="40" as="geometry" />
        </mxCell>
        <mxCell id="03qx-U8Q-51VPEgpznjb-153" style="edgeStyle=orthogonalEdgeStyle;rounded=0;orthogonalLoop=1;jettySize=auto;html=1;" parent="1" source="03qx-U8Q-51VPEgpznjb-145" target="03qx-U8Q-51VPEgpznjb-149" edge="1">
          <mxGeometry relative="1" as="geometry" />
        </mxCell>
        <mxCell id="03qx-U8Q-51VPEgpznjb-145" value="Class 1" style="whiteSpace=wrap;html=1;align=center;fontSize=19;" parent="1" vertex="1">
          <mxGeometry x="375" y="890" width="100" height="40" as="geometry" />
        </mxCell>
        <mxCell id="03qx-U8Q-51VPEgpznjb-162" style="edgeStyle=orthogonalEdgeStyle;rounded=0;orthogonalLoop=1;jettySize=auto;html=1;exitX=0.5;exitY=1;exitDx=0;exitDy=0;" parent="1" source="03qx-U8Q-51VPEgpznjb-146" target="03qx-U8Q-51VPEgpznjb-149" edge="1">
          <mxGeometry relative="1" as="geometry" />
        </mxCell>
        <mxCell id="03qx-U8Q-51VPEgpznjb-146" value="Class 0" style="whiteSpace=wrap;html=1;align=center;fontSize=19;" parent="1" vertex="1">
          <mxGeometry x="711" y="890" width="100" height="40" as="geometry" />
        </mxCell>
        <mxCell id="03qx-U8Q-51VPEgpznjb-152" style="edgeStyle=orthogonalEdgeStyle;rounded=0;orthogonalLoop=1;jettySize=auto;html=1;" parent="1" source="03qx-U8Q-51VPEgpznjb-149" target="03qx-U8Q-51VPEgpznjb-151" edge="1">
          <mxGeometry relative="1" as="geometry" />
        </mxCell>
        <mxCell id="03qx-U8Q-51VPEgpznjb-149" value="Majority Voting: Class 0" style="whiteSpace=wrap;html=1;align=center;fontSize=19;" parent="1" vertex="1">
          <mxGeometry x="253" y="1040" width="345" height="40" as="geometry" />
        </mxCell>
        <mxCell id="03qx-U8Q-51VPEgpznjb-151" value="Class 0" style="whiteSpace=wrap;html=1;align=center;fontSize=19;fontStyle=1" parent="1" vertex="1">
          <mxGeometry x="375.5" y="1140" width="100" height="40" as="geometry" />
        </mxCell>
        <mxCell id="03qx-U8Q-51VPEgpznjb-163" value="..." style="text;html=1;align=center;verticalAlign=middle;whiteSpace=wrap;rounded=0;fontSize=43;fontStyle=1" parent="1" vertex="1">
          <mxGeometry x="561" y="410" width="60" height="30" as="geometry" />
        </mxCell>
        <mxCell id="03qx-U8Q-51VPEgpznjb-164" value="..." style="text;html=1;align=center;verticalAlign=middle;whiteSpace=wrap;rounded=0;fontSize=43;fontStyle=1" parent="1" vertex="1">
          <mxGeometry x="565" y="670" width="60" height="30" as="geometry" />
        </mxCell>
        <mxCell id="03qx-U8Q-51VPEgpznjb-165" value="..." style="text;html=1;align=center;verticalAlign=middle;whiteSpace=wrap;rounded=0;fontSize=43;fontStyle=1" parent="1" vertex="1">
          <mxGeometry x="565" y="890" width="60" height="30" as="geometry" />
        </mxCell>
      </root>
    </mxGraphModel>
  </diagram>
  <diagram id="vAV0bUJSPiTisQ7odes-" name="Page-2">
    <mxGraphModel dx="542" dy="308" grid="1" gridSize="10" guides="1" tooltips="1" connect="1" arrows="1" fold="1" page="1" pageScale="1" pageWidth="850" pageHeight="1100" math="0" shadow="0">
      <root>
        <mxCell id="0" />
        <mxCell id="1" parent="0" />
        <mxCell id="2-iCVERlfhQHM4UxpR3L-1" value="" style="strokeWidth=2;html=1;shape=mxgraph.flowchart.start_2;whiteSpace=wrap;" parent="1" vertex="1">
          <mxGeometry x="414" y="451" width="20" height="20" as="geometry" />
        </mxCell>
        <mxCell id="2-iCVERlfhQHM4UxpR3L-2" value="" style="strokeWidth=2;html=1;shape=mxgraph.flowchart.start_2;whiteSpace=wrap;" parent="1" vertex="1">
          <mxGeometry x="365" y="511" width="20" height="20" as="geometry" />
        </mxCell>
        <mxCell id="2-iCVERlfhQHM4UxpR3L-3" value="" style="strokeWidth=2;html=1;shape=mxgraph.flowchart.start_2;whiteSpace=wrap;" parent="1" vertex="1">
          <mxGeometry x="414" y="451" width="20" height="20" as="geometry" />
        </mxCell>
        <mxCell id="2-iCVERlfhQHM4UxpR3L-4" value="" style="strokeWidth=2;html=1;shape=mxgraph.flowchart.start_2;whiteSpace=wrap;" parent="1" vertex="1">
          <mxGeometry x="464" y="511" width="20" height="20" as="geometry" />
        </mxCell>
        <mxCell id="2-iCVERlfhQHM4UxpR3L-5" value="" style="endArrow=none;html=1;rounded=0;" parent="1" source="2-iCVERlfhQHM4UxpR3L-3" target="2-iCVERlfhQHM4UxpR3L-2" edge="1">
          <mxGeometry relative="1" as="geometry">
            <mxPoint x="304" y="811" as="sourcePoint" />
            <mxPoint x="464" y="811" as="targetPoint" />
          </mxGeometry>
        </mxCell>
        <mxCell id="2-iCVERlfhQHM4UxpR3L-6" value="" style="endArrow=none;html=1;rounded=0;" parent="1" source="2-iCVERlfhQHM4UxpR3L-3" target="2-iCVERlfhQHM4UxpR3L-4" edge="1">
          <mxGeometry relative="1" as="geometry">
            <mxPoint x="436" y="491" as="sourcePoint" />
            <mxPoint x="403" y="531" as="targetPoint" />
          </mxGeometry>
        </mxCell>
        <mxCell id="2-iCVERlfhQHM4UxpR3L-7" value="" style="strokeWidth=2;html=1;shape=mxgraph.flowchart.start_2;whiteSpace=wrap;" parent="1" vertex="1">
          <mxGeometry x="316" y="570" width="19" height="20" as="geometry" />
        </mxCell>
        <mxCell id="2-iCVERlfhQHM4UxpR3L-8" value="" style="strokeWidth=2;html=1;shape=mxgraph.flowchart.start_2;whiteSpace=wrap;" parent="1" vertex="1">
          <mxGeometry x="434" y="570" width="19" height="20" as="geometry" />
        </mxCell>
        <mxCell id="2-iCVERlfhQHM4UxpR3L-9" value="" style="endArrow=none;html=1;rounded=0;" parent="1" target="2-iCVERlfhQHM4UxpR3L-7" edge="1">
          <mxGeometry relative="1" as="geometry">
            <mxPoint x="367.4406779661017" y="531" as="sourcePoint" />
            <mxPoint x="315" y="541" as="targetPoint" />
          </mxGeometry>
        </mxCell>
        <mxCell id="2-iCVERlfhQHM4UxpR3L-10" value="" style="endArrow=none;html=1;rounded=0;" parent="1" source="2-iCVERlfhQHM4UxpR3L-4" target="2-iCVERlfhQHM4UxpR3L-8" edge="1">
          <mxGeometry relative="1" as="geometry">
            <mxPoint x="446" y="501" as="sourcePoint" />
            <mxPoint x="432.4745762711859" y="570" as="targetPoint" />
          </mxGeometry>
        </mxCell>
        <mxCell id="2-iCVERlfhQHM4UxpR3L-11" value="" style="strokeWidth=2;html=1;shape=mxgraph.flowchart.start_2;whiteSpace=wrap;" parent="1" vertex="1">
          <mxGeometry x="395" y="570" width="19" height="20" as="geometry" />
        </mxCell>
        <mxCell id="2-iCVERlfhQHM4UxpR3L-12" value="" style="endArrow=none;html=1;rounded=0;" parent="1" source="2-iCVERlfhQHM4UxpR3L-2" target="2-iCVERlfhQHM4UxpR3L-11" edge="1">
          <mxGeometry relative="1" as="geometry">
            <mxPoint x="479" y="541" as="sourcePoint" />
            <mxPoint x="459" y="580" as="targetPoint" />
          </mxGeometry>
        </mxCell>
        <mxCell id="2-iCVERlfhQHM4UxpR3L-13" value="" style="strokeWidth=2;html=1;shape=mxgraph.flowchart.start_2;whiteSpace=wrap;" parent="1" vertex="1">
          <mxGeometry x="513" y="570" width="20" height="20" as="geometry" />
        </mxCell>
        <mxCell id="2-iCVERlfhQHM4UxpR3L-14" value="" style="endArrow=none;html=1;rounded=0;entryX=0.145;entryY=0.145;entryDx=0;entryDy=0;entryPerimeter=0;" parent="1" source="2-iCVERlfhQHM4UxpR3L-4" target="2-iCVERlfhQHM4UxpR3L-13" edge="1">
          <mxGeometry relative="1" as="geometry">
            <mxPoint x="456" y="511" as="sourcePoint" />
            <mxPoint x="423" y="551" as="targetPoint" />
          </mxGeometry>
        </mxCell>
        <mxCell id="2-iCVERlfhQHM4UxpR3L-15" value="" style="strokeWidth=2;html=1;shape=mxgraph.flowchart.start_2;whiteSpace=wrap;" parent="1" vertex="1">
          <mxGeometry x="384" y="629" width="20" height="20" as="geometry" />
        </mxCell>
        <mxCell id="2-iCVERlfhQHM4UxpR3L-16" value="" style="strokeWidth=2;html=1;shape=mxgraph.flowchart.start_2;whiteSpace=wrap;" parent="1" vertex="1">
          <mxGeometry x="483" y="629" width="20" height="20" as="geometry" />
        </mxCell>
        <mxCell id="2-iCVERlfhQHM4UxpR3L-17" value="" style="endArrow=none;html=1;rounded=0;" parent="1" target="2-iCVERlfhQHM4UxpR3L-15" edge="1">
          <mxGeometry relative="1" as="geometry">
            <mxPoint x="435.5" y="590" as="sourcePoint" />
            <mxPoint x="383" y="600" as="targetPoint" />
          </mxGeometry>
        </mxCell>
        <mxCell id="2-iCVERlfhQHM4UxpR3L-18" value="" style="endArrow=none;html=1;rounded=0;entryX=0.145;entryY=0.145;entryDx=0;entryDy=0;entryPerimeter=0;" parent="1" target="2-iCVERlfhQHM4UxpR3L-16" edge="1">
          <mxGeometry relative="1" as="geometry">
            <mxPoint x="452.5" y="590" as="sourcePoint" />
            <mxPoint x="393" y="610" as="targetPoint" />
          </mxGeometry>
        </mxCell>
        <mxCell id="2-iCVERlfhQHM4UxpR3L-20" style="edgeStyle=orthogonalEdgeStyle;rounded=0;orthogonalLoop=1;jettySize=auto;html=1;" parent="1" source="2-iCVERlfhQHM4UxpR3L-19" target="2-iCVERlfhQHM4UxpR3L-3" edge="1">
          <mxGeometry relative="1" as="geometry">
            <Array as="points">
              <mxPoint x="530" y="461" />
              <mxPoint x="530" y="461" />
            </Array>
          </mxGeometry>
        </mxCell>
        <mxCell id="2-iCVERlfhQHM4UxpR3L-19" value="Root Node" style="text;html=1;align=center;verticalAlign=middle;whiteSpace=wrap;rounded=0;" parent="1" vertex="1">
          <mxGeometry x="560" y="446" width="60" height="30" as="geometry" />
        </mxCell>
        <mxCell id="2-iCVERlfhQHM4UxpR3L-22" style="edgeStyle=orthogonalEdgeStyle;rounded=0;orthogonalLoop=1;jettySize=auto;html=1;" parent="1" source="2-iCVERlfhQHM4UxpR3L-21" target="2-iCVERlfhQHM4UxpR3L-4" edge="1">
          <mxGeometry relative="1" as="geometry" />
        </mxCell>
        <mxCell id="2-iCVERlfhQHM4UxpR3L-21" value="Decision Node" style="text;html=1;align=left;verticalAlign=middle;whiteSpace=wrap;rounded=0;" parent="1" vertex="1">
          <mxGeometry x="560" y="506" width="90" height="30" as="geometry" />
        </mxCell>
        <mxCell id="2-iCVERlfhQHM4UxpR3L-24" style="edgeStyle=orthogonalEdgeStyle;rounded=0;orthogonalLoop=1;jettySize=auto;html=1;" parent="1" source="2-iCVERlfhQHM4UxpR3L-23" target="2-iCVERlfhQHM4UxpR3L-16" edge="1">
          <mxGeometry relative="1" as="geometry" />
        </mxCell>
        <mxCell id="2-iCVERlfhQHM4UxpR3L-23" value="Leaf Node" style="text;html=1;align=center;verticalAlign=middle;whiteSpace=wrap;rounded=0;" parent="1" vertex="1">
          <mxGeometry x="560" y="623.5" width="60" height="31" as="geometry" />
        </mxCell>
        <mxCell id="2-iCVERlfhQHM4UxpR3L-26" style="edgeStyle=orthogonalEdgeStyle;rounded=0;orthogonalLoop=1;jettySize=auto;html=1;" parent="1" source="2-iCVERlfhQHM4UxpR3L-25" edge="1">
          <mxGeometry relative="1" as="geometry">
            <mxPoint x="500" y="555" as="targetPoint" />
          </mxGeometry>
        </mxCell>
        <mxCell id="2-iCVERlfhQHM4UxpR3L-25" value="Edge" style="text;html=1;align=left;verticalAlign=middle;whiteSpace=wrap;rounded=0;" parent="1" vertex="1">
          <mxGeometry x="560" y="540" width="60" height="30" as="geometry" />
        </mxCell>
      </root>
    </mxGraphModel>
  </diagram>
  <diagram id="bclDjGXaN31NcaQwI_rY" name="Page-3">
    <mxGraphModel dx="1852" dy="569" grid="1" gridSize="10" guides="1" tooltips="1" connect="1" arrows="1" fold="1" page="1" pageScale="1" pageWidth="850" pageHeight="1100" math="0" shadow="0">
      <root>
        <mxCell id="0" />
        <mxCell id="1" parent="0" />
        <mxCell id="4MjjVw8BJZL2X1GjUo3T-14" style="edgeStyle=orthogonalEdgeStyle;rounded=0;orthogonalLoop=1;jettySize=auto;html=1;fontSize=25;" parent="1" source="4MjjVw8BJZL2X1GjUo3T-1" target="4MjjVw8BJZL2X1GjUo3T-2" edge="1">
          <mxGeometry relative="1" as="geometry" />
        </mxCell>
        <mxCell id="4MjjVw8BJZL2X1GjUo3T-15" style="edgeStyle=orthogonalEdgeStyle;rounded=0;orthogonalLoop=1;jettySize=auto;html=1;fontSize=25;" parent="1" source="4MjjVw8BJZL2X1GjUo3T-1" target="4MjjVw8BJZL2X1GjUo3T-3" edge="1">
          <mxGeometry relative="1" as="geometry">
            <Array as="points">
              <mxPoint x="420" y="366" />
              <mxPoint x="-220" y="366" />
            </Array>
          </mxGeometry>
        </mxCell>
        <mxCell id="4MjjVw8BJZL2X1GjUo3T-16" style="edgeStyle=orthogonalEdgeStyle;rounded=0;orthogonalLoop=1;jettySize=auto;html=1;fontSize=25;" parent="1" source="4MjjVw8BJZL2X1GjUo3T-1" target="4MjjVw8BJZL2X1GjUo3T-4" edge="1">
          <mxGeometry relative="1" as="geometry">
            <Array as="points">
              <mxPoint x="420" y="366" />
              <mxPoint x="1110" y="366" />
            </Array>
          </mxGeometry>
        </mxCell>
        <mxCell id="4MjjVw8BJZL2X1GjUo3T-1" value="Training set" style="rounded=1;whiteSpace=wrap;html=1;fontSize=25;" parent="1" vertex="1">
          <mxGeometry x="340" y="230" width="160" height="86" as="geometry" />
        </mxCell>
        <mxCell id="4MjjVw8BJZL2X1GjUo3T-20" style="edgeStyle=orthogonalEdgeStyle;rounded=0;orthogonalLoop=1;jettySize=auto;html=1;fontSize=25;" parent="1" source="4MjjVw8BJZL2X1GjUo3T-2" target="4MjjVw8BJZL2X1GjUo3T-9" edge="1">
          <mxGeometry relative="1" as="geometry">
            <Array as="points">
              <mxPoint x="420" y="560" />
              <mxPoint x="140" y="560" />
            </Array>
          </mxGeometry>
        </mxCell>
        <mxCell id="4MjjVw8BJZL2X1GjUo3T-21" style="edgeStyle=orthogonalEdgeStyle;rounded=0;orthogonalLoop=1;jettySize=auto;html=1;fontSize=25;" parent="1" source="4MjjVw8BJZL2X1GjUo3T-2" target="4MjjVw8BJZL2X1GjUo3T-8" edge="1">
          <mxGeometry relative="1" as="geometry">
            <Array as="points">
              <mxPoint x="420" y="560" />
              <mxPoint x="325" y="560" />
            </Array>
          </mxGeometry>
        </mxCell>
        <mxCell id="4MjjVw8BJZL2X1GjUo3T-22" style="edgeStyle=orthogonalEdgeStyle;rounded=0;orthogonalLoop=1;jettySize=auto;html=1;fontSize=25;" parent="1" source="4MjjVw8BJZL2X1GjUo3T-2" target="4MjjVw8BJZL2X1GjUo3T-10" edge="1">
          <mxGeometry relative="1" as="geometry">
            <Array as="points">
              <mxPoint x="420" y="560" />
              <mxPoint x="510" y="560" />
            </Array>
          </mxGeometry>
        </mxCell>
        <mxCell id="4MjjVw8BJZL2X1GjUo3T-23" style="edgeStyle=orthogonalEdgeStyle;rounded=0;orthogonalLoop=1;jettySize=auto;html=1;fontSize=25;" parent="1" source="4MjjVw8BJZL2X1GjUo3T-2" target="4MjjVw8BJZL2X1GjUo3T-11" edge="1">
          <mxGeometry relative="1" as="geometry">
            <Array as="points">
              <mxPoint x="420" y="560" />
              <mxPoint x="700" y="560" />
            </Array>
          </mxGeometry>
        </mxCell>
        <mxCell id="4MjjVw8BJZL2X1GjUo3T-24" style="edgeStyle=orthogonalEdgeStyle;rounded=0;orthogonalLoop=1;jettySize=auto;html=1;fontSize=25;" parent="1" source="4MjjVw8BJZL2X1GjUo3T-2" target="4MjjVw8BJZL2X1GjUo3T-12" edge="1">
          <mxGeometry relative="1" as="geometry">
            <Array as="points">
              <mxPoint x="420" y="560" />
              <mxPoint x="895" y="560" />
            </Array>
          </mxGeometry>
        </mxCell>
        <mxCell id="4MjjVw8BJZL2X1GjUo3T-2" value="TF-IDF" style="rounded=1;whiteSpace=wrap;html=1;fontSize=25;" parent="1" vertex="1">
          <mxGeometry x="335" y="436" width="170" height="80" as="geometry" />
        </mxCell>
        <mxCell id="4MjjVw8BJZL2X1GjUo3T-17" style="edgeStyle=orthogonalEdgeStyle;rounded=0;orthogonalLoop=1;jettySize=auto;html=1;fontSize=25;" parent="1" source="4MjjVw8BJZL2X1GjUo3T-3" target="4MjjVw8BJZL2X1GjUo3T-5" edge="1">
          <mxGeometry relative="1" as="geometry" />
        </mxCell>
        <mxCell id="4MjjVw8BJZL2X1GjUo3T-18" style="edgeStyle=orthogonalEdgeStyle;rounded=0;orthogonalLoop=1;jettySize=auto;html=1;fontSize=25;" parent="1" source="4MjjVw8BJZL2X1GjUo3T-3" target="4MjjVw8BJZL2X1GjUo3T-6" edge="1">
          <mxGeometry relative="1" as="geometry">
            <Array as="points">
              <mxPoint x="-220" y="560" />
              <mxPoint x="-415" y="560" />
            </Array>
          </mxGeometry>
        </mxCell>
        <mxCell id="4MjjVw8BJZL2X1GjUo3T-19" style="edgeStyle=orthogonalEdgeStyle;rounded=0;orthogonalLoop=1;jettySize=auto;html=1;fontSize=25;" parent="1" source="4MjjVw8BJZL2X1GjUo3T-3" target="4MjjVw8BJZL2X1GjUo3T-7" edge="1">
          <mxGeometry relative="1" as="geometry">
            <Array as="points">
              <mxPoint x="-220" y="560" />
              <mxPoint x="-45" y="560" />
            </Array>
          </mxGeometry>
        </mxCell>
        <mxCell id="4MjjVw8BJZL2X1GjUo3T-3" value="Embedding" style="rounded=1;whiteSpace=wrap;html=1;fontSize=25;" parent="1" vertex="1">
          <mxGeometry x="-305" y="436" width="170" height="80" as="geometry" />
        </mxCell>
        <mxCell id="4MjjVw8BJZL2X1GjUo3T-25" style="edgeStyle=orthogonalEdgeStyle;rounded=0;orthogonalLoop=1;jettySize=auto;html=1;fontSize=25;" parent="1" source="4MjjVw8BJZL2X1GjUo3T-4" target="4MjjVw8BJZL2X1GjUo3T-13" edge="1">
          <mxGeometry relative="1" as="geometry" />
        </mxCell>
        <mxCell id="4MjjVw8BJZL2X1GjUo3T-4" value="TF" style="rounded=1;whiteSpace=wrap;html=1;fontSize=25;" parent="1" vertex="1">
          <mxGeometry x="1021" y="436" width="170" height="80" as="geometry" />
        </mxCell>
        <mxCell id="4MjjVw8BJZL2X1GjUo3T-5" value="Long Short-Term Memory" style="rounded=0;whiteSpace=wrap;html=1;fontSize=25;" parent="1" vertex="1">
          <mxGeometry x="-304" y="717" width="170" height="80" as="geometry" />
        </mxCell>
        <mxCell id="4MjjVw8BJZL2X1GjUo3T-6" value="Convolutional Neural networks" style="rounded=0;whiteSpace=wrap;html=1;fontSize=25;" parent="1" vertex="1">
          <mxGeometry x="-489" y="700" width="170" height="97" as="geometry" />
        </mxCell>
        <mxCell id="4MjjVw8BJZL2X1GjUo3T-7" value="Gated Recurrent Unit" style="rounded=0;whiteSpace=wrap;html=1;fontSize=25;" parent="1" vertex="1">
          <mxGeometry x="-119" y="717" width="170" height="80" as="geometry" />
        </mxCell>
        <mxCell id="4MjjVw8BJZL2X1GjUo3T-8" value="Random Forest 0" style="rounded=0;whiteSpace=wrap;html=1;fontSize=25;" parent="1" vertex="1">
          <mxGeometry x="251" y="717" width="170" height="80" as="geometry" />
        </mxCell>
        <mxCell id="4MjjVw8BJZL2X1GjUo3T-9" value="Decision Tree" style="rounded=0;whiteSpace=wrap;html=1;fontSize=25;" parent="1" vertex="1">
          <mxGeometry x="66" y="717" width="170" height="80" as="geometry" />
        </mxCell>
        <mxCell id="4MjjVw8BJZL2X1GjUo3T-10" value="K-Nearest Neighbors" style="rounded=0;whiteSpace=wrap;html=1;fontSize=25;" parent="1" vertex="1">
          <mxGeometry x="436" y="717" width="170" height="80" as="geometry" />
        </mxCell>
        <mxCell id="4MjjVw8BJZL2X1GjUo3T-11" value="Logistic Regression" style="rounded=0;whiteSpace=wrap;html=1;fontSize=25;" parent="1" vertex="1">
          <mxGeometry x="626" y="717" width="170" height="80" as="geometry" />
        </mxCell>
        <mxCell id="4MjjVw8BJZL2X1GjUo3T-12" value="Support Vector Machine" style="rounded=0;whiteSpace=wrap;html=1;fontSize=25;" parent="1" vertex="1">
          <mxGeometry x="821" y="717" width="170" height="80" as="geometry" />
        </mxCell>
        <mxCell id="4MjjVw8BJZL2X1GjUo3T-13" value="Random Forest 1" style="rounded=0;whiteSpace=wrap;html=1;fontSize=25;" parent="1" vertex="1">
          <mxGeometry x="1021" y="717" width="170" height="80" as="geometry" />
        </mxCell>
        <mxCell id="4MjjVw8BJZL2X1GjUo3T-37" style="edgeStyle=orthogonalEdgeStyle;rounded=0;orthogonalLoop=1;jettySize=auto;html=1;fontSize=25;" parent="1" source="4MjjVw8BJZL2X1GjUo3T-26" target="4MjjVw8BJZL2X1GjUo3T-36" edge="1">
          <mxGeometry relative="1" as="geometry" />
        </mxCell>
        <mxCell id="4MjjVw8BJZL2X1GjUo3T-26" value="Random Forest 2" style="rounded=0;whiteSpace=wrap;html=1;fontSize=25;" parent="1" vertex="1">
          <mxGeometry x="360" y="981" width="170" height="80" as="geometry" />
        </mxCell>
        <mxCell id="4MjjVw8BJZL2X1GjUo3T-27" value="" style="endArrow=classic;html=1;rounded=0;entryX=0.5;entryY=0;entryDx=0;entryDy=0;exitX=0.5;exitY=1;exitDx=0;exitDy=0;fontSize=25;" parent="1" source="4MjjVw8BJZL2X1GjUo3T-6" target="4MjjVw8BJZL2X1GjUo3T-26" edge="1">
          <mxGeometry width="50" height="50" relative="1" as="geometry">
            <mxPoint x="-30" y="917" as="sourcePoint" />
            <mxPoint x="20" y="867" as="targetPoint" />
          </mxGeometry>
        </mxCell>
        <mxCell id="4MjjVw8BJZL2X1GjUo3T-28" value="" style="endArrow=classic;html=1;rounded=0;exitX=0.5;exitY=1;exitDx=0;exitDy=0;entryX=0.5;entryY=0;entryDx=0;entryDy=0;fontSize=25;" parent="1" source="4MjjVw8BJZL2X1GjUo3T-5" target="4MjjVw8BJZL2X1GjUo3T-26" edge="1">
          <mxGeometry width="50" height="50" relative="1" as="geometry">
            <mxPoint x="-405" y="787" as="sourcePoint" />
            <mxPoint x="430" y="977" as="targetPoint" />
          </mxGeometry>
        </mxCell>
        <mxCell id="4MjjVw8BJZL2X1GjUo3T-29" value="" style="endArrow=classic;html=1;rounded=0;entryX=0.5;entryY=0;entryDx=0;entryDy=0;exitX=0.5;exitY=1;exitDx=0;exitDy=0;fontSize=25;" parent="1" source="4MjjVw8BJZL2X1GjUo3T-7" target="4MjjVw8BJZL2X1GjUo3T-26" edge="1">
          <mxGeometry width="50" height="50" relative="1" as="geometry">
            <mxPoint x="80" y="837" as="sourcePoint" />
            <mxPoint x="465" y="891" as="targetPoint" />
          </mxGeometry>
        </mxCell>
        <mxCell id="4MjjVw8BJZL2X1GjUo3T-30" value="" style="endArrow=classic;html=1;rounded=0;entryX=0.5;entryY=0;entryDx=0;entryDy=0;exitX=0.5;exitY=1;exitDx=0;exitDy=0;fontSize=25;" parent="1" source="4MjjVw8BJZL2X1GjUo3T-9" target="4MjjVw8BJZL2X1GjUo3T-26" edge="1">
          <mxGeometry width="50" height="50" relative="1" as="geometry">
            <mxPoint x="90" y="847" as="sourcePoint" />
            <mxPoint x="475" y="901" as="targetPoint" />
          </mxGeometry>
        </mxCell>
        <mxCell id="4MjjVw8BJZL2X1GjUo3T-31" value="" style="endArrow=classic;html=1;rounded=0;entryX=0.5;entryY=0;entryDx=0;entryDy=0;exitX=0.5;exitY=1;exitDx=0;exitDy=0;fontSize=25;" parent="1" source="4MjjVw8BJZL2X1GjUo3T-8" target="4MjjVw8BJZL2X1GjUo3T-26" edge="1">
          <mxGeometry width="50" height="50" relative="1" as="geometry">
            <mxPoint x="100" y="857" as="sourcePoint" />
            <mxPoint x="485" y="911" as="targetPoint" />
          </mxGeometry>
        </mxCell>
        <mxCell id="4MjjVw8BJZL2X1GjUo3T-32" value="" style="endArrow=classic;html=1;rounded=0;entryX=0.5;entryY=0;entryDx=0;entryDy=0;exitX=0.5;exitY=1;exitDx=0;exitDy=0;fontSize=25;" parent="1" source="4MjjVw8BJZL2X1GjUo3T-10" target="4MjjVw8BJZL2X1GjUo3T-26" edge="1">
          <mxGeometry width="50" height="50" relative="1" as="geometry">
            <mxPoint x="110" y="867" as="sourcePoint" />
            <mxPoint x="495" y="921" as="targetPoint" />
          </mxGeometry>
        </mxCell>
        <mxCell id="4MjjVw8BJZL2X1GjUo3T-33" value="" style="endArrow=classic;html=1;rounded=0;entryX=0.5;entryY=0;entryDx=0;entryDy=0;exitX=0.5;exitY=1;exitDx=0;exitDy=0;fontSize=25;" parent="1" source="4MjjVw8BJZL2X1GjUo3T-11" target="4MjjVw8BJZL2X1GjUo3T-26" edge="1">
          <mxGeometry width="50" height="50" relative="1" as="geometry">
            <mxPoint x="120" y="877" as="sourcePoint" />
            <mxPoint x="505" y="931" as="targetPoint" />
          </mxGeometry>
        </mxCell>
        <mxCell id="4MjjVw8BJZL2X1GjUo3T-34" value="" style="endArrow=classic;html=1;rounded=0;entryX=0.5;entryY=0;entryDx=0;entryDy=0;exitX=0.5;exitY=1;exitDx=0;exitDy=0;fontSize=25;" parent="1" source="4MjjVw8BJZL2X1GjUo3T-12" target="4MjjVw8BJZL2X1GjUo3T-26" edge="1">
          <mxGeometry width="50" height="50" relative="1" as="geometry">
            <mxPoint x="130" y="887" as="sourcePoint" />
            <mxPoint x="515" y="941" as="targetPoint" />
          </mxGeometry>
        </mxCell>
        <mxCell id="4MjjVw8BJZL2X1GjUo3T-35" value="" style="endArrow=classic;html=1;rounded=0;entryX=0.5;entryY=0;entryDx=0;entryDy=0;exitX=0.5;exitY=1;exitDx=0;exitDy=0;fontSize=25;" parent="1" source="4MjjVw8BJZL2X1GjUo3T-13" target="4MjjVw8BJZL2X1GjUo3T-26" edge="1">
          <mxGeometry width="50" height="50" relative="1" as="geometry">
            <mxPoint x="910" y="837" as="sourcePoint" />
            <mxPoint x="525" y="951" as="targetPoint" />
          </mxGeometry>
        </mxCell>
        <mxCell id="4MjjVw8BJZL2X1GjUo3T-36" value="Final Prediction" style="rounded=0;whiteSpace=wrap;html=1;fontSize=25;" parent="1" vertex="1">
          <mxGeometry x="280" y="1147" width="330" height="80" as="geometry" />
        </mxCell>
      </root>
    </mxGraphModel>
  </diagram>
  <diagram id="rDsM3eHQZjrApn4ZwPOJ" name="Page-5">
    <mxGraphModel dx="1542" dy="875" grid="1" gridSize="10" guides="1" tooltips="1" connect="1" arrows="1" fold="1" page="1" pageScale="1" pageWidth="850" pageHeight="1100" math="0" shadow="0">
      <root>
        <mxCell id="0" />
        <mxCell id="1" parent="0" />
        <mxCell id="nb4OXwydVeCKFcXrv2Tp-11" value="" style="rounded=1;whiteSpace=wrap;html=1;fontSize=18;" parent="1" vertex="1">
          <mxGeometry x="310" y="360" width="310" height="520" as="geometry" />
        </mxCell>
        <mxCell id="nb4OXwydVeCKFcXrv2Tp-1" value="Bộ dữ liệu LIAR" style="ellipse;whiteSpace=wrap;html=1;fontSize=18;" parent="1" vertex="1">
          <mxGeometry x="330" y="590" width="120" height="80" as="geometry" />
        </mxCell>
        <mxCell id="nb4OXwydVeCKFcXrv2Tp-2" value="Văn bản (TXT)" style="rounded=0;whiteSpace=wrap;html=1;fontSize=18;fillColor=#d5e8d4;strokeColor=#82b366;" parent="1" vertex="1">
          <mxGeometry x="480" y="440" width="120" height="60" as="geometry" />
        </mxCell>
        <mxCell id="nb4OXwydVeCKFcXrv2Tp-3" value="Bối cảnh (CT)" style="rounded=0;whiteSpace=wrap;html=1;fontSize=18;fillColor=#d5e8d4;strokeColor=#82b366;" parent="1" vertex="1">
          <mxGeometry x="480" y="600" width="120" height="60" as="geometry" />
        </mxCell>
        <mxCell id="nb4OXwydVeCKFcXrv2Tp-4" value="Lịch sử đăng bài (CH)" style="rounded=0;whiteSpace=wrap;html=1;fontSize=18;fillColor=#d5e8d4;strokeColor=#82b366;" parent="1" vertex="1">
          <mxGeometry x="480" y="770" width="120" height="60" as="geometry" />
        </mxCell>
        <mxCell id="nb4OXwydVeCKFcXrv2Tp-6" value="" style="endArrow=classic;html=1;rounded=0;entryX=0;entryY=0.5;entryDx=0;entryDy=0;fontSize=18;" parent="1" source="nb4OXwydVeCKFcXrv2Tp-1" target="nb4OXwydVeCKFcXrv2Tp-2" edge="1">
          <mxGeometry width="50" height="50" relative="1" as="geometry">
            <mxPoint x="640" y="740" as="sourcePoint" />
            <mxPoint x="690" y="690" as="targetPoint" />
          </mxGeometry>
        </mxCell>
        <mxCell id="nb4OXwydVeCKFcXrv2Tp-9" value="" style="endArrow=classic;html=1;rounded=0;fontSize=18;" parent="1" source="nb4OXwydVeCKFcXrv2Tp-1" target="nb4OXwydVeCKFcXrv2Tp-3" edge="1">
          <mxGeometry width="50" height="50" relative="1" as="geometry">
            <mxPoint x="428" y="659" as="sourcePoint" />
            <mxPoint x="513" y="590" as="targetPoint" />
          </mxGeometry>
        </mxCell>
        <mxCell id="nb4OXwydVeCKFcXrv2Tp-10" value="" style="endArrow=classic;html=1;rounded=0;entryX=0;entryY=0.5;entryDx=0;entryDy=0;fontSize=18;" parent="1" source="nb4OXwydVeCKFcXrv2Tp-1" target="nb4OXwydVeCKFcXrv2Tp-4" edge="1">
          <mxGeometry width="50" height="50" relative="1" as="geometry">
            <mxPoint x="438" y="669" as="sourcePoint" />
            <mxPoint x="523" y="600" as="targetPoint" />
          </mxGeometry>
        </mxCell>
        <mxCell id="nb4OXwydVeCKFcXrv2Tp-12" value="Giai đoạn 1" style="text;html=1;align=center;verticalAlign=middle;whiteSpace=wrap;rounded=0;fontSize=21;" parent="1" vertex="1">
          <mxGeometry x="410" y="380" width="110" height="30" as="geometry" />
        </mxCell>
        <mxCell id="nb4OXwydVeCKFcXrv2Tp-13" value="" style="rounded=1;whiteSpace=wrap;html=1;fontSize=18;" parent="1" vertex="1">
          <mxGeometry x="650" y="360" width="330" height="520" as="geometry" />
        </mxCell>
        <mxCell id="nb4OXwydVeCKFcXrv2Tp-14" value="Giai đoạn 2" style="text;html=1;align=center;verticalAlign=middle;whiteSpace=wrap;rounded=0;fontSize=21;" parent="1" vertex="1">
          <mxGeometry x="760" y="380" width="110" height="30" as="geometry" />
        </mxCell>
        <mxCell id="nb4OXwydVeCKFcXrv2Tp-18" style="edgeStyle=orthogonalEdgeStyle;rounded=0;orthogonalLoop=1;jettySize=auto;html=1;fontSize=18;" parent="1" source="nb4OXwydVeCKFcXrv2Tp-2" target="nb4OXwydVeCKFcXrv2Tp-21" edge="1">
          <mxGeometry relative="1" as="geometry">
            <mxPoint x="680" y="590.04" as="targetPoint" />
          </mxGeometry>
        </mxCell>
        <mxCell id="nb4OXwydVeCKFcXrv2Tp-20" value="Các thuật toán phân loại nhị phân" style="rounded=0;whiteSpace=wrap;html=1;fontSize=18;fillColor=#dae8fc;strokeColor=#6c8ebf;" parent="1" vertex="1">
          <mxGeometry x="830" y="430" width="120" height="170" as="geometry" />
        </mxCell>
        <mxCell id="nb4OXwydVeCKFcXrv2Tp-24" style="edgeStyle=orthogonalEdgeStyle;rounded=0;orthogonalLoop=1;jettySize=auto;html=1;fontSize=18;" parent="1" source="nb4OXwydVeCKFcXrv2Tp-21" target="nb4OXwydVeCKFcXrv2Tp-20" edge="1">
          <mxGeometry relative="1" as="geometry" />
        </mxCell>
        <mxCell id="nb4OXwydVeCKFcXrv2Tp-21" value="Các bộ làm mờ dữ liệu" style="rounded=0;whiteSpace=wrap;html=1;fontSize=18;fillColor=#ffe6cc;strokeColor=#d79b00;" parent="1" vertex="1">
          <mxGeometry x="670" y="420" width="120" height="100" as="geometry" />
        </mxCell>
        <mxCell id="nb4OXwydVeCKFcXrv2Tp-22" value="Các thuật toán phân loại nhị phân" style="rounded=0;whiteSpace=wrap;html=1;fontSize=18;fillColor=#dae8fc;strokeColor=#6c8ebf;" parent="1" vertex="1">
          <mxGeometry x="830" y="620" width="120" height="170" as="geometry" />
        </mxCell>
        <mxCell id="nb4OXwydVeCKFcXrv2Tp-25" value="" style="rounded=1;whiteSpace=wrap;html=1;fontSize=18;" parent="1" vertex="1">
          <mxGeometry x="1000" y="360" width="410" height="520" as="geometry" />
        </mxCell>
        <mxCell id="nb4OXwydVeCKFcXrv2Tp-26" value="Giai đoạn 3" style="text;html=1;align=center;verticalAlign=middle;whiteSpace=wrap;rounded=0;fontSize=21;" parent="1" vertex="1">
          <mxGeometry x="1150" y="380" width="110" height="30" as="geometry" />
        </mxCell>
        <mxCell id="nb4OXwydVeCKFcXrv2Tp-43" style="edgeStyle=orthogonalEdgeStyle;rounded=0;orthogonalLoop=1;jettySize=auto;html=1;fontSize=18;" parent="1" source="nb4OXwydVeCKFcXrv2Tp-27" target="nb4OXwydVeCKFcXrv2Tp-36" edge="1">
          <mxGeometry relative="1" as="geometry" />
        </mxCell>
        <mxCell id="nb4OXwydVeCKFcXrv2Tp-27" value="Thuật toán phân loại đa lớp" style="rounded=0;whiteSpace=wrap;html=1;fontSize=18;fillColor=#e1d5e7;strokeColor=#9673a6;" parent="1" vertex="1">
          <mxGeometry x="1120" y="580" width="120" height="100" as="geometry" />
        </mxCell>
        <mxCell id="nb4OXwydVeCKFcXrv2Tp-35" style="edgeStyle=orthogonalEdgeStyle;rounded=0;orthogonalLoop=1;jettySize=auto;html=1;fontSize=18;" parent="1" source="nb4OXwydVeCKFcXrv2Tp-31" target="nb4OXwydVeCKFcXrv2Tp-27" edge="1">
          <mxGeometry relative="1" as="geometry" />
        </mxCell>
        <mxCell id="nb4OXwydVeCKFcXrv2Tp-31" value="Dữ liệu tổng hợp" style="rounded=0;whiteSpace=wrap;html=1;fontSize=18;fillColor=#d5e8d4;strokeColor=#82b366;" parent="1" vertex="1">
          <mxGeometry x="1030" y="420" width="60" height="420" as="geometry" />
        </mxCell>
        <mxCell id="nb4OXwydVeCKFcXrv2Tp-32" style="edgeStyle=orthogonalEdgeStyle;rounded=0;orthogonalLoop=1;jettySize=auto;html=1;entryX=0.017;entryY=0.908;entryDx=0;entryDy=0;entryPerimeter=0;fontSize=18;" parent="1" source="nb4OXwydVeCKFcXrv2Tp-4" target="nb4OXwydVeCKFcXrv2Tp-31" edge="1">
          <mxGeometry relative="1" as="geometry">
            <Array as="points">
              <mxPoint x="710" y="801" />
              <mxPoint x="710" y="801" />
            </Array>
          </mxGeometry>
        </mxCell>
        <mxCell id="nb4OXwydVeCKFcXrv2Tp-36" value="Dự đoán" style="swimlane;fontStyle=0;childLayout=stackLayout;horizontal=1;startSize=30;horizontalStack=0;resizeParent=1;resizeParentMax=0;resizeLast=0;collapsible=1;marginBottom=0;whiteSpace=wrap;html=1;fontSize=18;" parent="1" vertex="1">
          <mxGeometry x="1260" y="525" width="125" height="210" as="geometry" />
        </mxCell>
        <mxCell id="nb4OXwydVeCKFcXrv2Tp-37" value="Pants on Fire" style="text;strokeColor=none;fillColor=none;align=left;verticalAlign=middle;spacingLeft=4;spacingRight=4;overflow=hidden;points=[[0,0.5],[1,0.5]];portConstraint=eastwest;rotatable=0;whiteSpace=wrap;html=1;fontSize=18;" parent="nb4OXwydVeCKFcXrv2Tp-36" vertex="1">
          <mxGeometry y="30" width="125" height="30" as="geometry" />
        </mxCell>
        <mxCell id="nb4OXwydVeCKFcXrv2Tp-38" value="False" style="text;strokeColor=none;fillColor=none;align=left;verticalAlign=middle;spacingLeft=4;spacingRight=4;overflow=hidden;points=[[0,0.5],[1,0.5]];portConstraint=eastwest;rotatable=0;whiteSpace=wrap;html=1;fontSize=18;" parent="nb4OXwydVeCKFcXrv2Tp-36" vertex="1">
          <mxGeometry y="60" width="125" height="30" as="geometry" />
        </mxCell>
        <mxCell id="nb4OXwydVeCKFcXrv2Tp-39" value="Barely True" style="text;align=left;verticalAlign=middle;spacingLeft=4;spacingRight=4;overflow=hidden;points=[[0,0.5],[1,0.5]];portConstraint=eastwest;rotatable=0;whiteSpace=wrap;html=1;fontSize=18;" parent="nb4OXwydVeCKFcXrv2Tp-36" vertex="1">
          <mxGeometry y="90" width="125" height="30" as="geometry" />
        </mxCell>
        <mxCell id="nb4OXwydVeCKFcXrv2Tp-40" value="Half True" style="text;strokeColor=none;fillColor=none;align=left;verticalAlign=middle;spacingLeft=4;spacingRight=4;overflow=hidden;points=[[0,0.5],[1,0.5]];portConstraint=eastwest;rotatable=0;whiteSpace=wrap;html=1;fontSize=18;" parent="nb4OXwydVeCKFcXrv2Tp-36" vertex="1">
          <mxGeometry y="120" width="125" height="30" as="geometry" />
        </mxCell>
        <mxCell id="nb4OXwydVeCKFcXrv2Tp-41" value="Mostly True" style="text;strokeColor=#b85450;fillColor=#f8cecc;align=left;verticalAlign=middle;spacingLeft=4;spacingRight=4;overflow=hidden;points=[[0,0.5],[1,0.5]];portConstraint=eastwest;rotatable=0;whiteSpace=wrap;html=1;fontSize=18;" parent="nb4OXwydVeCKFcXrv2Tp-36" vertex="1">
          <mxGeometry y="150" width="125" height="30" as="geometry" />
        </mxCell>
        <mxCell id="nb4OXwydVeCKFcXrv2Tp-42" value="True" style="text;strokeColor=none;fillColor=none;align=left;verticalAlign=middle;spacingLeft=4;spacingRight=4;overflow=hidden;points=[[0,0.5],[1,0.5]];portConstraint=eastwest;rotatable=0;whiteSpace=wrap;html=1;fontSize=18;" parent="nb4OXwydVeCKFcXrv2Tp-36" vertex="1">
          <mxGeometry y="180" width="125" height="30" as="geometry" />
        </mxCell>
        <mxCell id="nb4OXwydVeCKFcXrv2Tp-45" style="edgeStyle=orthogonalEdgeStyle;rounded=0;orthogonalLoop=1;jettySize=auto;html=1;fontSize=18;" parent="1" source="nb4OXwydVeCKFcXrv2Tp-3" target="nb4OXwydVeCKFcXrv2Tp-22" edge="1">
          <mxGeometry relative="1" as="geometry" />
        </mxCell>
        <mxCell id="nb4OXwydVeCKFcXrv2Tp-46" style="edgeStyle=orthogonalEdgeStyle;rounded=0;orthogonalLoop=1;jettySize=auto;html=1;entryX=0.05;entryY=0.226;entryDx=0;entryDy=0;entryPerimeter=0;fontSize=18;" parent="1" source="nb4OXwydVeCKFcXrv2Tp-20" target="nb4OXwydVeCKFcXrv2Tp-31" edge="1">
          <mxGeometry relative="1" as="geometry" />
        </mxCell>
        <mxCell id="nb4OXwydVeCKFcXrv2Tp-47" style="edgeStyle=orthogonalEdgeStyle;rounded=0;orthogonalLoop=1;jettySize=auto;html=1;entryX=-0.017;entryY=0.678;entryDx=0;entryDy=0;entryPerimeter=0;fontSize=18;" parent="1" source="nb4OXwydVeCKFcXrv2Tp-22" target="nb4OXwydVeCKFcXrv2Tp-31" edge="1">
          <mxGeometry relative="1" as="geometry" />
        </mxCell>
      </root>
    </mxGraphModel>
  </diagram>
  <diagram id="UyV1Vlb7ZEkU14CAEbDH" name="Page-6">
    <mxGraphModel dx="2227" dy="1264" grid="1" gridSize="10" guides="1" tooltips="1" connect="1" arrows="1" fold="1" page="1" pageScale="1" pageWidth="850" pageHeight="1100" math="0" shadow="0">
      <root>
        <mxCell id="0" />
        <mxCell id="1" parent="0" />
        <mxCell id="YC_3aTF7W4ZEOHN_1eoh-2" value="" style="rounded=1;whiteSpace=wrap;html=1;fontSize=18;" parent="1" vertex="1">
          <mxGeometry x="690" y="250" width="740" height="410" as="geometry" />
        </mxCell>
        <mxCell id="YC_3aTF7W4ZEOHN_1eoh-1" value="" style="rounded=1;whiteSpace=wrap;html=1;fontSize=18;" parent="1" vertex="1">
          <mxGeometry x="180" y="250" width="320" height="410" as="geometry" />
        </mxCell>
        <mxCell id="1mNkoybP6qMXE-YT6bLr-2" value="TXT" style="ellipse;whiteSpace=wrap;html=1;fontSize=18;" parent="1" vertex="1">
          <mxGeometry x="190" y="430" width="120" height="80" as="geometry" />
        </mxCell>
        <mxCell id="1mNkoybP6qMXE-YT6bLr-15" style="edgeStyle=orthogonalEdgeStyle;rounded=0;orthogonalLoop=1;jettySize=auto;html=1;" parent="1" source="1mNkoybP6qMXE-YT6bLr-3" target="1mNkoybP6qMXE-YT6bLr-14" edge="1">
          <mxGeometry relative="1" as="geometry" />
        </mxCell>
        <mxCell id="1mNkoybP6qMXE-YT6bLr-3" value="Xử lý, Vector hóa" style="rounded=0;whiteSpace=wrap;html=1;fontSize=18;fillColor=#d5e8d4;strokeColor=#82b366;" parent="1" vertex="1">
          <mxGeometry x="340" y="440" width="150" height="60" as="geometry" />
        </mxCell>
        <mxCell id="1mNkoybP6qMXE-YT6bLr-6" value="" style="endArrow=classic;html=1;rounded=0;entryX=0;entryY=0.5;entryDx=0;entryDy=0;fontSize=18;" parent="1" source="1mNkoybP6qMXE-YT6bLr-2" target="1mNkoybP6qMXE-YT6bLr-3" edge="1">
          <mxGeometry width="50" height="50" relative="1" as="geometry">
            <mxPoint x="640" y="740" as="sourcePoint" />
            <mxPoint x="690" y="690" as="targetPoint" />
          </mxGeometry>
        </mxCell>
        <mxCell id="1mNkoybP6qMXE-YT6bLr-9" value="Giai đoạn 1" style="text;html=1;align=center;verticalAlign=middle;whiteSpace=wrap;rounded=0;fontSize=21;" parent="1" vertex="1">
          <mxGeometry x="285" y="278" width="110" height="30" as="geometry" />
        </mxCell>
        <mxCell id="1mNkoybP6qMXE-YT6bLr-34" style="edgeStyle=orthogonalEdgeStyle;rounded=0;orthogonalLoop=1;jettySize=auto;html=1;" parent="1" source="1mNkoybP6qMXE-YT6bLr-14" target="1mNkoybP6qMXE-YT6bLr-16" edge="1">
          <mxGeometry relative="1" as="geometry" />
        </mxCell>
        <mxCell id="1mNkoybP6qMXE-YT6bLr-14" value="13957 đặc trưng" style="ellipse;whiteSpace=wrap;html=1;fontSize=18;" parent="1" vertex="1">
          <mxGeometry x="520" y="430" width="160" height="80" as="geometry" />
        </mxCell>
        <mxCell id="1mNkoybP6qMXE-YT6bLr-16" value="Gán nhãn 0 - 1" style="rounded=0;whiteSpace=wrap;html=1;fontSize=18;" parent="1" vertex="1">
          <mxGeometry x="710" y="440" width="150" height="60" as="geometry" />
        </mxCell>
        <mxCell id="1mNkoybP6qMXE-YT6bLr-39" style="edgeStyle=orthogonalEdgeStyle;rounded=0;orthogonalLoop=1;jettySize=auto;html=1;" parent="1" source="1mNkoybP6qMXE-YT6bLr-21" target="1mNkoybP6qMXE-YT6bLr-35" edge="1">
          <mxGeometry relative="1" as="geometry" />
        </mxCell>
        <mxCell id="1mNkoybP6qMXE-YT6bLr-21" value="Bộ làm mờ 1" style="rounded=0;whiteSpace=wrap;html=1;fontSize=18;fillColor=#ffe6cc;strokeColor=#d79b00;" parent="1" vertex="1">
          <mxGeometry x="910" y="310" width="150" height="60" as="geometry" />
        </mxCell>
        <mxCell id="1mNkoybP6qMXE-YT6bLr-40" style="edgeStyle=orthogonalEdgeStyle;rounded=0;orthogonalLoop=1;jettySize=auto;html=1;" parent="1" source="1mNkoybP6qMXE-YT6bLr-22" target="1mNkoybP6qMXE-YT6bLr-36" edge="1">
          <mxGeometry relative="1" as="geometry" />
        </mxCell>
        <mxCell id="1mNkoybP6qMXE-YT6bLr-22" value="Bộ làm mờ 2" style="rounded=0;whiteSpace=wrap;html=1;fontSize=18;fillColor=#ffe6cc;strokeColor=#d79b00;" parent="1" vertex="1">
          <mxGeometry x="910" y="400" width="150" height="60" as="geometry" />
        </mxCell>
        <mxCell id="1mNkoybP6qMXE-YT6bLr-41" style="edgeStyle=orthogonalEdgeStyle;rounded=0;orthogonalLoop=1;jettySize=auto;html=1;" parent="1" source="1mNkoybP6qMXE-YT6bLr-23" target="1mNkoybP6qMXE-YT6bLr-37" edge="1">
          <mxGeometry relative="1" as="geometry" />
        </mxCell>
        <mxCell id="1mNkoybP6qMXE-YT6bLr-23" value="Bộ làm mờ 3" style="rounded=0;whiteSpace=wrap;html=1;fontSize=18;fillColor=#ffe6cc;strokeColor=#d79b00;" parent="1" vertex="1">
          <mxGeometry x="910" y="490" width="150" height="60" as="geometry" />
        </mxCell>
        <mxCell id="1mNkoybP6qMXE-YT6bLr-42" style="edgeStyle=orthogonalEdgeStyle;rounded=0;orthogonalLoop=1;jettySize=auto;html=1;" parent="1" source="1mNkoybP6qMXE-YT6bLr-24" target="1mNkoybP6qMXE-YT6bLr-38" edge="1">
          <mxGeometry relative="1" as="geometry" />
        </mxCell>
        <mxCell id="1mNkoybP6qMXE-YT6bLr-24" value="Bộ làm mờ 4" style="rounded=0;whiteSpace=wrap;html=1;fontSize=18;fillColor=#ffe6cc;strokeColor=#d79b00;" parent="1" vertex="1">
          <mxGeometry x="910" y="580" width="150" height="60" as="geometry" />
        </mxCell>
        <mxCell id="1mNkoybP6qMXE-YT6bLr-28" value="" style="endArrow=classic;html=1;rounded=0;exitX=1;exitY=0.5;exitDx=0;exitDy=0;entryX=0;entryY=0.5;entryDx=0;entryDy=0;" parent="1" source="1mNkoybP6qMXE-YT6bLr-16" target="1mNkoybP6qMXE-YT6bLr-21" edge="1">
          <mxGeometry width="50" height="50" relative="1" as="geometry">
            <mxPoint x="690" y="650" as="sourcePoint" />
            <mxPoint x="740" y="600" as="targetPoint" />
          </mxGeometry>
        </mxCell>
        <mxCell id="1mNkoybP6qMXE-YT6bLr-30" value="" style="endArrow=classic;html=1;rounded=0;exitX=1;exitY=0.5;exitDx=0;exitDy=0;entryX=0;entryY=0.5;entryDx=0;entryDy=0;" parent="1" source="1mNkoybP6qMXE-YT6bLr-16" target="1mNkoybP6qMXE-YT6bLr-22" edge="1">
          <mxGeometry width="50" height="50" relative="1" as="geometry">
            <mxPoint x="720" y="490" as="sourcePoint" />
            <mxPoint x="760" y="620" as="targetPoint" />
          </mxGeometry>
        </mxCell>
        <mxCell id="1mNkoybP6qMXE-YT6bLr-31" value="" style="endArrow=classic;html=1;rounded=0;exitX=1;exitY=0.5;exitDx=0;exitDy=0;entryX=0;entryY=0.5;entryDx=0;entryDy=0;" parent="1" source="1mNkoybP6qMXE-YT6bLr-16" target="1mNkoybP6qMXE-YT6bLr-23" edge="1">
          <mxGeometry width="50" height="50" relative="1" as="geometry">
            <mxPoint x="730" y="500" as="sourcePoint" />
            <mxPoint x="770" y="630" as="targetPoint" />
          </mxGeometry>
        </mxCell>
        <mxCell id="1mNkoybP6qMXE-YT6bLr-32" value="" style="endArrow=classic;html=1;rounded=0;exitX=1;exitY=0.5;exitDx=0;exitDy=0;entryX=0;entryY=0.5;entryDx=0;entryDy=0;" parent="1" source="1mNkoybP6qMXE-YT6bLr-16" target="1mNkoybP6qMXE-YT6bLr-24" edge="1">
          <mxGeometry width="50" height="50" relative="1" as="geometry">
            <mxPoint x="740" y="510" as="sourcePoint" />
            <mxPoint x="780" y="640" as="targetPoint" />
          </mxGeometry>
        </mxCell>
        <mxCell id="1mNkoybP6qMXE-YT6bLr-47" style="edgeStyle=orthogonalEdgeStyle;rounded=0;orthogonalLoop=1;jettySize=auto;html=1;" parent="1" source="1mNkoybP6qMXE-YT6bLr-35" target="1mNkoybP6qMXE-YT6bLr-43" edge="1">
          <mxGeometry relative="1" as="geometry" />
        </mxCell>
        <mxCell id="1mNkoybP6qMXE-YT6bLr-35" value="2 đặc trưng" style="ellipse;whiteSpace=wrap;html=1;fontSize=18;" parent="1" vertex="1">
          <mxGeometry x="1100" y="305" width="120" height="70" as="geometry" />
        </mxCell>
        <mxCell id="1mNkoybP6qMXE-YT6bLr-48" style="edgeStyle=orthogonalEdgeStyle;rounded=0;orthogonalLoop=1;jettySize=auto;html=1;" parent="1" source="1mNkoybP6qMXE-YT6bLr-36" target="1mNkoybP6qMXE-YT6bLr-44" edge="1">
          <mxGeometry relative="1" as="geometry" />
        </mxCell>
        <mxCell id="1mNkoybP6qMXE-YT6bLr-36" value="2 đặc trưng" style="ellipse;whiteSpace=wrap;html=1;fontSize=18;" parent="1" vertex="1">
          <mxGeometry x="1100" y="395" width="120" height="70" as="geometry" />
        </mxCell>
        <mxCell id="1mNkoybP6qMXE-YT6bLr-49" style="edgeStyle=orthogonalEdgeStyle;rounded=0;orthogonalLoop=1;jettySize=auto;html=1;" parent="1" source="1mNkoybP6qMXE-YT6bLr-37" target="1mNkoybP6qMXE-YT6bLr-45" edge="1">
          <mxGeometry relative="1" as="geometry" />
        </mxCell>
        <mxCell id="1mNkoybP6qMXE-YT6bLr-37" value="2 đặc trưng" style="ellipse;whiteSpace=wrap;html=1;fontSize=18;" parent="1" vertex="1">
          <mxGeometry x="1100" y="485" width="120" height="70" as="geometry" />
        </mxCell>
        <mxCell id="x06_BUqn0qaBZGcehkAr-1" style="edgeStyle=orthogonalEdgeStyle;rounded=0;orthogonalLoop=1;jettySize=auto;html=1;" parent="1" source="1mNkoybP6qMXE-YT6bLr-38" target="1mNkoybP6qMXE-YT6bLr-46" edge="1">
          <mxGeometry relative="1" as="geometry" />
        </mxCell>
        <mxCell id="1mNkoybP6qMXE-YT6bLr-38" value="2 đặc trưng" style="ellipse;whiteSpace=wrap;html=1;fontSize=18;" parent="1" vertex="1">
          <mxGeometry x="1100" y="575" width="120" height="70" as="geometry" />
        </mxCell>
        <mxCell id="1mNkoybP6qMXE-YT6bLr-43" value="Bộ phân loại nhị phân 1" style="rounded=0;whiteSpace=wrap;html=1;fontSize=18;fillColor=#dae8fc;strokeColor=#6c8ebf;" parent="1" vertex="1">
          <mxGeometry x="1250" y="310" width="150" height="60" as="geometry" />
        </mxCell>
        <mxCell id="1mNkoybP6qMXE-YT6bLr-44" value="Bộ phân loại nhị phân 2" style="rounded=0;whiteSpace=wrap;html=1;fontSize=18;fillColor=#dae8fc;strokeColor=#6c8ebf;" parent="1" vertex="1">
          <mxGeometry x="1250" y="400" width="150" height="60" as="geometry" />
        </mxCell>
        <mxCell id="1mNkoybP6qMXE-YT6bLr-45" value="Bộ phân loại nhị phân 3" style="rounded=0;whiteSpace=wrap;html=1;fontSize=18;fillColor=#dae8fc;strokeColor=#6c8ebf;" parent="1" vertex="1">
          <mxGeometry x="1250" y="490" width="150" height="60" as="geometry" />
        </mxCell>
        <mxCell id="1mNkoybP6qMXE-YT6bLr-46" value="Bộ phân loại nhị phân 4" style="rounded=0;whiteSpace=wrap;html=1;fontSize=18;fillColor=#dae8fc;strokeColor=#6c8ebf;" parent="1" vertex="1">
          <mxGeometry x="1250" y="580" width="150" height="60" as="geometry" />
        </mxCell>
        <mxCell id="1mNkoybP6qMXE-YT6bLr-53" value="4 đặc trưng" style="ellipse;whiteSpace=wrap;html=1;fontSize=18;" parent="1" vertex="1">
          <mxGeometry x="1460" y="430" width="130" height="80" as="geometry" />
        </mxCell>
        <mxCell id="1mNkoybP6qMXE-YT6bLr-54" value="" style="endArrow=classic;html=1;rounded=0;exitX=1;exitY=0.5;exitDx=0;exitDy=0;entryX=0;entryY=0.5;entryDx=0;entryDy=0;" parent="1" source="1mNkoybP6qMXE-YT6bLr-43" target="1mNkoybP6qMXE-YT6bLr-53" edge="1">
          <mxGeometry width="50" height="50" relative="1" as="geometry">
            <mxPoint x="1360" y="270" as="sourcePoint" />
            <mxPoint x="1410" y="220" as="targetPoint" />
          </mxGeometry>
        </mxCell>
        <mxCell id="1mNkoybP6qMXE-YT6bLr-55" value="" style="endArrow=classic;html=1;rounded=0;exitX=1;exitY=0.5;exitDx=0;exitDy=0;entryX=0;entryY=0.5;entryDx=0;entryDy=0;" parent="1" source="1mNkoybP6qMXE-YT6bLr-44" target="1mNkoybP6qMXE-YT6bLr-53" edge="1">
          <mxGeometry width="50" height="50" relative="1" as="geometry">
            <mxPoint x="1370" y="280" as="sourcePoint" />
            <mxPoint x="1420" y="230" as="targetPoint" />
          </mxGeometry>
        </mxCell>
        <mxCell id="1mNkoybP6qMXE-YT6bLr-56" value="" style="endArrow=classic;html=1;rounded=0;exitX=1;exitY=0.5;exitDx=0;exitDy=0;entryX=0;entryY=0.5;entryDx=0;entryDy=0;" parent="1" source="1mNkoybP6qMXE-YT6bLr-45" target="1mNkoybP6qMXE-YT6bLr-53" edge="1">
          <mxGeometry width="50" height="50" relative="1" as="geometry">
            <mxPoint x="1380" y="290" as="sourcePoint" />
            <mxPoint x="1430" y="240" as="targetPoint" />
          </mxGeometry>
        </mxCell>
        <mxCell id="1mNkoybP6qMXE-YT6bLr-57" value="" style="endArrow=classic;html=1;rounded=0;exitX=1;exitY=0.5;exitDx=0;exitDy=0;" parent="1" source="1mNkoybP6qMXE-YT6bLr-46" edge="1">
          <mxGeometry width="50" height="50" relative="1" as="geometry">
            <mxPoint x="1390" y="300" as="sourcePoint" />
            <mxPoint x="1460" y="470" as="targetPoint" />
          </mxGeometry>
        </mxCell>
        <mxCell id="YC_3aTF7W4ZEOHN_1eoh-3" value="Giai đoạn 2" style="text;html=1;align=center;verticalAlign=middle;whiteSpace=wrap;rounded=0;fontSize=21;" parent="1" vertex="1">
          <mxGeometry x="1005" y="260" width="110" height="30" as="geometry" />
        </mxCell>
      </root>
    </mxGraphModel>
  </diagram>
  <diagram name="Page-7" id="nAmf8Z23k8fC8gwYMNsk">
    <mxGraphModel dx="1431" dy="813" grid="1" gridSize="10" guides="1" tooltips="1" connect="1" arrows="1" fold="1" page="1" pageScale="1" pageWidth="850" pageHeight="1100" math="0" shadow="0">
      <root>
        <mxCell id="tUwKt1ka5wXuAgK51C4r-0" />
        <mxCell id="tUwKt1ka5wXuAgK51C4r-1" parent="tUwKt1ka5wXuAgK51C4r-0" />
        <mxCell id="RX-nncueJU3vy0MCNO2L-0" value="" style="rounded=1;whiteSpace=wrap;html=1;fontSize=18;" parent="tUwKt1ka5wXuAgK51C4r-1" vertex="1">
          <mxGeometry x="690" y="250" width="400" height="410" as="geometry" />
        </mxCell>
        <mxCell id="tUwKt1ka5wXuAgK51C4r-3" value="" style="rounded=1;whiteSpace=wrap;html=1;fontSize=18;" parent="tUwKt1ka5wXuAgK51C4r-1" vertex="1">
          <mxGeometry x="180" y="250" width="320" height="410" as="geometry" />
        </mxCell>
        <mxCell id="tUwKt1ka5wXuAgK51C4r-4" value="CT" style="ellipse;whiteSpace=wrap;html=1;fontSize=18;" parent="tUwKt1ka5wXuAgK51C4r-1" vertex="1">
          <mxGeometry x="190" y="430" width="120" height="80" as="geometry" />
        </mxCell>
        <mxCell id="tUwKt1ka5wXuAgK51C4r-5" style="edgeStyle=orthogonalEdgeStyle;rounded=0;orthogonalLoop=1;jettySize=auto;html=1;" parent="tUwKt1ka5wXuAgK51C4r-1" source="tUwKt1ka5wXuAgK51C4r-6" target="tUwKt1ka5wXuAgK51C4r-10" edge="1">
          <mxGeometry relative="1" as="geometry" />
        </mxCell>
        <mxCell id="tUwKt1ka5wXuAgK51C4r-6" value="Xử lý, Vector hóa" style="rounded=0;whiteSpace=wrap;html=1;fontSize=18;fillColor=#d5e8d4;strokeColor=#82b366;" parent="tUwKt1ka5wXuAgK51C4r-1" vertex="1">
          <mxGeometry x="340" y="440" width="150" height="60" as="geometry" />
        </mxCell>
        <mxCell id="tUwKt1ka5wXuAgK51C4r-7" value="" style="endArrow=classic;html=1;rounded=0;entryX=0;entryY=0.5;entryDx=0;entryDy=0;fontSize=18;" parent="tUwKt1ka5wXuAgK51C4r-1" source="tUwKt1ka5wXuAgK51C4r-4" target="tUwKt1ka5wXuAgK51C4r-6" edge="1">
          <mxGeometry width="50" height="50" relative="1" as="geometry">
            <mxPoint x="640" y="740" as="sourcePoint" />
            <mxPoint x="690" y="690" as="targetPoint" />
          </mxGeometry>
        </mxCell>
        <mxCell id="tUwKt1ka5wXuAgK51C4r-8" value="Giai đoạn 1" style="text;html=1;align=center;verticalAlign=middle;whiteSpace=wrap;rounded=0;fontSize=21;" parent="tUwKt1ka5wXuAgK51C4r-1" vertex="1">
          <mxGeometry x="285" y="260" width="110" height="30" as="geometry" />
        </mxCell>
        <mxCell id="tUwKt1ka5wXuAgK51C4r-9" style="edgeStyle=orthogonalEdgeStyle;rounded=0;orthogonalLoop=1;jettySize=auto;html=1;" parent="tUwKt1ka5wXuAgK51C4r-1" source="tUwKt1ka5wXuAgK51C4r-10" target="tUwKt1ka5wXuAgK51C4r-11" edge="1">
          <mxGeometry relative="1" as="geometry" />
        </mxCell>
        <mxCell id="tUwKt1ka5wXuAgK51C4r-10" value="3910 đặc trưng" style="ellipse;whiteSpace=wrap;html=1;fontSize=18;" parent="tUwKt1ka5wXuAgK51C4r-1" vertex="1">
          <mxGeometry x="520" y="430" width="160" height="80" as="geometry" />
        </mxCell>
        <mxCell id="tUwKt1ka5wXuAgK51C4r-11" value="Gán nhãn 0 - 1" style="rounded=0;whiteSpace=wrap;html=1;fontSize=18;" parent="tUwKt1ka5wXuAgK51C4r-1" vertex="1">
          <mxGeometry x="710" y="440" width="150" height="60" as="geometry" />
        </mxCell>
        <mxCell id="tUwKt1ka5wXuAgK51C4r-20" value="" style="endArrow=classic;html=1;rounded=0;exitX=1;exitY=0.5;exitDx=0;exitDy=0;entryX=0;entryY=0.5;entryDx=0;entryDy=0;" parent="tUwKt1ka5wXuAgK51C4r-1" source="tUwKt1ka5wXuAgK51C4r-11" edge="1">
          <mxGeometry width="50" height="50" relative="1" as="geometry">
            <mxPoint x="690" y="650" as="sourcePoint" />
            <mxPoint x="910" y="340" as="targetPoint" />
          </mxGeometry>
        </mxCell>
        <mxCell id="tUwKt1ka5wXuAgK51C4r-21" value="" style="endArrow=classic;html=1;rounded=0;exitX=1;exitY=0.5;exitDx=0;exitDy=0;entryX=0;entryY=0.5;entryDx=0;entryDy=0;" parent="tUwKt1ka5wXuAgK51C4r-1" source="tUwKt1ka5wXuAgK51C4r-11" edge="1">
          <mxGeometry width="50" height="50" relative="1" as="geometry">
            <mxPoint x="720" y="490" as="sourcePoint" />
            <mxPoint x="910" y="430" as="targetPoint" />
          </mxGeometry>
        </mxCell>
        <mxCell id="tUwKt1ka5wXuAgK51C4r-22" value="" style="endArrow=classic;html=1;rounded=0;exitX=1;exitY=0.5;exitDx=0;exitDy=0;entryX=0;entryY=0.5;entryDx=0;entryDy=0;" parent="tUwKt1ka5wXuAgK51C4r-1" source="tUwKt1ka5wXuAgK51C4r-11" edge="1">
          <mxGeometry width="50" height="50" relative="1" as="geometry">
            <mxPoint x="730" y="500" as="sourcePoint" />
            <mxPoint x="910" y="520" as="targetPoint" />
          </mxGeometry>
        </mxCell>
        <mxCell id="tUwKt1ka5wXuAgK51C4r-23" value="" style="endArrow=classic;html=1;rounded=0;exitX=1;exitY=0.5;exitDx=0;exitDy=0;entryX=0;entryY=0.5;entryDx=0;entryDy=0;" parent="tUwKt1ka5wXuAgK51C4r-1" source="tUwKt1ka5wXuAgK51C4r-11" edge="1">
          <mxGeometry width="50" height="50" relative="1" as="geometry">
            <mxPoint x="740" y="510" as="sourcePoint" />
            <mxPoint x="910" y="610" as="targetPoint" />
          </mxGeometry>
        </mxCell>
        <mxCell id="tUwKt1ka5wXuAgK51C4r-31" value="Bộ phân loại nhị phân 1" style="rounded=0;whiteSpace=wrap;html=1;fontSize=18;fillColor=#dae8fc;strokeColor=#6c8ebf;" parent="tUwKt1ka5wXuAgK51C4r-1" vertex="1">
          <mxGeometry x="910" y="308" width="150" height="60" as="geometry" />
        </mxCell>
        <mxCell id="tUwKt1ka5wXuAgK51C4r-32" value="Bộ phân loại nhị phân 2" style="rounded=0;whiteSpace=wrap;html=1;fontSize=18;fillColor=#dae8fc;strokeColor=#6c8ebf;" parent="tUwKt1ka5wXuAgK51C4r-1" vertex="1">
          <mxGeometry x="910" y="398" width="150" height="60" as="geometry" />
        </mxCell>
        <mxCell id="tUwKt1ka5wXuAgK51C4r-33" value="Bộ phân loại nhị phân 3" style="rounded=0;whiteSpace=wrap;html=1;fontSize=18;fillColor=#dae8fc;strokeColor=#6c8ebf;" parent="tUwKt1ka5wXuAgK51C4r-1" vertex="1">
          <mxGeometry x="910" y="488" width="150" height="60" as="geometry" />
        </mxCell>
        <mxCell id="tUwKt1ka5wXuAgK51C4r-34" value="Bộ phân loại nhị phân 4" style="rounded=0;whiteSpace=wrap;html=1;fontSize=18;fillColor=#dae8fc;strokeColor=#6c8ebf;" parent="tUwKt1ka5wXuAgK51C4r-1" vertex="1">
          <mxGeometry x="910" y="578" width="150" height="60" as="geometry" />
        </mxCell>
        <mxCell id="tUwKt1ka5wXuAgK51C4r-35" value="4 đặc trưng" style="ellipse;whiteSpace=wrap;html=1;fontSize=18;" parent="tUwKt1ka5wXuAgK51C4r-1" vertex="1">
          <mxGeometry x="1120" y="428" width="130" height="80" as="geometry" />
        </mxCell>
        <mxCell id="tUwKt1ka5wXuAgK51C4r-36" value="" style="endArrow=classic;html=1;rounded=0;exitX=1;exitY=0.5;exitDx=0;exitDy=0;entryX=0;entryY=0.5;entryDx=0;entryDy=0;" parent="tUwKt1ka5wXuAgK51C4r-1" source="tUwKt1ka5wXuAgK51C4r-31" target="tUwKt1ka5wXuAgK51C4r-35" edge="1">
          <mxGeometry width="50" height="50" relative="1" as="geometry">
            <mxPoint x="1020" y="268" as="sourcePoint" />
            <mxPoint x="1070" y="218" as="targetPoint" />
          </mxGeometry>
        </mxCell>
        <mxCell id="tUwKt1ka5wXuAgK51C4r-37" value="" style="endArrow=classic;html=1;rounded=0;exitX=1;exitY=0.5;exitDx=0;exitDy=0;entryX=0;entryY=0.5;entryDx=0;entryDy=0;" parent="tUwKt1ka5wXuAgK51C4r-1" source="tUwKt1ka5wXuAgK51C4r-32" target="tUwKt1ka5wXuAgK51C4r-35" edge="1">
          <mxGeometry width="50" height="50" relative="1" as="geometry">
            <mxPoint x="1030" y="278" as="sourcePoint" />
            <mxPoint x="1080" y="228" as="targetPoint" />
          </mxGeometry>
        </mxCell>
        <mxCell id="tUwKt1ka5wXuAgK51C4r-38" value="" style="endArrow=classic;html=1;rounded=0;exitX=1;exitY=0.5;exitDx=0;exitDy=0;entryX=0;entryY=0.5;entryDx=0;entryDy=0;" parent="tUwKt1ka5wXuAgK51C4r-1" source="tUwKt1ka5wXuAgK51C4r-33" target="tUwKt1ka5wXuAgK51C4r-35" edge="1">
          <mxGeometry width="50" height="50" relative="1" as="geometry">
            <mxPoint x="1040" y="288" as="sourcePoint" />
            <mxPoint x="1090" y="238" as="targetPoint" />
          </mxGeometry>
        </mxCell>
        <mxCell id="tUwKt1ka5wXuAgK51C4r-39" value="" style="endArrow=classic;html=1;rounded=0;exitX=1;exitY=0.5;exitDx=0;exitDy=0;" parent="tUwKt1ka5wXuAgK51C4r-1" source="tUwKt1ka5wXuAgK51C4r-34" edge="1">
          <mxGeometry width="50" height="50" relative="1" as="geometry">
            <mxPoint x="1050" y="298" as="sourcePoint" />
            <mxPoint x="1120" y="468" as="targetPoint" />
          </mxGeometry>
        </mxCell>
        <mxCell id="tUwKt1ka5wXuAgK51C4r-40" value="Giai đoạn 2" style="text;html=1;align=center;verticalAlign=middle;whiteSpace=wrap;rounded=0;fontSize=21;" parent="tUwKt1ka5wXuAgK51C4r-1" vertex="1">
          <mxGeometry x="835" y="260" width="110" height="30" as="geometry" />
        </mxCell>
      </root>
    </mxGraphModel>
  </diagram>
  <diagram id="4ezv6Xiatvx3KAmUjGja" name="Page-8">
    <mxGraphModel dx="2004" dy="1138" grid="1" gridSize="10" guides="1" tooltips="1" connect="1" arrows="1" fold="1" page="1" pageScale="1" pageWidth="850" pageHeight="1100" math="0" shadow="0">
      <root>
        <mxCell id="0" />
        <mxCell id="1" parent="0" />
        <mxCell id="nay4lhXAoz_D-pH7pmN9-1" value="" style="rounded=1;whiteSpace=wrap;html=1;fontSize=18;" parent="1" vertex="1">
          <mxGeometry x="265" y="250" width="785" height="520" as="geometry" />
        </mxCell>
        <mxCell id="JDMcARuWzn8aT4cfgUWV-1" value="4 đặc trưng" style="ellipse;whiteSpace=wrap;html=1;fontSize=18;" parent="1" vertex="1">
          <mxGeometry x="60" y="310" width="160" height="80" as="geometry" />
        </mxCell>
        <mxCell id="JDMcARuWzn8aT4cfgUWV-5" value="Nhóm TXT" style="swimlane;fontSize=18;startSize=40;" parent="1" vertex="1">
          <mxGeometry x="40" y="250" width="200" height="160" as="geometry" />
        </mxCell>
        <mxCell id="JDMcARuWzn8aT4cfgUWV-6" value="4 đặc trưng" style="ellipse;whiteSpace=wrap;html=1;fontSize=18;" parent="1" vertex="1">
          <mxGeometry x="60" y="490" width="160" height="80" as="geometry" />
        </mxCell>
        <mxCell id="JDMcARuWzn8aT4cfgUWV-7" value="Nhóm CT" style="swimlane;fontSize=18;startSize=40;" parent="1" vertex="1">
          <mxGeometry x="40" y="430" width="200" height="160" as="geometry" />
        </mxCell>
        <mxCell id="JDMcARuWzn8aT4cfgUWV-8" value="5 đặc trưng" style="ellipse;whiteSpace=wrap;html=1;fontSize=18;" parent="1" vertex="1">
          <mxGeometry x="60" y="670" width="160" height="80" as="geometry" />
        </mxCell>
        <mxCell id="JDMcARuWzn8aT4cfgUWV-9" value="Nhóm CH" style="swimlane;fontSize=18;startSize=40;" parent="1" vertex="1">
          <mxGeometry x="40" y="610" width="200" height="160" as="geometry" />
        </mxCell>
        <mxCell id="37Ez2B_Q_p96pFzNkjRY-10" style="edgeStyle=orthogonalEdgeStyle;rounded=0;orthogonalLoop=1;jettySize=auto;html=1;" parent="1" source="jXq2BxZcb7ACu5D3T2F0-1" target="9dbKjfrPd2EnHL-Y9kk9-5" edge="1">
          <mxGeometry relative="1" as="geometry" />
        </mxCell>
        <mxCell id="jXq2BxZcb7ACu5D3T2F0-1" value="Tổng hợp và chuẩn hóa dữ liệu" style="rounded=0;whiteSpace=wrap;html=1;fontSize=18;fillColor=#d5e8d4;strokeColor=#82b366;" parent="1" vertex="1">
          <mxGeometry x="320" y="490" width="180" height="80" as="geometry" />
        </mxCell>
        <mxCell id="9dbKjfrPd2EnHL-Y9kk9-2" value="" style="endArrow=classic;html=1;rounded=0;entryX=0;entryY=0.5;entryDx=0;entryDy=0;exitX=1;exitY=0.5;exitDx=0;exitDy=0;" parent="1" source="JDMcARuWzn8aT4cfgUWV-1" target="jXq2BxZcb7ACu5D3T2F0-1" edge="1">
          <mxGeometry width="50" height="50" relative="1" as="geometry">
            <mxPoint x="290" y="350" as="sourcePoint" />
            <mxPoint x="340" y="300" as="targetPoint" />
          </mxGeometry>
        </mxCell>
        <mxCell id="9dbKjfrPd2EnHL-Y9kk9-3" value="" style="endArrow=classic;html=1;rounded=0;entryX=0;entryY=0.5;entryDx=0;entryDy=0;exitX=1;exitY=0.5;exitDx=0;exitDy=0;" parent="1" source="JDMcARuWzn8aT4cfgUWV-6" target="jXq2BxZcb7ACu5D3T2F0-1" edge="1">
          <mxGeometry width="50" height="50" relative="1" as="geometry">
            <mxPoint x="230" y="360" as="sourcePoint" />
            <mxPoint x="360" y="540" as="targetPoint" />
          </mxGeometry>
        </mxCell>
        <mxCell id="9dbKjfrPd2EnHL-Y9kk9-4" value="" style="endArrow=classic;html=1;rounded=0;entryX=0;entryY=0.5;entryDx=0;entryDy=0;exitX=1;exitY=0.5;exitDx=0;exitDy=0;" parent="1" source="JDMcARuWzn8aT4cfgUWV-8" target="jXq2BxZcb7ACu5D3T2F0-1" edge="1">
          <mxGeometry width="50" height="50" relative="1" as="geometry">
            <mxPoint x="240" y="370" as="sourcePoint" />
            <mxPoint x="370" y="550" as="targetPoint" />
          </mxGeometry>
        </mxCell>
        <mxCell id="37Ez2B_Q_p96pFzNkjRY-9" style="edgeStyle=orthogonalEdgeStyle;rounded=0;orthogonalLoop=1;jettySize=auto;html=1;" parent="1" source="9dbKjfrPd2EnHL-Y9kk9-5" target="37Ez2B_Q_p96pFzNkjRY-1" edge="1">
          <mxGeometry relative="1" as="geometry" />
        </mxCell>
        <mxCell id="9dbKjfrPd2EnHL-Y9kk9-5" value="13 đặc trưng" style="ellipse;whiteSpace=wrap;html=1;fontSize=18;" parent="1" vertex="1">
          <mxGeometry x="540" y="490" width="160" height="80" as="geometry" />
        </mxCell>
        <mxCell id="37Ez2B_Q_p96pFzNkjRY-11" style="edgeStyle=orthogonalEdgeStyle;rounded=0;orthogonalLoop=1;jettySize=auto;html=1;" parent="1" source="37Ez2B_Q_p96pFzNkjRY-1" target="37Ez2B_Q_p96pFzNkjRY-2" edge="1">
          <mxGeometry relative="1" as="geometry" />
        </mxCell>
        <mxCell id="37Ez2B_Q_p96pFzNkjRY-1" value="Thuật toán phân loại đa lớp" style="rounded=0;whiteSpace=wrap;html=1;fontSize=18;fillColor=#e1d5e7;strokeColor=#9673a6;" parent="1" vertex="1">
          <mxGeometry x="730" y="480" width="120" height="100" as="geometry" />
        </mxCell>
        <mxCell id="37Ez2B_Q_p96pFzNkjRY-2" value="Dự đoán" style="swimlane;fontStyle=0;childLayout=stackLayout;horizontal=1;startSize=30;horizontalStack=0;resizeParent=1;resizeParentMax=0;resizeLast=0;collapsible=1;marginBottom=0;whiteSpace=wrap;html=1;fontSize=18;" parent="1" vertex="1">
          <mxGeometry x="890" y="425" width="125" height="210" as="geometry" />
        </mxCell>
        <mxCell id="37Ez2B_Q_p96pFzNkjRY-3" value="Pants on Fire" style="text;strokeColor=none;fillColor=none;align=left;verticalAlign=middle;spacingLeft=4;spacingRight=4;overflow=hidden;points=[[0,0.5],[1,0.5]];portConstraint=eastwest;rotatable=0;whiteSpace=wrap;html=1;fontSize=18;" parent="37Ez2B_Q_p96pFzNkjRY-2" vertex="1">
          <mxGeometry y="30" width="125" height="30" as="geometry" />
        </mxCell>
        <mxCell id="37Ez2B_Q_p96pFzNkjRY-4" value="False" style="text;strokeColor=none;fillColor=none;align=left;verticalAlign=middle;spacingLeft=4;spacingRight=4;overflow=hidden;points=[[0,0.5],[1,0.5]];portConstraint=eastwest;rotatable=0;whiteSpace=wrap;html=1;fontSize=18;" parent="37Ez2B_Q_p96pFzNkjRY-2" vertex="1">
          <mxGeometry y="60" width="125" height="30" as="geometry" />
        </mxCell>
        <mxCell id="37Ez2B_Q_p96pFzNkjRY-5" value="Barely True" style="text;align=left;verticalAlign=middle;spacingLeft=4;spacingRight=4;overflow=hidden;points=[[0,0.5],[1,0.5]];portConstraint=eastwest;rotatable=0;whiteSpace=wrap;html=1;fontSize=18;" parent="37Ez2B_Q_p96pFzNkjRY-2" vertex="1">
          <mxGeometry y="90" width="125" height="30" as="geometry" />
        </mxCell>
        <mxCell id="37Ez2B_Q_p96pFzNkjRY-6" value="Half True" style="text;strokeColor=none;fillColor=none;align=left;verticalAlign=middle;spacingLeft=4;spacingRight=4;overflow=hidden;points=[[0,0.5],[1,0.5]];portConstraint=eastwest;rotatable=0;whiteSpace=wrap;html=1;fontSize=18;" parent="37Ez2B_Q_p96pFzNkjRY-2" vertex="1">
          <mxGeometry y="120" width="125" height="30" as="geometry" />
        </mxCell>
        <mxCell id="37Ez2B_Q_p96pFzNkjRY-7" value="Mostly True" style="text;strokeColor=#b85450;fillColor=#f8cecc;align=left;verticalAlign=middle;spacingLeft=4;spacingRight=4;overflow=hidden;points=[[0,0.5],[1,0.5]];portConstraint=eastwest;rotatable=0;whiteSpace=wrap;html=1;fontSize=18;" parent="37Ez2B_Q_p96pFzNkjRY-2" vertex="1">
          <mxGeometry y="150" width="125" height="30" as="geometry" />
        </mxCell>
        <mxCell id="37Ez2B_Q_p96pFzNkjRY-8" value="True" style="text;strokeColor=none;fillColor=none;align=left;verticalAlign=middle;spacingLeft=4;spacingRight=4;overflow=hidden;points=[[0,0.5],[1,0.5]];portConstraint=eastwest;rotatable=0;whiteSpace=wrap;html=1;fontSize=18;" parent="37Ez2B_Q_p96pFzNkjRY-2" vertex="1">
          <mxGeometry y="180" width="125" height="30" as="geometry" />
        </mxCell>
        <mxCell id="nay4lhXAoz_D-pH7pmN9-2" value="Giai đoạn 3" style="text;html=1;align=center;verticalAlign=middle;whiteSpace=wrap;rounded=0;fontSize=24;fontStyle=1" parent="1" vertex="1">
          <mxGeometry x="577.5" y="290" width="160" height="30" as="geometry" />
        </mxCell>
      </root>
    </mxGraphModel>
  </diagram>
  <diagram id="vWhhAdLWSj4g4aO-ZY8_" name="Page-9">
    <mxGraphModel dx="3355" dy="2523" grid="1" gridSize="10" guides="1" tooltips="1" connect="1" arrows="1" fold="1" page="1" pageScale="1" pageWidth="850" pageHeight="1100" math="0" shadow="0">
      <root>
        <mxCell id="0" />
        <mxCell id="1" parent="0" />
        <mxCell id="RKz0FmBFEIF9uyN4CHtW-1" value="LIAR dataset" style="swimlane;childLayout=stackLayout;horizontal=1;startSize=50;horizontalStack=0;rounded=1;fontSize=18;fontStyle=0;strokeWidth=2;resizeParent=0;resizeLast=1;shadow=0;dashed=0;align=center;arcSize=4;whiteSpace=wrap;html=1;" parent="1" vertex="1">
          <mxGeometry x="320" y="-100" width="280" height="290" as="geometry" />
        </mxCell>
        <mxCell id="RKz0FmBFEIF9uyN4CHtW-2" value="&amp;nbsp;pants-fire&amp;nbsp; &amp;nbsp; :&amp;nbsp; 958&amp;nbsp; &amp;nbsp;mẫu dữ liệu&lt;div style=&quot;line-height: 230%;&quot;&gt;&amp;nbsp;false&amp;nbsp; &amp;nbsp; &amp;nbsp; &amp;nbsp; &amp;nbsp; &amp;nbsp; :&amp;nbsp; 2261 mẫu dữ liệu&lt;/div&gt;&lt;div style=&quot;line-height: 230%;&quot;&gt;&amp;nbsp;barely-true&amp;nbsp; :&amp;nbsp; 1894 mẫu dữ liệu&lt;/div&gt;&lt;div style=&quot;line-height: 230%;&quot;&gt;&amp;nbsp;half-true&amp;nbsp; &amp;nbsp; &amp;nbsp; :&amp;nbsp; 2371 mẫu dữ liệu&lt;/div&gt;&lt;div style=&quot;line-height: 230%;&quot;&gt;&amp;nbsp;mostly-true :&amp;nbsp; 2217 mẫu dữ liệu&lt;/div&gt;&lt;div style=&quot;line-height: 230%;&quot;&gt;&amp;nbsp;true&amp;nbsp; &amp;nbsp; &amp;nbsp; &amp;nbsp; &amp;nbsp; &amp;nbsp; &amp;nbsp;:&amp;nbsp; 1852 mẫu dữ liệu&lt;/div&gt;" style="align=left;strokeColor=none;fillColor=none;spacingLeft=4;fontSize=18;verticalAlign=top;resizable=0;rotatable=0;part=1;html=1;" parent="RKz0FmBFEIF9uyN4CHtW-1" vertex="1">
          <mxGeometry y="50" width="280" height="240" as="geometry" />
        </mxCell>
        <mxCell id="LNMb0hRTBXhXCmIy4zSk-1" value="Bộ dữ liệu 1" style="swimlane;childLayout=stackLayout;horizontal=1;startSize=50;horizontalStack=0;rounded=1;fontSize=18;fontStyle=0;strokeWidth=2;resizeParent=0;resizeLast=1;shadow=0;dashed=0;align=center;arcSize=4;whiteSpace=wrap;html=1;" parent="1" vertex="1">
          <mxGeometry x="-210" y="560" width="240" height="120" as="geometry" />
        </mxCell>
        <mxCell id="LNMb0hRTBXhXCmIy4zSk-2" value="&amp;nbsp;Nhãn 0 :&amp;nbsp; 3219 mẫu dữ liệu&lt;div style=&quot;line-height: 230%;&quot;&gt;&amp;nbsp;Nhãn 1 :&amp;nbsp; 8334 mẫu dữ liệu&lt;/div&gt;" style="align=left;strokeColor=none;fillColor=none;spacingLeft=4;fontSize=18;verticalAlign=top;resizable=0;rotatable=0;part=1;html=1;" parent="LNMb0hRTBXhXCmIy4zSk-1" vertex="1">
          <mxGeometry y="50" width="240" height="70" as="geometry" />
        </mxCell>
        <mxCell id="jyLAEAyYsrydO4PVtDaN-19" style="edgeStyle=orthogonalEdgeStyle;rounded=0;orthogonalLoop=1;jettySize=auto;html=1;" parent="1" source="jyLAEAyYsrydO4PVtDaN-1" target="LNMb0hRTBXhXCmIy4zSk-1" edge="1">
          <mxGeometry relative="1" as="geometry" />
        </mxCell>
        <mxCell id="jyLAEAyYsrydO4PVtDaN-1" value="Gán nhãn:&lt;br style=&quot;font-size: 19px;&quot;&gt;&lt;span lang=&quot;VI&quot; style=&quot;font-size: 19px;&quot;&gt;[&lt;i style=&quot;font-size: 19px;&quot;&gt;pants-fire, false&lt;/i&gt;] &lt;b&gt;: 0&lt;/b&gt;&lt;/span&gt;&lt;div style=&quot;font-size: 19px;&quot;&gt;&lt;span style=&quot;font-size: 19px;&quot;&gt;vs&lt;br style=&quot;font-size: 19px;&quot;&gt;&lt;/span&gt;&lt;div style=&quot;font-size: 19px;&quot;&gt;&lt;span lang=&quot;VI&quot; style=&quot;font-size: 19px;&quot;&gt;&lt;span lang=&quot;VI&quot; style=&quot;font-size: 19px;&quot;&gt;[&lt;i style=&quot;font-size: 19px;&quot;&gt;barely-true, half-true, mostly-true, true&lt;/i&gt;] &lt;b&gt;: 1&lt;/b&gt;&lt;/span&gt;&lt;br style=&quot;font-size: 19px;&quot;&gt;&lt;/span&gt;&lt;/div&gt;&lt;/div&gt;" style="rounded=0;whiteSpace=wrap;html=1;fontSize=19;fillColor=#d5e8d4;strokeColor=#82b366;" parent="1" vertex="1">
          <mxGeometry x="-270" y="336" width="360" height="120" as="geometry" />
        </mxCell>
        <mxCell id="jyLAEAyYsrydO4PVtDaN-8" value="Bộ dữ liệu 2" style="swimlane;childLayout=stackLayout;horizontal=1;startSize=50;horizontalStack=0;rounded=1;fontSize=18;fontStyle=0;strokeWidth=2;resizeParent=0;resizeLast=1;shadow=0;dashed=0;align=center;arcSize=4;whiteSpace=wrap;html=1;" parent="1" vertex="1">
          <mxGeometry x="160" y="560" width="240" height="120" as="geometry" />
        </mxCell>
        <mxCell id="jyLAEAyYsrydO4PVtDaN-9" value="&amp;nbsp;Nhãn 0 :&amp;nbsp; 4265 mẫu dữ liệu&lt;div style=&quot;line-height: 230%;&quot;&gt;&amp;nbsp;Nhãn 1 :&amp;nbsp; 7288 mẫu dữ liệu&lt;/div&gt;" style="align=left;strokeColor=none;fillColor=none;spacingLeft=4;fontSize=18;verticalAlign=top;resizable=0;rotatable=0;part=1;html=1;" parent="jyLAEAyYsrydO4PVtDaN-8" vertex="1">
          <mxGeometry y="50" width="240" height="70" as="geometry" />
        </mxCell>
        <mxCell id="jyLAEAyYsrydO4PVtDaN-18" style="edgeStyle=orthogonalEdgeStyle;rounded=0;orthogonalLoop=1;jettySize=auto;html=1;" parent="1" source="jyLAEAyYsrydO4PVtDaN-10" target="jyLAEAyYsrydO4PVtDaN-8" edge="1">
          <mxGeometry relative="1" as="geometry" />
        </mxCell>
        <mxCell id="jyLAEAyYsrydO4PVtDaN-10" value="Gán nhãn:&lt;br style=&quot;font-size: 19px;&quot;&gt;&lt;span lang=&quot;VI&quot; style=&quot;font-size: 19px;&quot;&gt;[&lt;i&gt;barely-true, half-true&lt;/i&gt;] &lt;b&gt;: 0&lt;/b&gt;&lt;/span&gt;&lt;div style=&quot;font-size: 19px;&quot;&gt;&lt;span style=&quot;font-size: 19px;&quot;&gt;vs&lt;br style=&quot;font-size: 19px;&quot;&gt;&lt;/span&gt;&lt;div style=&quot;font-size: 19px;&quot;&gt;&lt;span lang=&quot;VI&quot; style=&quot;font-size: 19px;&quot;&gt;&lt;span lang=&quot;VI&quot; style=&quot;font-size: 19px;&quot;&gt;[&lt;/span&gt;&lt;/span&gt;&lt;i style=&quot;background-color: initial;&quot;&gt;pants-fire, false,&lt;/i&gt;&lt;i style=&quot;background-color: initial;&quot;&gt;&amp;nbsp;mostly-true, true&lt;/i&gt;&lt;span style=&quot;background-color: initial;&quot;&gt;] &lt;/span&gt;&lt;b style=&quot;background-color: initial;&quot;&gt;: 1&lt;/b&gt;&lt;/div&gt;&lt;/div&gt;" style="rounded=0;whiteSpace=wrap;html=1;fontSize=19;fillColor=#d5e8d4;strokeColor=#82b366;" parent="1" vertex="1">
          <mxGeometry x="100" y="336" width="360" height="120" as="geometry" />
        </mxCell>
        <mxCell id="d4R9OJ4LSt4gF9EMKiAC-6" style="edgeStyle=orthogonalEdgeStyle;rounded=0;orthogonalLoop=1;jettySize=auto;html=1;" parent="1" source="jyLAEAyYsrydO4PVtDaN-11" target="d4R9OJ4LSt4gF9EMKiAC-4" edge="1">
          <mxGeometry relative="1" as="geometry" />
        </mxCell>
        <mxCell id="jyLAEAyYsrydO4PVtDaN-11" value="Bộ dữ liệu 3" style="swimlane;childLayout=stackLayout;horizontal=1;startSize=50;horizontalStack=0;rounded=1;fontSize=18;fontStyle=0;strokeWidth=2;resizeParent=0;resizeLast=1;shadow=0;dashed=0;align=center;arcSize=4;whiteSpace=wrap;html=1;" parent="1" vertex="1">
          <mxGeometry x="530" y="560" width="240" height="120" as="geometry" />
        </mxCell>
        <mxCell id="jyLAEAyYsrydO4PVtDaN-12" value="&amp;nbsp;Nhãn 0 :&amp;nbsp; 4069 mẫu dữ liệu&lt;div style=&quot;line-height: 230%;&quot;&gt;&amp;nbsp;Nhãn 1 :&amp;nbsp; 7484 mẫu dữ liệu&lt;/div&gt;" style="align=left;strokeColor=none;fillColor=none;spacingLeft=4;fontSize=18;verticalAlign=top;resizable=0;rotatable=0;part=1;html=1;" parent="jyLAEAyYsrydO4PVtDaN-11" vertex="1">
          <mxGeometry y="50" width="240" height="70" as="geometry" />
        </mxCell>
        <mxCell id="jyLAEAyYsrydO4PVtDaN-20" style="edgeStyle=orthogonalEdgeStyle;rounded=0;orthogonalLoop=1;jettySize=auto;html=1;" parent="1" source="jyLAEAyYsrydO4PVtDaN-13" target="jyLAEAyYsrydO4PVtDaN-11" edge="1">
          <mxGeometry relative="1" as="geometry" />
        </mxCell>
        <mxCell id="jyLAEAyYsrydO4PVtDaN-13" value="Gán nhãn:&lt;br style=&quot;font-size: 19px;&quot;&gt;&lt;span lang=&quot;VI&quot; style=&quot;font-size: 19px;&quot;&gt;[&lt;i style=&quot;background-color: initial;&quot;&gt;mostly-true, true&lt;/i&gt;] &lt;b&gt;: 0&lt;/b&gt;&lt;/span&gt;&lt;div style=&quot;font-size: 19px;&quot;&gt;&lt;span style=&quot;font-size: 19px;&quot;&gt;vs&lt;br style=&quot;font-size: 19px;&quot;&gt;&lt;/span&gt;&lt;div style=&quot;font-size: 19px;&quot;&gt;&lt;span lang=&quot;VI&quot; style=&quot;font-size: 19px;&quot;&gt;&lt;span lang=&quot;VI&quot; style=&quot;font-size: 19px;&quot;&gt;[&lt;/span&gt;&lt;/span&gt;&lt;i style=&quot;background-color: initial;&quot;&gt;pants-fire, false,&lt;/i&gt;&lt;i style=&quot;background-color: initial;&quot;&gt;&amp;nbsp;&lt;/i&gt;&lt;i style=&quot;background-color: initial;&quot;&gt;barely-true, half-true&lt;/i&gt;&lt;span style=&quot;background-color: initial;&quot;&gt;] &lt;/span&gt;&lt;b style=&quot;background-color: initial;&quot;&gt;: 1&lt;/b&gt;&lt;/div&gt;&lt;/div&gt;" style="rounded=0;whiteSpace=wrap;html=1;fontSize=19;fillColor=#d5e8d4;strokeColor=#82b366;" parent="1" vertex="1">
          <mxGeometry x="470" y="336" width="360" height="120" as="geometry" />
        </mxCell>
        <mxCell id="jyLAEAyYsrydO4PVtDaN-14" value="Bộ dữ liệu 4" style="swimlane;childLayout=stackLayout;horizontal=1;startSize=50;horizontalStack=0;rounded=1;fontSize=18;fontStyle=0;strokeWidth=2;resizeParent=0;resizeLast=1;shadow=0;dashed=0;align=center;arcSize=4;whiteSpace=wrap;html=1;" parent="1" vertex="1">
          <mxGeometry x="900" y="560" width="240" height="120" as="geometry" />
        </mxCell>
        <mxCell id="jyLAEAyYsrydO4PVtDaN-15" value="&amp;nbsp;Nhãn 0 :&amp;nbsp; 5113 mẫu dữ liệu&lt;div style=&quot;line-height: 230%;&quot;&gt;&amp;nbsp;Nhãn 1 :&amp;nbsp; 6440 mẫu dữ liệu&lt;/div&gt;" style="align=left;strokeColor=none;fillColor=none;spacingLeft=4;fontSize=18;verticalAlign=top;resizable=0;rotatable=0;part=1;html=1;" parent="jyLAEAyYsrydO4PVtDaN-14" vertex="1">
          <mxGeometry y="50" width="240" height="70" as="geometry" />
        </mxCell>
        <mxCell id="jyLAEAyYsrydO4PVtDaN-21" style="edgeStyle=orthogonalEdgeStyle;rounded=0;orthogonalLoop=1;jettySize=auto;html=1;" parent="1" source="jyLAEAyYsrydO4PVtDaN-17" target="jyLAEAyYsrydO4PVtDaN-14" edge="1">
          <mxGeometry relative="1" as="geometry" />
        </mxCell>
        <mxCell id="jyLAEAyYsrydO4PVtDaN-17" value="Gán nhãn:&lt;br style=&quot;font-size: 19px;&quot;&gt;&lt;span lang=&quot;VI&quot; style=&quot;font-size: 19px;&quot;&gt;[&lt;i style=&quot;font-size: 19px;&quot;&gt;pants-fire, false,&amp;nbsp;&lt;/i&gt;&lt;i&gt;barely-true&lt;/i&gt;] &lt;b&gt;: 0&lt;/b&gt;&lt;/span&gt;&lt;div style=&quot;font-size: 19px;&quot;&gt;&lt;span style=&quot;font-size: 19px;&quot;&gt;vs&lt;br style=&quot;font-size: 19px;&quot;&gt;&lt;/span&gt;&lt;div style=&quot;font-size: 19px;&quot;&gt;&lt;span lang=&quot;VI&quot; style=&quot;font-size: 19px;&quot;&gt;&lt;span lang=&quot;VI&quot; style=&quot;font-size: 19px;&quot;&gt;[&lt;i style=&quot;font-size: 19px;&quot;&gt;half-true, mostly-true, true&lt;/i&gt;] &lt;b&gt;: 1&lt;/b&gt;&lt;/span&gt;&lt;br style=&quot;font-size: 19px;&quot;&gt;&lt;/span&gt;&lt;/div&gt;&lt;/div&gt;" style="rounded=0;whiteSpace=wrap;html=1;fontSize=19;fillColor=#d5e8d4;strokeColor=#82b366;" parent="1" vertex="1">
          <mxGeometry x="840" y="336" width="360" height="120" as="geometry" />
        </mxCell>
        <mxCell id="d4R9OJ4LSt4gF9EMKiAC-1" value="Bộ phân loại nhị phân 1" style="rounded=0;whiteSpace=wrap;html=1;fontSize=19;fillColor=#dae8fc;strokeColor=#6c8ebf;" parent="1" vertex="1">
          <mxGeometry x="-197.5" y="774" width="215" height="90" as="geometry" />
        </mxCell>
        <mxCell id="d4R9OJ4LSt4gF9EMKiAC-2" style="edgeStyle=orthogonalEdgeStyle;rounded=0;orthogonalLoop=1;jettySize=auto;html=1;" parent="1" source="LNMb0hRTBXhXCmIy4zSk-2" target="d4R9OJ4LSt4gF9EMKiAC-1" edge="1">
          <mxGeometry relative="1" as="geometry" />
        </mxCell>
        <mxCell id="d4R9OJ4LSt4gF9EMKiAC-3" value="Bộ phân loại nhị phân 2" style="rounded=0;whiteSpace=wrap;html=1;fontSize=19;fillColor=#dae8fc;strokeColor=#6c8ebf;" parent="1" vertex="1">
          <mxGeometry x="172.5" y="774" width="215" height="90" as="geometry" />
        </mxCell>
        <mxCell id="d4R9OJ4LSt4gF9EMKiAC-4" value="Bộ phân loại nhị phân 3" style="rounded=0;whiteSpace=wrap;html=1;fontSize=19;fillColor=#dae8fc;strokeColor=#6c8ebf;" parent="1" vertex="1">
          <mxGeometry x="542.5" y="774" width="215" height="90" as="geometry" />
        </mxCell>
        <mxCell id="d4R9OJ4LSt4gF9EMKiAC-5" value="Bộ phân loại nhị phân 4" style="rounded=0;whiteSpace=wrap;html=1;fontSize=19;fillColor=#dae8fc;strokeColor=#6c8ebf;" parent="1" vertex="1">
          <mxGeometry x="912.5" y="774" width="215" height="90" as="geometry" />
        </mxCell>
        <mxCell id="d4R9OJ4LSt4gF9EMKiAC-7" style="edgeStyle=orthogonalEdgeStyle;rounded=0;orthogonalLoop=1;jettySize=auto;html=1;" parent="1" source="jyLAEAyYsrydO4PVtDaN-15" target="d4R9OJ4LSt4gF9EMKiAC-5" edge="1">
          <mxGeometry relative="1" as="geometry" />
        </mxCell>
        <mxCell id="d4R9OJ4LSt4gF9EMKiAC-8" style="edgeStyle=orthogonalEdgeStyle;rounded=0;orthogonalLoop=1;jettySize=auto;html=1;" parent="1" source="jyLAEAyYsrydO4PVtDaN-9" target="d4R9OJ4LSt4gF9EMKiAC-3" edge="1">
          <mxGeometry relative="1" as="geometry" />
        </mxCell>
        <mxCell id="d4R9OJ4LSt4gF9EMKiAC-10" value="" style="endArrow=classic;html=1;rounded=0;exitX=0.5;exitY=1;exitDx=0;exitDy=0;entryX=0.5;entryY=0;entryDx=0;entryDy=0;" parent="1" source="RKz0FmBFEIF9uyN4CHtW-2" target="jyLAEAyYsrydO4PVtDaN-1" edge="1">
          <mxGeometry width="50" height="50" relative="1" as="geometry">
            <mxPoint x="210" y="110" as="sourcePoint" />
            <mxPoint x="160" y="150" as="targetPoint" />
          </mxGeometry>
        </mxCell>
        <mxCell id="d4R9OJ4LSt4gF9EMKiAC-11" value="" style="endArrow=classic;html=1;rounded=0;entryX=0.5;entryY=0;entryDx=0;entryDy=0;exitX=0.5;exitY=1;exitDx=0;exitDy=0;" parent="1" source="RKz0FmBFEIF9uyN4CHtW-2" target="jyLAEAyYsrydO4PVtDaN-10" edge="1">
          <mxGeometry width="50" height="50" relative="1" as="geometry">
            <mxPoint x="500" y="300" as="sourcePoint" />
            <mxPoint x="170" y="160" as="targetPoint" />
          </mxGeometry>
        </mxCell>
        <mxCell id="d4R9OJ4LSt4gF9EMKiAC-12" value="" style="endArrow=classic;html=1;rounded=0;exitX=0.5;exitY=1;exitDx=0;exitDy=0;entryX=0.5;entryY=0;entryDx=0;entryDy=0;" parent="1" source="RKz0FmBFEIF9uyN4CHtW-2" target="jyLAEAyYsrydO4PVtDaN-13" edge="1">
          <mxGeometry width="50" height="50" relative="1" as="geometry">
            <mxPoint x="210" y="110" as="sourcePoint" />
            <mxPoint x="160" y="150" as="targetPoint" />
          </mxGeometry>
        </mxCell>
        <mxCell id="d4R9OJ4LSt4gF9EMKiAC-13" value="" style="endArrow=classic;html=1;rounded=0;entryX=0.5;entryY=0;entryDx=0;entryDy=0;exitX=0.5;exitY=1;exitDx=0;exitDy=0;" parent="1" source="RKz0FmBFEIF9uyN4CHtW-2" target="jyLAEAyYsrydO4PVtDaN-17" edge="1">
          <mxGeometry width="50" height="50" relative="1" as="geometry">
            <mxPoint x="220" y="120" as="sourcePoint" />
            <mxPoint x="860" y="330" as="targetPoint" />
          </mxGeometry>
        </mxCell>
      </root>
    </mxGraphModel>
  </diagram>
  <diagram id="Batv3hfwSVdy7I6ZrpdX" name="Page-10">
    <mxGraphModel dx="1336" dy="759" grid="1" gridSize="10" guides="1" tooltips="1" connect="1" arrows="1" fold="1" page="1" pageScale="1" pageWidth="850" pageHeight="1100" math="0" shadow="0">
      <root>
        <mxCell id="0" />
        <mxCell id="1" parent="0" />
        <mxCell id="oupra39vYaJlAKvk8l0I-1" value="" style="rounded=1;whiteSpace=wrap;html=1;fontSize=18;" vertex="1" parent="1">
          <mxGeometry x="310" y="360" width="310" height="520" as="geometry" />
        </mxCell>
        <mxCell id="oupra39vYaJlAKvk8l0I-2" value="LIAR dataset" style="ellipse;whiteSpace=wrap;html=1;fontSize=18;" vertex="1" parent="1">
          <mxGeometry x="330" y="590" width="120" height="80" as="geometry" />
        </mxCell>
        <mxCell id="oupra39vYaJlAKvk8l0I-3" value="&lt;div&gt;statement&lt;/div&gt;(TXT)" style="rounded=0;whiteSpace=wrap;html=1;fontSize=18;fillColor=#d5e8d4;strokeColor=#82b366;" vertex="1" parent="1">
          <mxGeometry x="480" y="440" width="120" height="60" as="geometry" />
        </mxCell>
        <mxCell id="oupra39vYaJlAKvk8l0I-4" value="textual feature (CT)" style="rounded=0;whiteSpace=wrap;html=1;fontSize=18;fillColor=#d5e8d4;strokeColor=#82b366;" vertex="1" parent="1">
          <mxGeometry x="480" y="600" width="120" height="60" as="geometry" />
        </mxCell>
        <mxCell id="oupra39vYaJlAKvk8l0I-5" value="numeric feature (CH)" style="rounded=0;whiteSpace=wrap;html=1;fontSize=18;fillColor=#d5e8d4;strokeColor=#82b366;" vertex="1" parent="1">
          <mxGeometry x="480" y="770" width="120" height="60" as="geometry" />
        </mxCell>
        <mxCell id="oupra39vYaJlAKvk8l0I-6" value="" style="endArrow=classic;html=1;rounded=0;entryX=0;entryY=0.5;entryDx=0;entryDy=0;fontSize=18;" edge="1" parent="1" source="oupra39vYaJlAKvk8l0I-2" target="oupra39vYaJlAKvk8l0I-3">
          <mxGeometry width="50" height="50" relative="1" as="geometry">
            <mxPoint x="640" y="740" as="sourcePoint" />
            <mxPoint x="690" y="690" as="targetPoint" />
          </mxGeometry>
        </mxCell>
        <mxCell id="oupra39vYaJlAKvk8l0I-7" value="" style="endArrow=classic;html=1;rounded=0;fontSize=18;" edge="1" parent="1" source="oupra39vYaJlAKvk8l0I-2" target="oupra39vYaJlAKvk8l0I-4">
          <mxGeometry width="50" height="50" relative="1" as="geometry">
            <mxPoint x="428" y="659" as="sourcePoint" />
            <mxPoint x="513" y="590" as="targetPoint" />
          </mxGeometry>
        </mxCell>
        <mxCell id="oupra39vYaJlAKvk8l0I-8" value="" style="endArrow=classic;html=1;rounded=0;entryX=0;entryY=0.5;entryDx=0;entryDy=0;fontSize=18;" edge="1" parent="1" source="oupra39vYaJlAKvk8l0I-2" target="oupra39vYaJlAKvk8l0I-5">
          <mxGeometry width="50" height="50" relative="1" as="geometry">
            <mxPoint x="438" y="669" as="sourcePoint" />
            <mxPoint x="523" y="600" as="targetPoint" />
          </mxGeometry>
        </mxCell>
        <mxCell id="oupra39vYaJlAKvk8l0I-9" value="Phase 1" style="text;html=1;align=center;verticalAlign=middle;whiteSpace=wrap;rounded=0;fontSize=21;" vertex="1" parent="1">
          <mxGeometry x="410" y="380" width="110" height="30" as="geometry" />
        </mxCell>
        <mxCell id="oupra39vYaJlAKvk8l0I-10" value="" style="rounded=1;whiteSpace=wrap;html=1;fontSize=18;" vertex="1" parent="1">
          <mxGeometry x="650" y="360" width="330" height="520" as="geometry" />
        </mxCell>
        <mxCell id="oupra39vYaJlAKvk8l0I-11" value="Phase 2" style="text;html=1;align=center;verticalAlign=middle;whiteSpace=wrap;rounded=0;fontSize=21;" vertex="1" parent="1">
          <mxGeometry x="760" y="380" width="110" height="30" as="geometry" />
        </mxCell>
        <mxCell id="oupra39vYaJlAKvk8l0I-12" style="edgeStyle=orthogonalEdgeStyle;rounded=0;orthogonalLoop=1;jettySize=auto;html=1;fontSize=18;" edge="1" parent="1" source="oupra39vYaJlAKvk8l0I-3" target="oupra39vYaJlAKvk8l0I-15">
          <mxGeometry relative="1" as="geometry">
            <mxPoint x="680" y="590.04" as="targetPoint" />
          </mxGeometry>
        </mxCell>
        <mxCell id="oupra39vYaJlAKvk8l0I-13" value="Binary Classifiers" style="rounded=0;whiteSpace=wrap;html=1;fontSize=18;fillColor=#dae8fc;strokeColor=#6c8ebf;" vertex="1" parent="1">
          <mxGeometry x="830" y="430" width="120" height="170" as="geometry" />
        </mxCell>
        <mxCell id="oupra39vYaJlAKvk8l0I-14" style="edgeStyle=orthogonalEdgeStyle;rounded=0;orthogonalLoop=1;jettySize=auto;html=1;fontSize=18;" edge="1" parent="1" source="oupra39vYaJlAKvk8l0I-15" target="oupra39vYaJlAKvk8l0I-13">
          <mxGeometry relative="1" as="geometry" />
        </mxCell>
        <mxCell id="oupra39vYaJlAKvk8l0I-15" value="Fuzzifiers" style="rounded=0;whiteSpace=wrap;html=1;fontSize=18;fillColor=#ffe6cc;strokeColor=#d79b00;" vertex="1" parent="1">
          <mxGeometry x="670" y="420" width="120" height="100" as="geometry" />
        </mxCell>
        <mxCell id="oupra39vYaJlAKvk8l0I-16" value="Binary Classifiers" style="rounded=0;whiteSpace=wrap;html=1;fontSize=18;fillColor=#dae8fc;strokeColor=#6c8ebf;" vertex="1" parent="1">
          <mxGeometry x="830" y="620" width="120" height="170" as="geometry" />
        </mxCell>
        <mxCell id="oupra39vYaJlAKvk8l0I-17" value="" style="rounded=1;whiteSpace=wrap;html=1;fontSize=18;" vertex="1" parent="1">
          <mxGeometry x="1000" y="360" width="410" height="520" as="geometry" />
        </mxCell>
        <mxCell id="oupra39vYaJlAKvk8l0I-18" value="Phase 3" style="text;html=1;align=center;verticalAlign=middle;whiteSpace=wrap;rounded=0;fontSize=21;" vertex="1" parent="1">
          <mxGeometry x="1150" y="380" width="110" height="30" as="geometry" />
        </mxCell>
        <mxCell id="oupra39vYaJlAKvk8l0I-19" style="edgeStyle=orthogonalEdgeStyle;rounded=0;orthogonalLoop=1;jettySize=auto;html=1;fontSize=18;" edge="1" parent="1" source="oupra39vYaJlAKvk8l0I-20" target="oupra39vYaJlAKvk8l0I-24">
          <mxGeometry relative="1" as="geometry" />
        </mxCell>
        <mxCell id="oupra39vYaJlAKvk8l0I-20" value="Multi-class Classifier" style="rounded=0;whiteSpace=wrap;html=1;fontSize=18;fillColor=#e1d5e7;strokeColor=#9673a6;" vertex="1" parent="1">
          <mxGeometry x="1120" y="580" width="120" height="100" as="geometry" />
        </mxCell>
        <mxCell id="oupra39vYaJlAKvk8l0I-21" style="edgeStyle=orthogonalEdgeStyle;rounded=0;orthogonalLoop=1;jettySize=auto;html=1;fontSize=18;" edge="1" parent="1" source="oupra39vYaJlAKvk8l0I-22" target="oupra39vYaJlAKvk8l0I-20">
          <mxGeometry relative="1" as="geometry" />
        </mxCell>
        <mxCell id="oupra39vYaJlAKvk8l0I-22" value="Merge data" style="rounded=0;whiteSpace=wrap;html=1;fontSize=18;fillColor=#d5e8d4;strokeColor=#82b366;" vertex="1" parent="1">
          <mxGeometry x="1030" y="420" width="60" height="420" as="geometry" />
        </mxCell>
        <mxCell id="oupra39vYaJlAKvk8l0I-23" style="edgeStyle=orthogonalEdgeStyle;rounded=0;orthogonalLoop=1;jettySize=auto;html=1;entryX=0.017;entryY=0.908;entryDx=0;entryDy=0;entryPerimeter=0;fontSize=18;" edge="1" parent="1" source="oupra39vYaJlAKvk8l0I-5" target="oupra39vYaJlAKvk8l0I-22">
          <mxGeometry relative="1" as="geometry">
            <Array as="points">
              <mxPoint x="710" y="801" />
              <mxPoint x="710" y="801" />
            </Array>
          </mxGeometry>
        </mxCell>
        <mxCell id="oupra39vYaJlAKvk8l0I-24" value="Prediction" style="swimlane;fontStyle=0;childLayout=stackLayout;horizontal=1;startSize=30;horizontalStack=0;resizeParent=1;resizeParentMax=0;resizeLast=0;collapsible=1;marginBottom=0;whiteSpace=wrap;html=1;fontSize=18;" vertex="1" parent="1">
          <mxGeometry x="1260" y="525" width="125" height="210" as="geometry" />
        </mxCell>
        <mxCell id="oupra39vYaJlAKvk8l0I-25" value="Pants on Fire" style="text;strokeColor=none;fillColor=none;align=left;verticalAlign=middle;spacingLeft=4;spacingRight=4;overflow=hidden;points=[[0,0.5],[1,0.5]];portConstraint=eastwest;rotatable=0;whiteSpace=wrap;html=1;fontSize=18;" vertex="1" parent="oupra39vYaJlAKvk8l0I-24">
          <mxGeometry y="30" width="125" height="30" as="geometry" />
        </mxCell>
        <mxCell id="oupra39vYaJlAKvk8l0I-26" value="False" style="text;strokeColor=none;fillColor=none;align=left;verticalAlign=middle;spacingLeft=4;spacingRight=4;overflow=hidden;points=[[0,0.5],[1,0.5]];portConstraint=eastwest;rotatable=0;whiteSpace=wrap;html=1;fontSize=18;" vertex="1" parent="oupra39vYaJlAKvk8l0I-24">
          <mxGeometry y="60" width="125" height="30" as="geometry" />
        </mxCell>
        <mxCell id="oupra39vYaJlAKvk8l0I-27" value="Barely True" style="text;align=left;verticalAlign=middle;spacingLeft=4;spacingRight=4;overflow=hidden;points=[[0,0.5],[1,0.5]];portConstraint=eastwest;rotatable=0;whiteSpace=wrap;html=1;fontSize=18;" vertex="1" parent="oupra39vYaJlAKvk8l0I-24">
          <mxGeometry y="90" width="125" height="30" as="geometry" />
        </mxCell>
        <mxCell id="oupra39vYaJlAKvk8l0I-28" value="Half True" style="text;strokeColor=none;fillColor=none;align=left;verticalAlign=middle;spacingLeft=4;spacingRight=4;overflow=hidden;points=[[0,0.5],[1,0.5]];portConstraint=eastwest;rotatable=0;whiteSpace=wrap;html=1;fontSize=18;" vertex="1" parent="oupra39vYaJlAKvk8l0I-24">
          <mxGeometry y="120" width="125" height="30" as="geometry" />
        </mxCell>
        <mxCell id="oupra39vYaJlAKvk8l0I-29" value="Mostly True" style="text;strokeColor=#b85450;fillColor=#f8cecc;align=left;verticalAlign=middle;spacingLeft=4;spacingRight=4;overflow=hidden;points=[[0,0.5],[1,0.5]];portConstraint=eastwest;rotatable=0;whiteSpace=wrap;html=1;fontSize=18;" vertex="1" parent="oupra39vYaJlAKvk8l0I-24">
          <mxGeometry y="150" width="125" height="30" as="geometry" />
        </mxCell>
        <mxCell id="oupra39vYaJlAKvk8l0I-30" value="True" style="text;strokeColor=none;fillColor=none;align=left;verticalAlign=middle;spacingLeft=4;spacingRight=4;overflow=hidden;points=[[0,0.5],[1,0.5]];portConstraint=eastwest;rotatable=0;whiteSpace=wrap;html=1;fontSize=18;" vertex="1" parent="oupra39vYaJlAKvk8l0I-24">
          <mxGeometry y="180" width="125" height="30" as="geometry" />
        </mxCell>
        <mxCell id="oupra39vYaJlAKvk8l0I-31" style="edgeStyle=orthogonalEdgeStyle;rounded=0;orthogonalLoop=1;jettySize=auto;html=1;fontSize=18;" edge="1" parent="1" source="oupra39vYaJlAKvk8l0I-4" target="oupra39vYaJlAKvk8l0I-16">
          <mxGeometry relative="1" as="geometry" />
        </mxCell>
        <mxCell id="oupra39vYaJlAKvk8l0I-32" style="edgeStyle=orthogonalEdgeStyle;rounded=0;orthogonalLoop=1;jettySize=auto;html=1;entryX=0.05;entryY=0.226;entryDx=0;entryDy=0;entryPerimeter=0;fontSize=18;" edge="1" parent="1" source="oupra39vYaJlAKvk8l0I-13" target="oupra39vYaJlAKvk8l0I-22">
          <mxGeometry relative="1" as="geometry" />
        </mxCell>
        <mxCell id="oupra39vYaJlAKvk8l0I-33" style="edgeStyle=orthogonalEdgeStyle;rounded=0;orthogonalLoop=1;jettySize=auto;html=1;entryX=-0.017;entryY=0.678;entryDx=0;entryDy=0;entryPerimeter=0;fontSize=18;" edge="1" parent="1" source="oupra39vYaJlAKvk8l0I-16" target="oupra39vYaJlAKvk8l0I-22">
          <mxGeometry relative="1" as="geometry" />
        </mxCell>
      </root>
    </mxGraphModel>
  </diagram>
  <diagram id="tSJQI8j9_ZV5eUUtIBuk" name="Page-11">
    <mxGraphModel dx="1670" dy="948" grid="1" gridSize="10" guides="1" tooltips="1" connect="1" arrows="1" fold="1" page="1" pageScale="1" pageWidth="850" pageHeight="1100" math="0" shadow="0">
      <root>
        <mxCell id="0" />
        <mxCell id="1" parent="0" />
        <mxCell id="uz-SUO77uqsOUi8HKxff-41" value="" style="rounded=1;whiteSpace=wrap;html=1;fontSize=18;" vertex="1" parent="1">
          <mxGeometry x="700" y="260" width="740" height="410" as="geometry" />
        </mxCell>
        <mxCell id="uz-SUO77uqsOUi8HKxff-42" value="" style="rounded=1;whiteSpace=wrap;html=1;fontSize=18;" vertex="1" parent="1">
          <mxGeometry x="190" y="260" width="320" height="410" as="geometry" />
        </mxCell>
        <mxCell id="uz-SUO77uqsOUi8HKxff-43" value="TXT" style="ellipse;whiteSpace=wrap;html=1;fontSize=18;" vertex="1" parent="1">
          <mxGeometry x="200" y="440" width="120" height="80" as="geometry" />
        </mxCell>
        <mxCell id="uz-SUO77uqsOUi8HKxff-44" style="edgeStyle=orthogonalEdgeStyle;rounded=0;orthogonalLoop=1;jettySize=auto;html=1;" edge="1" parent="1" source="uz-SUO77uqsOUi8HKxff-45" target="uz-SUO77uqsOUi8HKxff-49">
          <mxGeometry relative="1" as="geometry" />
        </mxCell>
        <mxCell id="uz-SUO77uqsOUi8HKxff-45" value="preprocessing,&lt;div&gt;vectorization&lt;/div&gt;" style="rounded=0;whiteSpace=wrap;html=1;fontSize=18;fillColor=#d5e8d4;strokeColor=#82b366;" vertex="1" parent="1">
          <mxGeometry x="350" y="450" width="150" height="60" as="geometry" />
        </mxCell>
        <mxCell id="uz-SUO77uqsOUi8HKxff-46" value="" style="endArrow=classic;html=1;rounded=0;entryX=0;entryY=0.5;entryDx=0;entryDy=0;fontSize=18;" edge="1" parent="1" source="uz-SUO77uqsOUi8HKxff-43" target="uz-SUO77uqsOUi8HKxff-45">
          <mxGeometry width="50" height="50" relative="1" as="geometry">
            <mxPoint x="650" y="750" as="sourcePoint" />
            <mxPoint x="700" y="700" as="targetPoint" />
          </mxGeometry>
        </mxCell>
        <mxCell id="uz-SUO77uqsOUi8HKxff-47" value="Phase 1" style="text;html=1;align=center;verticalAlign=middle;whiteSpace=wrap;rounded=0;fontSize=21;" vertex="1" parent="1">
          <mxGeometry x="295" y="288" width="110" height="30" as="geometry" />
        </mxCell>
        <mxCell id="uz-SUO77uqsOUi8HKxff-48" style="edgeStyle=orthogonalEdgeStyle;rounded=0;orthogonalLoop=1;jettySize=auto;html=1;" edge="1" parent="1" source="uz-SUO77uqsOUi8HKxff-49" target="uz-SUO77uqsOUi8HKxff-50">
          <mxGeometry relative="1" as="geometry" />
        </mxCell>
        <mxCell id="uz-SUO77uqsOUi8HKxff-49" value="13957 features" style="ellipse;whiteSpace=wrap;html=1;fontSize=18;" vertex="1" parent="1">
          <mxGeometry x="530" y="440" width="160" height="80" as="geometry" />
        </mxCell>
        <mxCell id="uz-SUO77uqsOUi8HKxff-50" value="relabel: 0 - 1" style="rounded=0;whiteSpace=wrap;html=1;fontSize=18;" vertex="1" parent="1">
          <mxGeometry x="720" y="450" width="150" height="60" as="geometry" />
        </mxCell>
        <mxCell id="uz-SUO77uqsOUi8HKxff-51" style="edgeStyle=orthogonalEdgeStyle;rounded=0;orthogonalLoop=1;jettySize=auto;html=1;" edge="1" parent="1" source="uz-SUO77uqsOUi8HKxff-52" target="uz-SUO77uqsOUi8HKxff-64">
          <mxGeometry relative="1" as="geometry" />
        </mxCell>
        <mxCell id="uz-SUO77uqsOUi8HKxff-52" value="Fuzzifier 1" style="rounded=0;whiteSpace=wrap;html=1;fontSize=18;fillColor=#ffe6cc;strokeColor=#d79b00;" vertex="1" parent="1">
          <mxGeometry x="920" y="320" width="150" height="60" as="geometry" />
        </mxCell>
        <mxCell id="uz-SUO77uqsOUi8HKxff-53" style="edgeStyle=orthogonalEdgeStyle;rounded=0;orthogonalLoop=1;jettySize=auto;html=1;" edge="1" parent="1" source="uz-SUO77uqsOUi8HKxff-54" target="uz-SUO77uqsOUi8HKxff-66">
          <mxGeometry relative="1" as="geometry" />
        </mxCell>
        <mxCell id="uz-SUO77uqsOUi8HKxff-54" value="Fuzzifier 2" style="rounded=0;whiteSpace=wrap;html=1;fontSize=18;fillColor=#ffe6cc;strokeColor=#d79b00;" vertex="1" parent="1">
          <mxGeometry x="920" y="410" width="150" height="60" as="geometry" />
        </mxCell>
        <mxCell id="uz-SUO77uqsOUi8HKxff-55" style="edgeStyle=orthogonalEdgeStyle;rounded=0;orthogonalLoop=1;jettySize=auto;html=1;" edge="1" parent="1" source="uz-SUO77uqsOUi8HKxff-56" target="uz-SUO77uqsOUi8HKxff-68">
          <mxGeometry relative="1" as="geometry" />
        </mxCell>
        <mxCell id="uz-SUO77uqsOUi8HKxff-56" value="Fuzzifier 3" style="rounded=0;whiteSpace=wrap;html=1;fontSize=18;fillColor=#ffe6cc;strokeColor=#d79b00;" vertex="1" parent="1">
          <mxGeometry x="920" y="500" width="150" height="60" as="geometry" />
        </mxCell>
        <mxCell id="uz-SUO77uqsOUi8HKxff-57" style="edgeStyle=orthogonalEdgeStyle;rounded=0;orthogonalLoop=1;jettySize=auto;html=1;" edge="1" parent="1" source="uz-SUO77uqsOUi8HKxff-58" target="uz-SUO77uqsOUi8HKxff-70">
          <mxGeometry relative="1" as="geometry" />
        </mxCell>
        <mxCell id="uz-SUO77uqsOUi8HKxff-58" value="Fuzzifier 4" style="rounded=0;whiteSpace=wrap;html=1;fontSize=18;fillColor=#ffe6cc;strokeColor=#d79b00;" vertex="1" parent="1">
          <mxGeometry x="920" y="590" width="150" height="60" as="geometry" />
        </mxCell>
        <mxCell id="uz-SUO77uqsOUi8HKxff-59" value="" style="endArrow=classic;html=1;rounded=0;exitX=1;exitY=0.5;exitDx=0;exitDy=0;entryX=0;entryY=0.5;entryDx=0;entryDy=0;" edge="1" parent="1" source="uz-SUO77uqsOUi8HKxff-50" target="uz-SUO77uqsOUi8HKxff-52">
          <mxGeometry width="50" height="50" relative="1" as="geometry">
            <mxPoint x="700" y="660" as="sourcePoint" />
            <mxPoint x="750" y="610" as="targetPoint" />
          </mxGeometry>
        </mxCell>
        <mxCell id="uz-SUO77uqsOUi8HKxff-60" value="" style="endArrow=classic;html=1;rounded=0;exitX=1;exitY=0.5;exitDx=0;exitDy=0;entryX=0;entryY=0.5;entryDx=0;entryDy=0;" edge="1" parent="1" source="uz-SUO77uqsOUi8HKxff-50" target="uz-SUO77uqsOUi8HKxff-54">
          <mxGeometry width="50" height="50" relative="1" as="geometry">
            <mxPoint x="730" y="500" as="sourcePoint" />
            <mxPoint x="770" y="630" as="targetPoint" />
          </mxGeometry>
        </mxCell>
        <mxCell id="uz-SUO77uqsOUi8HKxff-61" value="" style="endArrow=classic;html=1;rounded=0;exitX=1;exitY=0.5;exitDx=0;exitDy=0;entryX=0;entryY=0.5;entryDx=0;entryDy=0;" edge="1" parent="1" source="uz-SUO77uqsOUi8HKxff-50" target="uz-SUO77uqsOUi8HKxff-56">
          <mxGeometry width="50" height="50" relative="1" as="geometry">
            <mxPoint x="740" y="510" as="sourcePoint" />
            <mxPoint x="780" y="640" as="targetPoint" />
          </mxGeometry>
        </mxCell>
        <mxCell id="uz-SUO77uqsOUi8HKxff-62" value="" style="endArrow=classic;html=1;rounded=0;exitX=1;exitY=0.5;exitDx=0;exitDy=0;entryX=0;entryY=0.5;entryDx=0;entryDy=0;" edge="1" parent="1" source="uz-SUO77uqsOUi8HKxff-50" target="uz-SUO77uqsOUi8HKxff-58">
          <mxGeometry width="50" height="50" relative="1" as="geometry">
            <mxPoint x="750" y="520" as="sourcePoint" />
            <mxPoint x="790" y="650" as="targetPoint" />
          </mxGeometry>
        </mxCell>
        <mxCell id="uz-SUO77uqsOUi8HKxff-63" style="edgeStyle=orthogonalEdgeStyle;rounded=0;orthogonalLoop=1;jettySize=auto;html=1;" edge="1" parent="1" source="uz-SUO77uqsOUi8HKxff-64" target="uz-SUO77uqsOUi8HKxff-71">
          <mxGeometry relative="1" as="geometry" />
        </mxCell>
        <mxCell id="uz-SUO77uqsOUi8HKxff-64" value="2 features" style="ellipse;whiteSpace=wrap;html=1;fontSize=18;" vertex="1" parent="1">
          <mxGeometry x="1110" y="315" width="120" height="70" as="geometry" />
        </mxCell>
        <mxCell id="uz-SUO77uqsOUi8HKxff-65" style="edgeStyle=orthogonalEdgeStyle;rounded=0;orthogonalLoop=1;jettySize=auto;html=1;" edge="1" parent="1" source="uz-SUO77uqsOUi8HKxff-66" target="uz-SUO77uqsOUi8HKxff-72">
          <mxGeometry relative="1" as="geometry" />
        </mxCell>
        <mxCell id="uz-SUO77uqsOUi8HKxff-66" value="2 features" style="ellipse;whiteSpace=wrap;html=1;fontSize=18;" vertex="1" parent="1">
          <mxGeometry x="1110" y="405" width="120" height="70" as="geometry" />
        </mxCell>
        <mxCell id="uz-SUO77uqsOUi8HKxff-67" style="edgeStyle=orthogonalEdgeStyle;rounded=0;orthogonalLoop=1;jettySize=auto;html=1;" edge="1" parent="1" source="uz-SUO77uqsOUi8HKxff-68" target="uz-SUO77uqsOUi8HKxff-73">
          <mxGeometry relative="1" as="geometry" />
        </mxCell>
        <mxCell id="uz-SUO77uqsOUi8HKxff-68" value="2 features" style="ellipse;whiteSpace=wrap;html=1;fontSize=18;" vertex="1" parent="1">
          <mxGeometry x="1110" y="495" width="120" height="70" as="geometry" />
        </mxCell>
        <mxCell id="uz-SUO77uqsOUi8HKxff-69" style="edgeStyle=orthogonalEdgeStyle;rounded=0;orthogonalLoop=1;jettySize=auto;html=1;" edge="1" parent="1" source="uz-SUO77uqsOUi8HKxff-70" target="uz-SUO77uqsOUi8HKxff-74">
          <mxGeometry relative="1" as="geometry" />
        </mxCell>
        <mxCell id="uz-SUO77uqsOUi8HKxff-70" value="2 features" style="ellipse;whiteSpace=wrap;html=1;fontSize=18;" vertex="1" parent="1">
          <mxGeometry x="1110" y="585" width="120" height="70" as="geometry" />
        </mxCell>
        <mxCell id="uz-SUO77uqsOUi8HKxff-71" value="Binary Classifier 1" style="rounded=0;whiteSpace=wrap;html=1;fontSize=18;fillColor=#dae8fc;strokeColor=#6c8ebf;" vertex="1" parent="1">
          <mxGeometry x="1260" y="320" width="150" height="60" as="geometry" />
        </mxCell>
        <mxCell id="uz-SUO77uqsOUi8HKxff-72" value="Binary Classifier 2" style="rounded=0;whiteSpace=wrap;html=1;fontSize=18;fillColor=#dae8fc;strokeColor=#6c8ebf;" vertex="1" parent="1">
          <mxGeometry x="1260" y="410" width="150" height="60" as="geometry" />
        </mxCell>
        <mxCell id="uz-SUO77uqsOUi8HKxff-73" value="Binary Classifier 3" style="rounded=0;whiteSpace=wrap;html=1;fontSize=18;fillColor=#dae8fc;strokeColor=#6c8ebf;" vertex="1" parent="1">
          <mxGeometry x="1260" y="500" width="150" height="60" as="geometry" />
        </mxCell>
        <mxCell id="uz-SUO77uqsOUi8HKxff-74" value="Binary Classifier 4" style="rounded=0;whiteSpace=wrap;html=1;fontSize=18;fillColor=#dae8fc;strokeColor=#6c8ebf;" vertex="1" parent="1">
          <mxGeometry x="1260" y="590" width="150" height="60" as="geometry" />
        </mxCell>
        <mxCell id="uz-SUO77uqsOUi8HKxff-75" value="4 features" style="ellipse;whiteSpace=wrap;html=1;fontSize=18;" vertex="1" parent="1">
          <mxGeometry x="1470" y="440" width="130" height="80" as="geometry" />
        </mxCell>
        <mxCell id="uz-SUO77uqsOUi8HKxff-76" value="" style="endArrow=classic;html=1;rounded=0;exitX=1;exitY=0.5;exitDx=0;exitDy=0;entryX=0;entryY=0.5;entryDx=0;entryDy=0;" edge="1" parent="1" source="uz-SUO77uqsOUi8HKxff-71" target="uz-SUO77uqsOUi8HKxff-75">
          <mxGeometry width="50" height="50" relative="1" as="geometry">
            <mxPoint x="1370" y="280" as="sourcePoint" />
            <mxPoint x="1420" y="230" as="targetPoint" />
          </mxGeometry>
        </mxCell>
        <mxCell id="uz-SUO77uqsOUi8HKxff-77" value="" style="endArrow=classic;html=1;rounded=0;exitX=1;exitY=0.5;exitDx=0;exitDy=0;entryX=0;entryY=0.5;entryDx=0;entryDy=0;" edge="1" parent="1" source="uz-SUO77uqsOUi8HKxff-72" target="uz-SUO77uqsOUi8HKxff-75">
          <mxGeometry width="50" height="50" relative="1" as="geometry">
            <mxPoint x="1380" y="290" as="sourcePoint" />
            <mxPoint x="1430" y="240" as="targetPoint" />
          </mxGeometry>
        </mxCell>
        <mxCell id="uz-SUO77uqsOUi8HKxff-78" value="" style="endArrow=classic;html=1;rounded=0;exitX=1;exitY=0.5;exitDx=0;exitDy=0;entryX=0;entryY=0.5;entryDx=0;entryDy=0;" edge="1" parent="1" source="uz-SUO77uqsOUi8HKxff-73" target="uz-SUO77uqsOUi8HKxff-75">
          <mxGeometry width="50" height="50" relative="1" as="geometry">
            <mxPoint x="1390" y="300" as="sourcePoint" />
            <mxPoint x="1440" y="250" as="targetPoint" />
          </mxGeometry>
        </mxCell>
        <mxCell id="uz-SUO77uqsOUi8HKxff-79" value="" style="endArrow=classic;html=1;rounded=0;exitX=1;exitY=0.5;exitDx=0;exitDy=0;" edge="1" parent="1" source="uz-SUO77uqsOUi8HKxff-74">
          <mxGeometry width="50" height="50" relative="1" as="geometry">
            <mxPoint x="1400" y="310" as="sourcePoint" />
            <mxPoint x="1470" y="480" as="targetPoint" />
          </mxGeometry>
        </mxCell>
        <mxCell id="uz-SUO77uqsOUi8HKxff-80" value="Phase 2" style="text;html=1;align=center;verticalAlign=middle;whiteSpace=wrap;rounded=0;fontSize=21;" vertex="1" parent="1">
          <mxGeometry x="1015" y="270" width="110" height="30" as="geometry" />
        </mxCell>
      </root>
    </mxGraphModel>
  </diagram>
  <diagram id="j2cJU0_YdcxxMpebxfj7" name="Page-12">
    <mxGraphModel dx="1002" dy="569" grid="1" gridSize="10" guides="1" tooltips="1" connect="1" arrows="1" fold="1" page="1" pageScale="1" pageWidth="850" pageHeight="1100" math="0" shadow="0">
      <root>
        <mxCell id="0" />
        <mxCell id="1" parent="0" />
        <mxCell id="ZQraZqi8_LEuhzV6ZFvr-1" value="" style="rounded=1;whiteSpace=wrap;html=1;fontSize=18;" vertex="1" parent="1">
          <mxGeometry x="690" y="250" width="400" height="410" as="geometry" />
        </mxCell>
        <mxCell id="ZQraZqi8_LEuhzV6ZFvr-2" value="" style="rounded=1;whiteSpace=wrap;html=1;fontSize=18;" vertex="1" parent="1">
          <mxGeometry x="180" y="250" width="320" height="410" as="geometry" />
        </mxCell>
        <mxCell id="ZQraZqi8_LEuhzV6ZFvr-3" value="CT" style="ellipse;whiteSpace=wrap;html=1;fontSize=18;" vertex="1" parent="1">
          <mxGeometry x="190" y="430" width="120" height="80" as="geometry" />
        </mxCell>
        <mxCell id="ZQraZqi8_LEuhzV6ZFvr-4" style="edgeStyle=orthogonalEdgeStyle;rounded=0;orthogonalLoop=1;jettySize=auto;html=1;" edge="1" parent="1" source="ZQraZqi8_LEuhzV6ZFvr-5" target="ZQraZqi8_LEuhzV6ZFvr-9">
          <mxGeometry relative="1" as="geometry" />
        </mxCell>
        <mxCell id="ZQraZqi8_LEuhzV6ZFvr-5" value="Preprocessing,&lt;div&gt;Vectorization&lt;/div&gt;" style="rounded=0;whiteSpace=wrap;html=1;fontSize=18;fillColor=#d5e8d4;strokeColor=#82b366;" vertex="1" parent="1">
          <mxGeometry x="340" y="440" width="150" height="60" as="geometry" />
        </mxCell>
        <mxCell id="ZQraZqi8_LEuhzV6ZFvr-6" value="" style="endArrow=classic;html=1;rounded=0;entryX=0;entryY=0.5;entryDx=0;entryDy=0;fontSize=18;" edge="1" parent="1" source="ZQraZqi8_LEuhzV6ZFvr-3" target="ZQraZqi8_LEuhzV6ZFvr-5">
          <mxGeometry width="50" height="50" relative="1" as="geometry">
            <mxPoint x="640" y="740" as="sourcePoint" />
            <mxPoint x="690" y="690" as="targetPoint" />
          </mxGeometry>
        </mxCell>
        <mxCell id="ZQraZqi8_LEuhzV6ZFvr-7" value="Phase 1" style="text;html=1;align=center;verticalAlign=middle;whiteSpace=wrap;rounded=0;fontSize=21;" vertex="1" parent="1">
          <mxGeometry x="285" y="260" width="110" height="30" as="geometry" />
        </mxCell>
        <mxCell id="ZQraZqi8_LEuhzV6ZFvr-8" style="edgeStyle=orthogonalEdgeStyle;rounded=0;orthogonalLoop=1;jettySize=auto;html=1;" edge="1" parent="1" source="ZQraZqi8_LEuhzV6ZFvr-9" target="ZQraZqi8_LEuhzV6ZFvr-10">
          <mxGeometry relative="1" as="geometry" />
        </mxCell>
        <mxCell id="ZQraZqi8_LEuhzV6ZFvr-9" value="3910 features" style="ellipse;whiteSpace=wrap;html=1;fontSize=18;" vertex="1" parent="1">
          <mxGeometry x="520" y="430" width="160" height="80" as="geometry" />
        </mxCell>
        <mxCell id="ZQraZqi8_LEuhzV6ZFvr-10" value="relabel: 0 - 1" style="rounded=0;whiteSpace=wrap;html=1;fontSize=18;" vertex="1" parent="1">
          <mxGeometry x="710" y="440" width="150" height="60" as="geometry" />
        </mxCell>
        <mxCell id="ZQraZqi8_LEuhzV6ZFvr-11" value="" style="endArrow=classic;html=1;rounded=0;exitX=1;exitY=0.5;exitDx=0;exitDy=0;entryX=0;entryY=0.5;entryDx=0;entryDy=0;" edge="1" parent="1" source="ZQraZqi8_LEuhzV6ZFvr-10">
          <mxGeometry width="50" height="50" relative="1" as="geometry">
            <mxPoint x="690" y="650" as="sourcePoint" />
            <mxPoint x="910" y="340" as="targetPoint" />
          </mxGeometry>
        </mxCell>
        <mxCell id="ZQraZqi8_LEuhzV6ZFvr-12" value="" style="endArrow=classic;html=1;rounded=0;exitX=1;exitY=0.5;exitDx=0;exitDy=0;entryX=0;entryY=0.5;entryDx=0;entryDy=0;" edge="1" parent="1" source="ZQraZqi8_LEuhzV6ZFvr-10">
          <mxGeometry width="50" height="50" relative="1" as="geometry">
            <mxPoint x="720" y="490" as="sourcePoint" />
            <mxPoint x="910" y="430" as="targetPoint" />
          </mxGeometry>
        </mxCell>
        <mxCell id="ZQraZqi8_LEuhzV6ZFvr-13" value="" style="endArrow=classic;html=1;rounded=0;exitX=1;exitY=0.5;exitDx=0;exitDy=0;entryX=0;entryY=0.5;entryDx=0;entryDy=0;" edge="1" parent="1" source="ZQraZqi8_LEuhzV6ZFvr-10">
          <mxGeometry width="50" height="50" relative="1" as="geometry">
            <mxPoint x="730" y="500" as="sourcePoint" />
            <mxPoint x="910" y="520" as="targetPoint" />
          </mxGeometry>
        </mxCell>
        <mxCell id="ZQraZqi8_LEuhzV6ZFvr-14" value="" style="endArrow=classic;html=1;rounded=0;exitX=1;exitY=0.5;exitDx=0;exitDy=0;entryX=0;entryY=0.5;entryDx=0;entryDy=0;" edge="1" parent="1" source="ZQraZqi8_LEuhzV6ZFvr-10">
          <mxGeometry width="50" height="50" relative="1" as="geometry">
            <mxPoint x="740" y="510" as="sourcePoint" />
            <mxPoint x="910" y="610" as="targetPoint" />
          </mxGeometry>
        </mxCell>
        <mxCell id="ZQraZqi8_LEuhzV6ZFvr-15" value="Binary Classifier 1" style="rounded=0;whiteSpace=wrap;html=1;fontSize=18;fillColor=#dae8fc;strokeColor=#6c8ebf;" vertex="1" parent="1">
          <mxGeometry x="910" y="308" width="150" height="60" as="geometry" />
        </mxCell>
        <mxCell id="ZQraZqi8_LEuhzV6ZFvr-16" value="Binary Classifier 2" style="rounded=0;whiteSpace=wrap;html=1;fontSize=18;fillColor=#dae8fc;strokeColor=#6c8ebf;" vertex="1" parent="1">
          <mxGeometry x="910" y="398" width="150" height="60" as="geometry" />
        </mxCell>
        <mxCell id="ZQraZqi8_LEuhzV6ZFvr-17" value="Binary Classifier 3" style="rounded=0;whiteSpace=wrap;html=1;fontSize=18;fillColor=#dae8fc;strokeColor=#6c8ebf;" vertex="1" parent="1">
          <mxGeometry x="910" y="488" width="150" height="60" as="geometry" />
        </mxCell>
        <mxCell id="ZQraZqi8_LEuhzV6ZFvr-18" value="Binary Classifier 4" style="rounded=0;whiteSpace=wrap;html=1;fontSize=18;fillColor=#dae8fc;strokeColor=#6c8ebf;" vertex="1" parent="1">
          <mxGeometry x="910" y="578" width="150" height="60" as="geometry" />
        </mxCell>
        <mxCell id="ZQraZqi8_LEuhzV6ZFvr-19" value="4 features" style="ellipse;whiteSpace=wrap;html=1;fontSize=18;" vertex="1" parent="1">
          <mxGeometry x="1120" y="428" width="130" height="80" as="geometry" />
        </mxCell>
        <mxCell id="ZQraZqi8_LEuhzV6ZFvr-20" value="" style="endArrow=classic;html=1;rounded=0;exitX=1;exitY=0.5;exitDx=0;exitDy=0;entryX=0;entryY=0.5;entryDx=0;entryDy=0;" edge="1" parent="1" source="ZQraZqi8_LEuhzV6ZFvr-15" target="ZQraZqi8_LEuhzV6ZFvr-19">
          <mxGeometry width="50" height="50" relative="1" as="geometry">
            <mxPoint x="1020" y="268" as="sourcePoint" />
            <mxPoint x="1070" y="218" as="targetPoint" />
          </mxGeometry>
        </mxCell>
        <mxCell id="ZQraZqi8_LEuhzV6ZFvr-21" value="" style="endArrow=classic;html=1;rounded=0;exitX=1;exitY=0.5;exitDx=0;exitDy=0;entryX=0;entryY=0.5;entryDx=0;entryDy=0;" edge="1" parent="1" source="ZQraZqi8_LEuhzV6ZFvr-16" target="ZQraZqi8_LEuhzV6ZFvr-19">
          <mxGeometry width="50" height="50" relative="1" as="geometry">
            <mxPoint x="1030" y="278" as="sourcePoint" />
            <mxPoint x="1080" y="228" as="targetPoint" />
          </mxGeometry>
        </mxCell>
        <mxCell id="ZQraZqi8_LEuhzV6ZFvr-22" value="" style="endArrow=classic;html=1;rounded=0;exitX=1;exitY=0.5;exitDx=0;exitDy=0;entryX=0;entryY=0.5;entryDx=0;entryDy=0;" edge="1" parent="1" source="ZQraZqi8_LEuhzV6ZFvr-17" target="ZQraZqi8_LEuhzV6ZFvr-19">
          <mxGeometry width="50" height="50" relative="1" as="geometry">
            <mxPoint x="1040" y="288" as="sourcePoint" />
            <mxPoint x="1090" y="238" as="targetPoint" />
          </mxGeometry>
        </mxCell>
        <mxCell id="ZQraZqi8_LEuhzV6ZFvr-23" value="" style="endArrow=classic;html=1;rounded=0;exitX=1;exitY=0.5;exitDx=0;exitDy=0;" edge="1" parent="1" source="ZQraZqi8_LEuhzV6ZFvr-18">
          <mxGeometry width="50" height="50" relative="1" as="geometry">
            <mxPoint x="1050" y="298" as="sourcePoint" />
            <mxPoint x="1120" y="468" as="targetPoint" />
          </mxGeometry>
        </mxCell>
        <mxCell id="ZQraZqi8_LEuhzV6ZFvr-24" value="Phase 2" style="text;html=1;align=center;verticalAlign=middle;whiteSpace=wrap;rounded=0;fontSize=21;" vertex="1" parent="1">
          <mxGeometry x="835" y="260" width="110" height="30" as="geometry" />
        </mxCell>
      </root>
    </mxGraphModel>
  </diagram>
  <diagram id="d6TzkIc8-QKR6atCXHM_" name="Page-13">
    <mxGraphModel dx="1542" dy="875" grid="1" gridSize="10" guides="1" tooltips="1" connect="1" arrows="1" fold="1" page="1" pageScale="1" pageWidth="850" pageHeight="1100" math="0" shadow="0">
      <root>
        <mxCell id="0" />
        <mxCell id="1" parent="0" />
        <mxCell id="JI62hOWXTLFQSYQrJ48y-1" value="" style="rounded=1;whiteSpace=wrap;html=1;fontSize=18;" vertex="1" parent="1">
          <mxGeometry x="265" y="250" width="785" height="520" as="geometry" />
        </mxCell>
        <mxCell id="JI62hOWXTLFQSYQrJ48y-2" value="4 features" style="ellipse;whiteSpace=wrap;html=1;fontSize=18;" vertex="1" parent="1">
          <mxGeometry x="60" y="310" width="160" height="80" as="geometry" />
        </mxCell>
        <mxCell id="JI62hOWXTLFQSYQrJ48y-3" value="TXT" style="swimlane;fontSize=18;startSize=40;" vertex="1" parent="1">
          <mxGeometry x="40" y="250" width="200" height="160" as="geometry" />
        </mxCell>
        <mxCell id="JI62hOWXTLFQSYQrJ48y-4" value="4 features" style="ellipse;whiteSpace=wrap;html=1;fontSize=18;" vertex="1" parent="1">
          <mxGeometry x="60" y="490" width="160" height="80" as="geometry" />
        </mxCell>
        <mxCell id="JI62hOWXTLFQSYQrJ48y-5" value="CT" style="swimlane;fontSize=18;startSize=40;" vertex="1" parent="1">
          <mxGeometry x="40" y="430" width="200" height="160" as="geometry" />
        </mxCell>
        <mxCell id="JI62hOWXTLFQSYQrJ48y-6" value="5 features" style="ellipse;whiteSpace=wrap;html=1;fontSize=18;" vertex="1" parent="1">
          <mxGeometry x="60" y="670" width="160" height="80" as="geometry" />
        </mxCell>
        <mxCell id="JI62hOWXTLFQSYQrJ48y-7" value="CH" style="swimlane;fontSize=18;startSize=40;" vertex="1" parent="1">
          <mxGeometry x="40" y="610" width="200" height="160" as="geometry" />
        </mxCell>
        <mxCell id="JI62hOWXTLFQSYQrJ48y-8" style="edgeStyle=orthogonalEdgeStyle;rounded=0;orthogonalLoop=1;jettySize=auto;html=1;" edge="1" parent="1" source="JI62hOWXTLFQSYQrJ48y-9" target="JI62hOWXTLFQSYQrJ48y-14">
          <mxGeometry relative="1" as="geometry" />
        </mxCell>
        <mxCell id="JI62hOWXTLFQSYQrJ48y-9" value="Merge and normalization" style="rounded=0;whiteSpace=wrap;html=1;fontSize=18;fillColor=#d5e8d4;strokeColor=#82b366;" vertex="1" parent="1">
          <mxGeometry x="320" y="490" width="180" height="80" as="geometry" />
        </mxCell>
        <mxCell id="JI62hOWXTLFQSYQrJ48y-10" value="" style="endArrow=classic;html=1;rounded=0;entryX=0;entryY=0.5;entryDx=0;entryDy=0;exitX=1;exitY=0.5;exitDx=0;exitDy=0;" edge="1" parent="1" source="JI62hOWXTLFQSYQrJ48y-2" target="JI62hOWXTLFQSYQrJ48y-9">
          <mxGeometry width="50" height="50" relative="1" as="geometry">
            <mxPoint x="290" y="350" as="sourcePoint" />
            <mxPoint x="340" y="300" as="targetPoint" />
          </mxGeometry>
        </mxCell>
        <mxCell id="JI62hOWXTLFQSYQrJ48y-11" value="" style="endArrow=classic;html=1;rounded=0;entryX=0;entryY=0.5;entryDx=0;entryDy=0;exitX=1;exitY=0.5;exitDx=0;exitDy=0;" edge="1" parent="1" source="JI62hOWXTLFQSYQrJ48y-4" target="JI62hOWXTLFQSYQrJ48y-9">
          <mxGeometry width="50" height="50" relative="1" as="geometry">
            <mxPoint x="230" y="360" as="sourcePoint" />
            <mxPoint x="360" y="540" as="targetPoint" />
          </mxGeometry>
        </mxCell>
        <mxCell id="JI62hOWXTLFQSYQrJ48y-12" value="" style="endArrow=classic;html=1;rounded=0;entryX=0;entryY=0.5;entryDx=0;entryDy=0;exitX=1;exitY=0.5;exitDx=0;exitDy=0;" edge="1" parent="1" source="JI62hOWXTLFQSYQrJ48y-6" target="JI62hOWXTLFQSYQrJ48y-9">
          <mxGeometry width="50" height="50" relative="1" as="geometry">
            <mxPoint x="240" y="370" as="sourcePoint" />
            <mxPoint x="370" y="550" as="targetPoint" />
          </mxGeometry>
        </mxCell>
        <mxCell id="JI62hOWXTLFQSYQrJ48y-13" style="edgeStyle=orthogonalEdgeStyle;rounded=0;orthogonalLoop=1;jettySize=auto;html=1;" edge="1" parent="1" source="JI62hOWXTLFQSYQrJ48y-14" target="JI62hOWXTLFQSYQrJ48y-16">
          <mxGeometry relative="1" as="geometry" />
        </mxCell>
        <mxCell id="JI62hOWXTLFQSYQrJ48y-14" value="13 features" style="ellipse;whiteSpace=wrap;html=1;fontSize=18;" vertex="1" parent="1">
          <mxGeometry x="540" y="490" width="160" height="80" as="geometry" />
        </mxCell>
        <mxCell id="JI62hOWXTLFQSYQrJ48y-15" style="edgeStyle=orthogonalEdgeStyle;rounded=0;orthogonalLoop=1;jettySize=auto;html=1;" edge="1" parent="1" source="JI62hOWXTLFQSYQrJ48y-16" target="JI62hOWXTLFQSYQrJ48y-17">
          <mxGeometry relative="1" as="geometry" />
        </mxCell>
        <mxCell id="JI62hOWXTLFQSYQrJ48y-16" value="Multi-class Classifier" style="rounded=0;whiteSpace=wrap;html=1;fontSize=18;fillColor=#e1d5e7;strokeColor=#9673a6;" vertex="1" parent="1">
          <mxGeometry x="730" y="480" width="120" height="100" as="geometry" />
        </mxCell>
        <mxCell id="JI62hOWXTLFQSYQrJ48y-17" value="Prediction" style="swimlane;fontStyle=0;childLayout=stackLayout;horizontal=1;startSize=30;horizontalStack=0;resizeParent=1;resizeParentMax=0;resizeLast=0;collapsible=1;marginBottom=0;whiteSpace=wrap;html=1;fontSize=18;" vertex="1" parent="1">
          <mxGeometry x="890" y="425" width="125" height="210" as="geometry" />
        </mxCell>
        <mxCell id="JI62hOWXTLFQSYQrJ48y-18" value="Pants on Fire" style="text;strokeColor=none;fillColor=none;align=left;verticalAlign=middle;spacingLeft=4;spacingRight=4;overflow=hidden;points=[[0,0.5],[1,0.5]];portConstraint=eastwest;rotatable=0;whiteSpace=wrap;html=1;fontSize=18;" vertex="1" parent="JI62hOWXTLFQSYQrJ48y-17">
          <mxGeometry y="30" width="125" height="30" as="geometry" />
        </mxCell>
        <mxCell id="JI62hOWXTLFQSYQrJ48y-19" value="False" style="text;strokeColor=none;fillColor=none;align=left;verticalAlign=middle;spacingLeft=4;spacingRight=4;overflow=hidden;points=[[0,0.5],[1,0.5]];portConstraint=eastwest;rotatable=0;whiteSpace=wrap;html=1;fontSize=18;" vertex="1" parent="JI62hOWXTLFQSYQrJ48y-17">
          <mxGeometry y="60" width="125" height="30" as="geometry" />
        </mxCell>
        <mxCell id="JI62hOWXTLFQSYQrJ48y-20" value="Barely True" style="text;align=left;verticalAlign=middle;spacingLeft=4;spacingRight=4;overflow=hidden;points=[[0,0.5],[1,0.5]];portConstraint=eastwest;rotatable=0;whiteSpace=wrap;html=1;fontSize=18;" vertex="1" parent="JI62hOWXTLFQSYQrJ48y-17">
          <mxGeometry y="90" width="125" height="30" as="geometry" />
        </mxCell>
        <mxCell id="JI62hOWXTLFQSYQrJ48y-21" value="Half True" style="text;strokeColor=none;fillColor=none;align=left;verticalAlign=middle;spacingLeft=4;spacingRight=4;overflow=hidden;points=[[0,0.5],[1,0.5]];portConstraint=eastwest;rotatable=0;whiteSpace=wrap;html=1;fontSize=18;" vertex="1" parent="JI62hOWXTLFQSYQrJ48y-17">
          <mxGeometry y="120" width="125" height="30" as="geometry" />
        </mxCell>
        <mxCell id="JI62hOWXTLFQSYQrJ48y-22" value="Mostly True" style="text;strokeColor=#b85450;fillColor=#f8cecc;align=left;verticalAlign=middle;spacingLeft=4;spacingRight=4;overflow=hidden;points=[[0,0.5],[1,0.5]];portConstraint=eastwest;rotatable=0;whiteSpace=wrap;html=1;fontSize=18;" vertex="1" parent="JI62hOWXTLFQSYQrJ48y-17">
          <mxGeometry y="150" width="125" height="30" as="geometry" />
        </mxCell>
        <mxCell id="JI62hOWXTLFQSYQrJ48y-23" value="True" style="text;strokeColor=none;fillColor=none;align=left;verticalAlign=middle;spacingLeft=4;spacingRight=4;overflow=hidden;points=[[0,0.5],[1,0.5]];portConstraint=eastwest;rotatable=0;whiteSpace=wrap;html=1;fontSize=18;" vertex="1" parent="JI62hOWXTLFQSYQrJ48y-17">
          <mxGeometry y="180" width="125" height="30" as="geometry" />
        </mxCell>
        <mxCell id="JI62hOWXTLFQSYQrJ48y-24" value="Phase 3" style="text;html=1;align=center;verticalAlign=middle;whiteSpace=wrap;rounded=0;fontSize=24;fontStyle=1" vertex="1" parent="1">
          <mxGeometry x="577.5" y="290" width="160" height="30" as="geometry" />
        </mxCell>
      </root>
    </mxGraphModel>
  </diagram>
  <diagram id="tF_r_f8i3dvkP3P92Q9F" name="Page-14">
    <mxGraphModel dx="2281" dy="1913" grid="1" gridSize="10" guides="1" tooltips="1" connect="1" arrows="1" fold="1" page="1" pageScale="1" pageWidth="850" pageHeight="1100" math="0" shadow="0">
      <root>
        <mxCell id="0" />
        <mxCell id="1" parent="0" />
        <mxCell id="zU6vwitdArwckLYh6Wq6-1" value="LIAR dataset" style="swimlane;childLayout=stackLayout;horizontal=1;startSize=50;horizontalStack=0;rounded=1;fontSize=18;fontStyle=0;strokeWidth=2;resizeParent=0;resizeLast=1;shadow=0;dashed=0;align=center;arcSize=4;whiteSpace=wrap;html=1;" vertex="1" parent="1">
          <mxGeometry x="320" y="-100" width="280" height="290" as="geometry" />
        </mxCell>
        <mxCell id="zU6vwitdArwckLYh6Wq6-2" value="&amp;nbsp;pants-fire&amp;nbsp; &amp;nbsp; :&amp;nbsp; 958&amp;nbsp; &amp;nbsp;objects&lt;div style=&quot;line-height: 230%;&quot;&gt;&amp;nbsp;false&amp;nbsp; &amp;nbsp; &amp;nbsp; &amp;nbsp; &amp;nbsp; &amp;nbsp; :&amp;nbsp; 2261 objects&lt;/div&gt;&lt;div style=&quot;line-height: 230%;&quot;&gt;&amp;nbsp;barely-true&amp;nbsp; :&amp;nbsp; 1894 objects&lt;/div&gt;&lt;div style=&quot;line-height: 230%;&quot;&gt;&amp;nbsp;half-true&amp;nbsp; &amp;nbsp; &amp;nbsp; :&amp;nbsp; 2371 objects&lt;/div&gt;&lt;div style=&quot;line-height: 230%;&quot;&gt;&amp;nbsp;mostly-true :&amp;nbsp; 2217 objects&lt;/div&gt;&lt;div style=&quot;line-height: 230%;&quot;&gt;&amp;nbsp;true&amp;nbsp; &amp;nbsp; &amp;nbsp; &amp;nbsp; &amp;nbsp; &amp;nbsp; &amp;nbsp;:&amp;nbsp; 1852 objects&lt;/div&gt;" style="align=left;strokeColor=none;fillColor=none;spacingLeft=4;fontSize=18;verticalAlign=top;resizable=0;rotatable=0;part=1;html=1;" vertex="1" parent="zU6vwitdArwckLYh6Wq6-1">
          <mxGeometry y="50" width="280" height="240" as="geometry" />
        </mxCell>
        <mxCell id="zU6vwitdArwckLYh6Wq6-3" value="Dataset 1" style="swimlane;childLayout=stackLayout;horizontal=1;startSize=50;horizontalStack=0;rounded=1;fontSize=18;fontStyle=0;strokeWidth=2;resizeParent=0;resizeLast=1;shadow=0;dashed=0;align=center;arcSize=4;whiteSpace=wrap;html=1;" vertex="1" parent="1">
          <mxGeometry x="-210" y="560" width="240" height="120" as="geometry" />
        </mxCell>
        <mxCell id="zU6vwitdArwckLYh6Wq6-4" value="&amp;nbsp;Nhãn 0 :&amp;nbsp; 3219 objects&lt;div style=&quot;line-height: 230%;&quot;&gt;&amp;nbsp;Nhãn 1 :&amp;nbsp; 8334 objects&lt;/div&gt;" style="align=left;strokeColor=none;fillColor=none;spacingLeft=4;fontSize=18;verticalAlign=top;resizable=0;rotatable=0;part=1;html=1;" vertex="1" parent="zU6vwitdArwckLYh6Wq6-3">
          <mxGeometry y="50" width="240" height="70" as="geometry" />
        </mxCell>
        <mxCell id="zU6vwitdArwckLYh6Wq6-5" style="edgeStyle=orthogonalEdgeStyle;rounded=0;orthogonalLoop=1;jettySize=auto;html=1;" edge="1" parent="1" source="zU6vwitdArwckLYh6Wq6-6" target="zU6vwitdArwckLYh6Wq6-3">
          <mxGeometry relative="1" as="geometry" />
        </mxCell>
        <mxCell id="zU6vwitdArwckLYh6Wq6-6" value="Relabel:&lt;br style=&quot;font-size: 19px;&quot;&gt;&lt;span lang=&quot;VI&quot; style=&quot;font-size: 19px;&quot;&gt;[&lt;i style=&quot;font-size: 19px;&quot;&gt;pants-fire, false&lt;/i&gt;] &lt;b&gt;: 0&lt;/b&gt;&lt;/span&gt;&lt;div style=&quot;font-size: 19px;&quot;&gt;&lt;span style=&quot;font-size: 19px;&quot;&gt;vs&lt;br style=&quot;font-size: 19px;&quot;&gt;&lt;/span&gt;&lt;div style=&quot;font-size: 19px;&quot;&gt;&lt;span lang=&quot;VI&quot; style=&quot;font-size: 19px;&quot;&gt;&lt;span lang=&quot;VI&quot; style=&quot;font-size: 19px;&quot;&gt;[&lt;i style=&quot;font-size: 19px;&quot;&gt;barely-true, half-true, mostly-true, true&lt;/i&gt;] &lt;b&gt;: 1&lt;/b&gt;&lt;/span&gt;&lt;br style=&quot;font-size: 19px;&quot;&gt;&lt;/span&gt;&lt;/div&gt;&lt;/div&gt;" style="rounded=0;whiteSpace=wrap;html=1;fontSize=19;fillColor=#d5e8d4;strokeColor=#82b366;" vertex="1" parent="1">
          <mxGeometry x="-270" y="336" width="360" height="120" as="geometry" />
        </mxCell>
        <mxCell id="zU6vwitdArwckLYh6Wq6-7" value="Dataset 2" style="swimlane;childLayout=stackLayout;horizontal=1;startSize=50;horizontalStack=0;rounded=1;fontSize=18;fontStyle=0;strokeWidth=2;resizeParent=0;resizeLast=1;shadow=0;dashed=0;align=center;arcSize=4;whiteSpace=wrap;html=1;" vertex="1" parent="1">
          <mxGeometry x="160" y="560" width="240" height="120" as="geometry" />
        </mxCell>
        <mxCell id="zU6vwitdArwckLYh6Wq6-8" value="&amp;nbsp;Nhãn 0 :&amp;nbsp; 4265 objects&lt;div style=&quot;line-height: 230%;&quot;&gt;&amp;nbsp;Nhãn 1 :&amp;nbsp; 7288 objects&lt;/div&gt;" style="align=left;strokeColor=none;fillColor=none;spacingLeft=4;fontSize=18;verticalAlign=top;resizable=0;rotatable=0;part=1;html=1;" vertex="1" parent="zU6vwitdArwckLYh6Wq6-7">
          <mxGeometry y="50" width="240" height="70" as="geometry" />
        </mxCell>
        <mxCell id="zU6vwitdArwckLYh6Wq6-9" style="edgeStyle=orthogonalEdgeStyle;rounded=0;orthogonalLoop=1;jettySize=auto;html=1;" edge="1" parent="1" source="zU6vwitdArwckLYh6Wq6-10" target="zU6vwitdArwckLYh6Wq6-7">
          <mxGeometry relative="1" as="geometry" />
        </mxCell>
        <mxCell id="zU6vwitdArwckLYh6Wq6-10" value="Relabel:&lt;br style=&quot;font-size: 19px;&quot;&gt;&lt;span lang=&quot;VI&quot; style=&quot;font-size: 19px;&quot;&gt;[&lt;i&gt;barely-true, half-true&lt;/i&gt;] &lt;b&gt;: 0&lt;/b&gt;&lt;/span&gt;&lt;div style=&quot;font-size: 19px;&quot;&gt;&lt;span style=&quot;font-size: 19px;&quot;&gt;vs&lt;br style=&quot;font-size: 19px;&quot;&gt;&lt;/span&gt;&lt;div style=&quot;font-size: 19px;&quot;&gt;&lt;span lang=&quot;VI&quot; style=&quot;font-size: 19px;&quot;&gt;&lt;span lang=&quot;VI&quot; style=&quot;font-size: 19px;&quot;&gt;[&lt;/span&gt;&lt;/span&gt;&lt;i style=&quot;background-color: initial;&quot;&gt;pants-fire, false,&lt;/i&gt;&lt;i style=&quot;background-color: initial;&quot;&gt;&amp;nbsp;mostly-true, true&lt;/i&gt;&lt;span style=&quot;background-color: initial;&quot;&gt;] &lt;/span&gt;&lt;b style=&quot;background-color: initial;&quot;&gt;: 1&lt;/b&gt;&lt;/div&gt;&lt;/div&gt;" style="rounded=0;whiteSpace=wrap;html=1;fontSize=19;fillColor=#d5e8d4;strokeColor=#82b366;" vertex="1" parent="1">
          <mxGeometry x="100" y="336" width="360" height="120" as="geometry" />
        </mxCell>
        <mxCell id="zU6vwitdArwckLYh6Wq6-11" style="edgeStyle=orthogonalEdgeStyle;rounded=0;orthogonalLoop=1;jettySize=auto;html=1;" edge="1" parent="1" source="zU6vwitdArwckLYh6Wq6-12" target="zU6vwitdArwckLYh6Wq6-23">
          <mxGeometry relative="1" as="geometry" />
        </mxCell>
        <mxCell id="zU6vwitdArwckLYh6Wq6-12" value="Dataset 3" style="swimlane;childLayout=stackLayout;horizontal=1;startSize=50;horizontalStack=0;rounded=1;fontSize=18;fontStyle=0;strokeWidth=2;resizeParent=0;resizeLast=1;shadow=0;dashed=0;align=center;arcSize=4;whiteSpace=wrap;html=1;" vertex="1" parent="1">
          <mxGeometry x="530" y="560" width="240" height="120" as="geometry" />
        </mxCell>
        <mxCell id="zU6vwitdArwckLYh6Wq6-13" value="&amp;nbsp;Nhãn 0 :&amp;nbsp; 4069 objects&lt;div style=&quot;line-height: 230%;&quot;&gt;&amp;nbsp;Nhãn 1 :&amp;nbsp; 7484 objects&lt;/div&gt;" style="align=left;strokeColor=none;fillColor=none;spacingLeft=4;fontSize=18;verticalAlign=top;resizable=0;rotatable=0;part=1;html=1;" vertex="1" parent="zU6vwitdArwckLYh6Wq6-12">
          <mxGeometry y="50" width="240" height="70" as="geometry" />
        </mxCell>
        <mxCell id="zU6vwitdArwckLYh6Wq6-14" style="edgeStyle=orthogonalEdgeStyle;rounded=0;orthogonalLoop=1;jettySize=auto;html=1;" edge="1" parent="1" source="zU6vwitdArwckLYh6Wq6-15" target="zU6vwitdArwckLYh6Wq6-12">
          <mxGeometry relative="1" as="geometry" />
        </mxCell>
        <mxCell id="zU6vwitdArwckLYh6Wq6-15" value="Relabel:&lt;br style=&quot;font-size: 19px;&quot;&gt;&lt;span lang=&quot;VI&quot; style=&quot;font-size: 19px;&quot;&gt;[&lt;i style=&quot;background-color: initial;&quot;&gt;mostly-true, true&lt;/i&gt;] &lt;b&gt;: 0&lt;/b&gt;&lt;/span&gt;&lt;div style=&quot;font-size: 19px;&quot;&gt;&lt;span style=&quot;font-size: 19px;&quot;&gt;vs&lt;br style=&quot;font-size: 19px;&quot;&gt;&lt;/span&gt;&lt;div style=&quot;font-size: 19px;&quot;&gt;&lt;span lang=&quot;VI&quot; style=&quot;font-size: 19px;&quot;&gt;&lt;span lang=&quot;VI&quot; style=&quot;font-size: 19px;&quot;&gt;[&lt;/span&gt;&lt;/span&gt;&lt;i style=&quot;background-color: initial;&quot;&gt;pants-fire, false,&lt;/i&gt;&lt;i style=&quot;background-color: initial;&quot;&gt;&amp;nbsp;&lt;/i&gt;&lt;i style=&quot;background-color: initial;&quot;&gt;barely-true, half-true&lt;/i&gt;&lt;span style=&quot;background-color: initial;&quot;&gt;] &lt;/span&gt;&lt;b style=&quot;background-color: initial;&quot;&gt;: 1&lt;/b&gt;&lt;/div&gt;&lt;/div&gt;" style="rounded=0;whiteSpace=wrap;html=1;fontSize=19;fillColor=#d5e8d4;strokeColor=#82b366;" vertex="1" parent="1">
          <mxGeometry x="470" y="336" width="360" height="120" as="geometry" />
        </mxCell>
        <mxCell id="zU6vwitdArwckLYh6Wq6-16" value="Dataset 4" style="swimlane;childLayout=stackLayout;horizontal=1;startSize=50;horizontalStack=0;rounded=1;fontSize=18;fontStyle=0;strokeWidth=2;resizeParent=0;resizeLast=1;shadow=0;dashed=0;align=center;arcSize=4;whiteSpace=wrap;html=1;" vertex="1" parent="1">
          <mxGeometry x="900" y="560" width="240" height="120" as="geometry" />
        </mxCell>
        <mxCell id="zU6vwitdArwckLYh6Wq6-17" value="&amp;nbsp;Nhãn 0 :&amp;nbsp; 5113 objects&lt;div style=&quot;line-height: 230%;&quot;&gt;&amp;nbsp;Nhãn 1 :&amp;nbsp; 6440 objects&lt;/div&gt;" style="align=left;strokeColor=none;fillColor=none;spacingLeft=4;fontSize=18;verticalAlign=top;resizable=0;rotatable=0;part=1;html=1;" vertex="1" parent="zU6vwitdArwckLYh6Wq6-16">
          <mxGeometry y="50" width="240" height="70" as="geometry" />
        </mxCell>
        <mxCell id="zU6vwitdArwckLYh6Wq6-18" style="edgeStyle=orthogonalEdgeStyle;rounded=0;orthogonalLoop=1;jettySize=auto;html=1;" edge="1" parent="1" source="zU6vwitdArwckLYh6Wq6-19" target="zU6vwitdArwckLYh6Wq6-16">
          <mxGeometry relative="1" as="geometry" />
        </mxCell>
        <mxCell id="zU6vwitdArwckLYh6Wq6-19" value="Relabel:&lt;br style=&quot;font-size: 19px;&quot;&gt;&lt;span lang=&quot;VI&quot; style=&quot;font-size: 19px;&quot;&gt;[&lt;i style=&quot;font-size: 19px;&quot;&gt;pants-fire, false,&amp;nbsp;&lt;/i&gt;&lt;i&gt;barely-true&lt;/i&gt;] &lt;b&gt;: 0&lt;/b&gt;&lt;/span&gt;&lt;div style=&quot;font-size: 19px;&quot;&gt;&lt;span style=&quot;font-size: 19px;&quot;&gt;vs&lt;br style=&quot;font-size: 19px;&quot;&gt;&lt;/span&gt;&lt;div style=&quot;font-size: 19px;&quot;&gt;&lt;span lang=&quot;VI&quot; style=&quot;font-size: 19px;&quot;&gt;&lt;span lang=&quot;VI&quot; style=&quot;font-size: 19px;&quot;&gt;[&lt;i style=&quot;font-size: 19px;&quot;&gt;half-true, mostly-true, true&lt;/i&gt;] &lt;b&gt;: 1&lt;/b&gt;&lt;/span&gt;&lt;br style=&quot;font-size: 19px;&quot;&gt;&lt;/span&gt;&lt;/div&gt;&lt;/div&gt;" style="rounded=0;whiteSpace=wrap;html=1;fontSize=19;fillColor=#d5e8d4;strokeColor=#82b366;" vertex="1" parent="1">
          <mxGeometry x="840" y="336" width="360" height="120" as="geometry" />
        </mxCell>
        <mxCell id="zU6vwitdArwckLYh6Wq6-20" value="Binary Classifier 1" style="rounded=0;whiteSpace=wrap;html=1;fontSize=19;fillColor=#dae8fc;strokeColor=#6c8ebf;" vertex="1" parent="1">
          <mxGeometry x="-197.5" y="774" width="215" height="90" as="geometry" />
        </mxCell>
        <mxCell id="zU6vwitdArwckLYh6Wq6-21" style="edgeStyle=orthogonalEdgeStyle;rounded=0;orthogonalLoop=1;jettySize=auto;html=1;" edge="1" parent="1" source="zU6vwitdArwckLYh6Wq6-4" target="zU6vwitdArwckLYh6Wq6-20">
          <mxGeometry relative="1" as="geometry" />
        </mxCell>
        <mxCell id="zU6vwitdArwckLYh6Wq6-22" value="Binary Classifier 2" style="rounded=0;whiteSpace=wrap;html=1;fontSize=19;fillColor=#dae8fc;strokeColor=#6c8ebf;" vertex="1" parent="1">
          <mxGeometry x="172.5" y="774" width="215" height="90" as="geometry" />
        </mxCell>
        <mxCell id="zU6vwitdArwckLYh6Wq6-23" value="Binary Classifier 3" style="rounded=0;whiteSpace=wrap;html=1;fontSize=19;fillColor=#dae8fc;strokeColor=#6c8ebf;" vertex="1" parent="1">
          <mxGeometry x="542.5" y="774" width="215" height="90" as="geometry" />
        </mxCell>
        <mxCell id="zU6vwitdArwckLYh6Wq6-24" value="Binary Classifier 4" style="rounded=0;whiteSpace=wrap;html=1;fontSize=19;fillColor=#dae8fc;strokeColor=#6c8ebf;" vertex="1" parent="1">
          <mxGeometry x="912.5" y="774" width="215" height="90" as="geometry" />
        </mxCell>
        <mxCell id="zU6vwitdArwckLYh6Wq6-25" style="edgeStyle=orthogonalEdgeStyle;rounded=0;orthogonalLoop=1;jettySize=auto;html=1;" edge="1" parent="1" source="zU6vwitdArwckLYh6Wq6-17" target="zU6vwitdArwckLYh6Wq6-24">
          <mxGeometry relative="1" as="geometry" />
        </mxCell>
        <mxCell id="zU6vwitdArwckLYh6Wq6-26" style="edgeStyle=orthogonalEdgeStyle;rounded=0;orthogonalLoop=1;jettySize=auto;html=1;" edge="1" parent="1" source="zU6vwitdArwckLYh6Wq6-8" target="zU6vwitdArwckLYh6Wq6-22">
          <mxGeometry relative="1" as="geometry" />
        </mxCell>
        <mxCell id="zU6vwitdArwckLYh6Wq6-27" value="" style="endArrow=classic;html=1;rounded=0;exitX=0.5;exitY=1;exitDx=0;exitDy=0;entryX=0.5;entryY=0;entryDx=0;entryDy=0;" edge="1" parent="1" source="zU6vwitdArwckLYh6Wq6-2" target="zU6vwitdArwckLYh6Wq6-6">
          <mxGeometry width="50" height="50" relative="1" as="geometry">
            <mxPoint x="210" y="110" as="sourcePoint" />
            <mxPoint x="160" y="150" as="targetPoint" />
          </mxGeometry>
        </mxCell>
        <mxCell id="zU6vwitdArwckLYh6Wq6-28" value="" style="endArrow=classic;html=1;rounded=0;entryX=0.5;entryY=0;entryDx=0;entryDy=0;exitX=0.5;exitY=1;exitDx=0;exitDy=0;" edge="1" parent="1" source="zU6vwitdArwckLYh6Wq6-2" target="zU6vwitdArwckLYh6Wq6-10">
          <mxGeometry width="50" height="50" relative="1" as="geometry">
            <mxPoint x="500" y="300" as="sourcePoint" />
            <mxPoint x="170" y="160" as="targetPoint" />
          </mxGeometry>
        </mxCell>
        <mxCell id="zU6vwitdArwckLYh6Wq6-29" value="" style="endArrow=classic;html=1;rounded=0;exitX=0.5;exitY=1;exitDx=0;exitDy=0;entryX=0.5;entryY=0;entryDx=0;entryDy=0;" edge="1" parent="1" source="zU6vwitdArwckLYh6Wq6-2" target="zU6vwitdArwckLYh6Wq6-15">
          <mxGeometry width="50" height="50" relative="1" as="geometry">
            <mxPoint x="210" y="110" as="sourcePoint" />
            <mxPoint x="160" y="150" as="targetPoint" />
          </mxGeometry>
        </mxCell>
        <mxCell id="zU6vwitdArwckLYh6Wq6-30" value="" style="endArrow=classic;html=1;rounded=0;entryX=0.5;entryY=0;entryDx=0;entryDy=0;exitX=0.5;exitY=1;exitDx=0;exitDy=0;" edge="1" parent="1" source="zU6vwitdArwckLYh6Wq6-2" target="zU6vwitdArwckLYh6Wq6-19">
          <mxGeometry width="50" height="50" relative="1" as="geometry">
            <mxPoint x="220" y="120" as="sourcePoint" />
            <mxPoint x="860" y="330" as="targetPoint" />
          </mxGeometry>
        </mxCell>
      </root>
    </mxGraphModel>
  </diagram>
</mxfile>
